<svg version="1.1" viewBox="0.0 0.0 879.501312335958 258.0" fill="none" stroke="none" stroke-linecap="square" stroke-miterlimit="10" xmlns:xlink="http://www.w3.org/1999/xlink" xmlns="http://www.w3.org/2000/svg"><clipPath id="p.0"><path d="m0 0l879.50134 0l0 258.0l-879.50134 0l0 -258.0z" clip-rule="nonzero"/></clipPath><g clip-path="url(#p.0)"><path fill="#000000" fill-opacity="0.0" d="m0 0l879.50134 0l0 258.0l-879.50134 0z" fill-rule="evenodd"/><g filter="url(#shadowFilter-p.1)"><use xlink:href="#p.1" transform="matrix(1.0 0.0 0.0 1.0 1.3893167979002625 1.4386797900262436)"/></g><defs><filter id="shadowFilter-p.1" filterUnits="userSpaceOnUse"><feGaussianBlur in="SourceAlpha" stdDeviation="0.0" result="blur"/><feComponentTransfer in="blur" color-interpolation-filters="sRGB"><feFuncR type="linear" slope="0" intercept="0.0"/><feFuncG type="linear" slope="0" intercept="0.0"/><feFuncB type="linear" slope="0" intercept="0.0"/><feFuncA type="linear" slope="0.14" intercept="0"/></feComponentTransfer></filter></defs><g id="p.1"><path fill="#cccccc" d="m4.115487 6.822926c0 -1.759099 1.4260316 -3.1851308 3.1851306 -3.1851308l863.2676 0c0.84472656 0 1.6548462 0.33557534 2.2521973 0.93290305c0.5973511 0.5973282 0.93292236 1.4074783 0.93292236 2.2522278l0 41.06281c0 1.7591019 -1.4260254 3.185131 -3.1851196 3.185131l-863.2676 0c-1.759099 0 -3.1851306 -1.4260292 -3.1851306 -3.185131z" fill-rule="evenodd"/><path stroke="#b7b7b7" stroke-width="1.0" stroke-linejoin="round" stroke-linecap="butt" d="m4.115487 6.822926c0 -1.759099 1.4260316 -3.1851308 3.1851306 -3.1851308l863.2676 0c0.84472656 0 1.6548462 0.33557534 2.2521973 0.93290305c0.5973511 0.5973282 0.93292236 1.4074783 0.93292236 2.2522278l0 41.06281c0 1.7591019 -1.4260254 3.185131 -3.1851196 3.185131l-863.2676 0c-1.759099 0 -3.1851306 -1.4260292 -3.1851306 -3.185131z" fill-rule="evenodd"/><path fill="#000000" d="m420.15704 33.417454q-1.265625 0 -2.1875 -0.40625q-0.921875 -0.40625 -1.453125 -1.1406231q-0.515625 -0.734375 -0.59375 -1.703125l1.53125 0q0.0625 0.65625 0.4375 1.078125q0.390625 0.421875 0.984375 0.640625q0.59375 0.2031231 1.28125 0.2031231q0.78125 0 1.40625 -0.2499981q0.640625 -0.265625 1.0 -0.734375q0.375 -0.46875 0.375 -1.09375q0 -0.5625 -0.328125 -0.90625q-0.3125 -0.359375 -0.84375 -0.578125q-0.515625 -0.234375 -1.140625 -0.40625l-1.40625 -0.390625q-1.40625 -0.40625 -2.1875 -1.140625q-0.78125 -0.75 -0.78125 -1.90625q0 -0.984375 0.53125 -1.71875q0.53125 -0.734375 1.4375 -1.140625q0.90625 -0.40625 2.03125 -0.40625q1.15625 0 2.03125 0.40625q0.890625 0.40625 1.390625 1.109375q0.515625 0.6875 0.546875 1.578125l-1.453125 0q-0.09375 -0.859375 -0.8125 -1.3125q-0.703125 -0.46875 -1.75 -0.46875q-0.75 0 -1.3125 0.25q-0.5625 0.234375 -0.875 0.671875q-0.3125 0.421875 -0.3125 0.96875q0 0.609375 0.375 0.984375q0.375 0.359375 0.890625 0.578125q0.53125 0.203125 0.953125 0.3125l1.15625 0.328125q0.46875 0.125 1.03125 0.34375q0.578125 0.21875 1.09375 0.578125q0.515625 0.359375 0.84375 0.921875q0.328125 0.5625 0.328125 1.375q0 0.953125 -0.5 1.71875q-0.484375 0.7656231 -1.4375 1.2187481q-0.9375 0.4375 -2.28125 0.4375zm7.765625 -5.437498l0 5.234373l-1.40625 0l0 -11.640623l1.40625 0l0 5.015625l-0.234375 0q0.390625 -1.203125 1.125 -1.703125q0.75 -0.515625 1.734375 -0.515625q0.890625 0 1.546875 0.359375q0.671875 0.359375 1.046875 1.09375q0.375 0.734375 0.375 1.84375l0 5.546873l-1.421875 0l0 -5.437498q0 -1.0 -0.53125 -1.5625q-0.515625 -0.578125 -1.4375 -0.578125q-0.625 0 -1.125 0.28125q-0.5 0.265625 -0.796875 0.796875q-0.28125 0.515625 -0.28125 1.265625zm11.7265625 5.421873q-1.265625 0 -2.1875 -0.5625q-0.90625 -0.5625 -1.40625 -1.5624981q-0.5 -1.015625 -0.5 -2.359375q0 -1.34375 0.484375 -2.359375q0.484375 -1.03125 1.375 -1.609375q0.890625 -0.578125 2.078125 -0.578125q0.6875 0 1.359375 0.234375q0.6875 0.21875 1.234375 0.734375q0.546875 0.515625 0.875 1.359375q0.328125 0.828125 0.328125 2.03125l0 0.59375l-6.78125 0l0 -1.1875l6.03125 0l-0.65625 0.4375q0 -0.859375 -0.28125 -1.53125q-0.265625 -0.671875 -0.796875 -1.046875q-0.53125 -0.375 -1.3125 -0.375q-0.796875 0 -1.359375 0.390625q-0.5625 0.375 -0.859375 1.0q-0.296875 0.625 -0.296875 1.328125l0 0.796875q0 0.96875 0.328125 1.640625q0.34375 0.671875 0.953125 1.03125q0.609375 0.3437481 1.40625 0.3437481q0.515625 0 0.9375 -0.140625q0.421875 -0.1562481 0.71875 -0.4531231q0.3125 -0.3125 0.46875 -0.75l1.359375 0.375q-0.203125 0.65625 -0.6875 1.1562481q-0.484375 0.5 -1.203125 0.78125q-0.703125 0.28125 -1.609375 0.28125zm9.328125 0q-1.265625 0 -2.1875 -0.5625q-0.90625 -0.5625 -1.40625 -1.5624981q-0.5 -1.015625 -0.5 -2.359375q0 -1.34375 0.484375 -2.359375q0.484375 -1.03125 1.375 -1.609375q0.890625 -0.578125 2.078125 -0.578125q0.6875 0 1.359375 0.234375q0.6875 0.21875 1.234375 0.734375q0.546875 0.515625 0.875 1.359375q0.328125 0.828125 0.328125 2.03125l0 0.59375l-6.78125 0l0 -1.1875l6.03125 0l-0.65625 0.4375q0 -0.859375 -0.28125 -1.53125q-0.265625 -0.671875 -0.796875 -1.046875q-0.53125 -0.375 -1.3125 -0.375q-0.796875 0 -1.359375 0.390625q-0.5625 0.375 -0.859375 1.0q-0.296875 0.625 -0.296875 1.328125l0 0.796875q0 0.96875 0.328125 1.640625q0.34375 0.671875 0.953125 1.03125q0.609375 0.3437481 1.40625 0.3437481q0.515625 0 0.9375 -0.140625q0.421875 -0.1562481 0.71875 -0.4531231q0.3125 -0.3125 0.46875 -0.75l1.359375 0.375q-0.203125 0.65625 -0.6875 1.1562481q-0.484375 0.5 -1.203125 0.78125q-0.703125 0.28125 -1.609375 0.28125zm7.0625 -5.421873l0 5.234373l-1.40625 0l0 -8.734373l1.359375 0l0 2.109375l-0.1875 0q0.390625 -1.203125 1.125 -1.703125q0.75 -0.515625 1.734375 -0.515625q0.890625 0 1.546875 0.359375q0.671875 0.359375 1.03125 1.09375q0.375 0.734375 0.375 1.84375l0 5.546873l-1.40625 0l0 -5.437498q0 -1.0 -0.53125 -1.5625q-0.515625 -0.578125 -1.4375 -0.578125q-0.625 0 -1.125 0.28125q-0.5 0.265625 -0.796875 0.796875q-0.28125 0.515625 -0.28125 1.265625z" fill-rule="nonzero"/></g><g filter="url(#shadowFilter-p.2)"><use xlink:href="#p.2" transform="matrix(1.0 0.0 0.0 1.0 1.3893167979002625 1.4386797900262531)"/></g><defs><filter id="shadowFilter-p.2" filterUnits="userSpaceOnUse"><feGaussianBlur in="SourceAlpha" stdDeviation="0.0" result="blur"/><feComponentTransfer in="blur" color-interpolation-filters="sRGB"><feFuncR type="linear" slope="0" intercept="0.0"/><feFuncG type="linear" slope="0" intercept="0.0"/><feFuncB type="linear" slope="0" intercept="0.0"/><feFuncA type="linear" slope="0.14" intercept="0"/></feComponentTransfer></filter></defs><g id="p.2"><path fill="#efefef" d="m4.1154847 60.67577c0 -2.3170853 1.8783693 -4.1954536 4.195455 -4.1954536l861.2469 0c1.1127319 0 2.1798706 0.44202042 2.9666748 1.2288208c0.7868042 0.7868004 1.2288208 1.8539276 1.2288208 2.9666328l0 39.042164c0 2.3170853 -1.8783569 4.19545 -4.1954956 4.19545l-861.2469 0c-2.3170857 0 -4.195455 -1.8783646 -4.195455 -4.19545z" fill-rule="evenodd"/><path stroke="#b7b7b7" stroke-width="1.0" stroke-linejoin="round" stroke-linecap="butt" d="m4.1154847 60.67577c0 -2.3170853 1.8783693 -4.1954536 4.195455 -4.1954536l861.2469 0c1.1127319 0 2.1798706 0.44202042 2.9666748 1.2288208c0.7868042 0.7868004 1.2288208 1.8539276 1.2288208 2.9666328l0 39.042164c0 2.3170853 -1.8783569 4.19545 -4.1954956 4.19545l-861.2469 0c-2.3170857 0 -4.195455 -1.8783646 -4.195455 -4.19545z" fill-rule="evenodd"/><path fill="#000000" d="m427.23126 86.213104q-1.5 0 -2.671875 -0.71875q-1.15625 -0.734375 -1.828125 -2.0625q-0.671875 -1.34375 -0.671875 -3.1875q0 -1.859375 0.671875 -3.1875q0.671875 -1.34375 1.828125 -2.0625q1.171875 -0.734375 2.671875 -0.734375q0.875 0 1.65625 0.265625q0.796875 0.25 1.421875 0.75q0.625 0.484375 1.03125 1.203125q0.421875 0.703125 0.578125 1.59375l-1.484375 0q-0.125 -0.59375 -0.421875 -1.046875q-0.296875 -0.453125 -0.734375 -0.765625q-0.4375 -0.3125 -0.96875 -0.46875q-0.515625 -0.15625 -1.078125 -0.15625q-1.046875 0 -1.890625 0.53125q-0.84375 0.53125 -1.34375 1.5625q-0.484375 1.015625 -0.484375 2.515625q0 1.484375 0.484375 2.515625q0.5 1.015625 1.34375 1.546875q0.84375 0.53125 1.890625 0.53125q0.5625 0 1.078125 -0.15625q0.53125 -0.171875 0.96875 -0.46875q0.4375 -0.3125 0.734375 -0.765625q0.296875 -0.46875 0.421875 -1.0625l1.484375 0q-0.140625 0.890625 -0.5625 1.59375q-0.421875 0.703125 -1.046875 1.203125q-0.625 0.5 -1.40625 0.765625q-0.78125 0.265625 -1.671875 0.265625zm10.359375 0.03125q-1.1875 0 -2.09375 -0.5625q-0.890625 -0.5625 -1.390625 -1.578125q-0.5 -1.015625 -0.5 -2.359375q0 -1.375 0.5 -2.390625q0.5 -1.015625 1.390625 -1.578125q0.90625 -0.5625 2.09375 -0.5625q1.1875 0 2.078125 0.5625q0.90625 0.5625 1.40625 1.578125q0.5 1.015625 0.5 2.390625q0 1.34375 -0.5 2.359375q-0.5 1.015625 -1.40625 1.578125q-0.890625 0.5625 -2.078125 0.5625zm0 -1.265625q0.875 0 1.4375 -0.453125q0.578125 -0.453125 0.84375 -1.1875q0.28125 -0.734375 0.28125 -1.59375q0 -0.875 -0.28125 -1.609375q-0.265625 -0.75 -0.84375 -1.203125q-0.5625 -0.46875 -1.4375 -0.46875q-0.875 0 -1.4375 0.46875q-0.5625 0.453125 -0.84375 1.203125q-0.265625 0.734375 -0.265625 1.609375q0 0.859375 0.265625 1.59375q0.28125 0.734375 0.84375 1.1875q0.5625 0.453125 1.4375 0.453125zm8.640625 1.28125q-0.828125 0 -1.515625 -0.3125q-0.671875 -0.3125 -1.078125 -0.90625q-0.390625 -0.609375 -0.390625 -1.46875q0 -0.75 0.296875 -1.21875q0.296875 -0.46875 0.796875 -0.734375q0.5 -0.28125 1.09375 -0.40625q0.609375 -0.140625 1.21875 -0.21875q0.78125 -0.09375 1.265625 -0.140625q0.5 -0.0625 0.734375 -0.1875q0.234375 -0.140625 0.234375 -0.46875l0 -0.046875q0 -0.546875 -0.203125 -0.921875q-0.203125 -0.375 -0.609375 -0.578125q-0.40625 -0.203125 -1.015625 -0.203125q-0.625 0 -1.078125 0.203125q-0.4375 0.1875 -0.71875 0.484375q-0.265625 0.28125 -0.40625 0.59375l-1.359375 -0.453125q0.34375 -0.796875 0.90625 -1.234375q0.578125 -0.453125 1.265625 -0.640625q0.6875 -0.1875 1.359375 -0.1875q0.4375 0 0.984375 0.109375q0.5625 0.09375 1.078125 0.40625q0.53125 0.3125 0.859375 0.9375q0.34375 0.609375 0.34375 1.625l0 5.765625l-1.375 0l0 -1.1875l-0.09375 0q-0.15625 0.296875 -0.484375 0.625q-0.328125 0.328125 -0.859375 0.546875q-0.515625 0.21875 -1.25 0.21875zm0.234375 -1.25q0.78125 0 1.3125 -0.296875q0.546875 -0.3125 0.828125 -0.796875q0.28125 -0.484375 0.28125 -1.015625l0 -1.21875q-0.078125 0.109375 -0.375 0.1875q-0.28125 0.078125 -0.65625 0.140625q-0.375 0.0625 -0.71875 0.109375q-0.34375 0.046875 -0.546875 0.0625q-0.515625 0.0625 -0.953125 0.21875q-0.4375 0.15625 -0.703125 0.453125q-0.265625 0.28125 -0.265625 0.78125q0 0.453125 0.234375 0.765625q0.234375 0.296875 0.640625 0.453125q0.40625 0.15625 0.921875 0.15625zm9.734375 -7.6875l0 1.203125l-4.515625 0l0 -1.203125l4.515625 0zm-3.203125 -2.078125l1.40625 0l0 8.546875q0 0.578125 0.234375 0.859375q0.25 0.265625 0.796875 0.265625q0.140625 0 0.34375 -0.03125q0.203125 -0.03125 0.375 -0.0625l0.296875 1.1875q-0.21875 0.078125 -0.5 0.109375q-0.28125 0.046875 -0.546875 0.046875q-1.140625 0 -1.78125 -0.59375q-0.625 -0.609375 -0.625 -1.671875l0 -8.65625z" fill-rule="nonzero"/></g><g filter="url(#shadowFilter-p.3)"><use xlink:href="#p.3" transform="matrix(1.0 0.0 0.0 1.0 1.389316797900263 1.4386797900262531)"/></g><defs><filter id="shadowFilter-p.3" filterUnits="userSpaceOnUse"><feGaussianBlur in="SourceAlpha" stdDeviation="0.0" result="blur"/><feComponentTransfer in="blur" color-interpolation-filters="sRGB"><feFuncR type="linear" slope="0" intercept="0.0"/><feFuncG type="linear" slope="0" intercept="0.0"/><feFuncB type="linear" slope="0" intercept="0.0"/><feFuncA type="linear" slope="0.14" intercept="0"/></feComponentTransfer></filter></defs><g id="p.3"><path fill="#d9d9d9" d="m6.249344 116.1542c0 -3.7728577 3.058504 -6.83136 6.83136 -6.83136l747.5026 0c1.8118286 0 3.5493774 0.71972656 4.8305054 2.0008545c1.2811279 1.2811279 2.0008545 3.018715 2.0008545 4.8305054l0 130.33728c0 3.7728577 -3.0584717 6.83136 -6.83136 6.83136l-747.5026 0c-3.7728558 0 -6.83136 -3.0585022 -6.83136 -6.83136z" fill-rule="evenodd"/><path stroke="#cccccc" stroke-width="3.0" stroke-linejoin="round" stroke-linecap="butt" d="m6.249344 116.1542c0 -3.7728577 3.058504 -6.83136 6.83136 -6.83136l747.5026 0c1.8118286 0 3.5493774 0.71972656 4.8305054 2.0008545c1.2811279 1.2811279 2.0008545 3.018715 2.0008545 4.8305054l0 130.33728c0 3.7728577 -3.0584717 6.83136 -6.83136 6.83136l-747.5026 0c-3.7728558 0 -6.83136 -3.0585022 -6.83136 -6.83136z" fill-rule="evenodd"/></g><g filter="url(#shadowFilter-p.4)"><use xlink:href="#p.4" transform="matrix(1.0 0.0 0.0 1.0 1.389316797900263 1.4386795275590492)"/></g><defs><filter id="shadowFilter-p.4" filterUnits="userSpaceOnUse"><feGaussianBlur in="SourceAlpha" stdDeviation="0.0" result="blur"/><feComponentTransfer in="blur" color-interpolation-filters="sRGB"><feFuncR type="linear" slope="0" intercept="0.0"/><feFuncG type="linear" slope="0" intercept="0.0"/><feFuncB type="linear" slope="0" intercept="0.0"/><feFuncA type="linear" slope="0.14" intercept="0"/></feComponentTransfer></filter></defs><g id="p.4"><path fill="#d9d2e9" d="m12.959317 117.50401c0 -2.162796 1.753293 -3.9160843 3.916089 -3.9160843l739.88434 0c1.0386353 0 2.034668 0.4125824 2.769104 1.1469955c0.734375 0.7344055 1.1469727 1.7304764 1.1469727 2.7690887l0 15.663895c0 2.162796 -1.7532959 3.9160767 -3.9160767 3.9160767l-739.88434 0c-2.162796 0 -3.916089 -1.7532806 -3.916089 -3.9160767z" fill-rule="evenodd"/><path stroke="#b7b7b7" stroke-width="1.0" stroke-linejoin="round" stroke-linecap="butt" d="m12.959317 117.50401c0 -2.162796 1.753293 -3.9160843 3.916089 -3.9160843l739.88434 0c1.0386353 0 2.034668 0.4125824 2.769104 1.1469955c0.734375 0.7344055 1.1469727 1.7304764 1.1469727 2.7690887l0 15.663895c0 2.162796 -1.7532959 3.9160767 -3.9160767 3.9160767l-739.88434 0c-2.162796 0 -3.916089 -1.7532806 -3.916089 -3.9160767z" fill-rule="evenodd"/><path fill="#000000" d="m353.16913 120.867836l0 -1.3125l8.796875 0l0 1.3125l-3.640625 0l0 10.328117l-1.484375 0l0 -10.328117l-3.671875 0zm12.203125 5.09375l0 5.2343674l-1.40625 0l0 -11.640617l1.40625 0l0 5.015625l-0.234375 0q0.390625 -1.203125 1.125 -1.703125q0.75 -0.515625 1.734375 -0.515625q0.890625 0 1.546875 0.359375q0.671875 0.359375 1.046875 1.09375q0.375 0.734375 0.375 1.84375l0 5.5468674l-1.421875 0l0 -5.4374924q0 -1.0 -0.53125 -1.5625q-0.515625 -0.578125 -1.4375 -0.578125q-0.625 0 -1.125 0.28125q-0.5 0.265625 -0.796875 0.796875q-0.28125 0.515625 -0.28125 1.265625zm8.0546875 5.2343674l0 -8.734367l1.40625 0l0 8.734367l-1.40625 0zm0.71875 -10.171867q-0.40625 0 -0.703125 -0.265625q-0.28125 -0.28125 -0.28125 -0.65625q0 -0.390625 0.28125 -0.65625q0.296875 -0.28125 0.703125 -0.28125q0.40625 0 0.6875 0.28125q0.296875 0.265625 0.296875 0.65625q0 0.375 -0.296875 0.65625q-0.28125 0.265625 -0.6875 0.265625zm4.5625 4.9375l0 5.2343674l-1.40625 0l0 -8.734367l1.359375 0l0 2.109375l-0.1875 0q0.390625 -1.203125 1.125 -1.703125q0.75 -0.515625 1.734375 -0.515625q0.890625 0 1.546875 0.359375q0.671875 0.359375 1.03125 1.09375q0.375 0.734375 0.375 1.84375l0 5.5468674l-1.40625 0l0 -5.4374924q0 -1.0 -0.53125 -1.5625q-0.515625 -0.578125 -1.4375 -0.578125q-0.625 0 -1.125 0.28125q-0.5 0.265625 -0.796875 0.796875q-0.28125 0.515625 -0.28125 1.265625zm12.71875 5.2343674l0 -11.640617l7.046875 0l0 1.3125l-5.5625 0l0 3.984375l5.03125 0l0 1.3125l-5.03125 0l0 5.0312424l-1.484375 0zm9.2734375 0l0 -8.734367l1.40625 0l0 8.734367l-1.40625 0zm0.71875 -10.171867q-0.40625 0 -0.703125 -0.265625q-0.28125 -0.28125 -0.28125 -0.65625q0 -0.390625 0.28125 -0.65625q0.296875 -0.28125 0.703125 -0.28125q0.40625 0 0.6875 0.28125q0.296875 0.265625 0.296875 0.65625q0 0.375 -0.296875 0.65625q-0.28125 0.265625 -0.6875 0.265625zm4.5625 -1.46875l0 11.640617l-1.40625 0l0 -11.640617l1.40625 0zm2.46875 11.640617l0 -8.734367l1.375 0l0 1.953125l-0.109375 0q0.1875 -0.71875 0.5625 -1.171875q0.390625 -0.46875 0.90625 -0.703125q0.53125 -0.234375 1.09375 -0.234375q0.953125 0 1.53125 0.59375q0.59375 0.578125 0.765625 1.53125l-0.1875 0q0.15625 -0.65625 0.5625 -1.125q0.421875 -0.484375 1.015625 -0.734375q0.59375 -0.265625 1.28125 -0.265625q0.765625 0 1.390625 0.328125q0.625 0.328125 0.984375 1.0q0.375 0.65625 0.375 1.671875l0 5.8906174l-1.40625 0l0 -5.8593674q0 -0.9375 -0.53125 -1.34375q-0.53125 -0.40625 -1.234375 -0.40625q-0.578125 0 -1.015625 0.25q-0.421875 0.234375 -0.65625 0.671875q-0.21875 0.421875 -0.21875 0.984375l0 5.7031174l-1.40625 0l0 -5.9999924q0 -0.71875 -0.484375 -1.15625q-0.484375 -0.453125 -1.234375 -0.453125q-0.5 0 -0.953125 0.234375q-0.453125 0.234375 -0.734375 0.703125q-0.265625 0.46875 -0.265625 1.171875l0 5.4999924l-1.40625 0z" fill-rule="nonzero"/></g><g filter="url(#shadowFilter-p.5)"><use xlink:href="#p.5" transform="matrix(1.0 0.0 0.0 1.0 1.3893167979002679 1.4386797900262531)"/></g><defs><filter id="shadowFilter-p.5" filterUnits="userSpaceOnUse"><feGaussianBlur in="SourceAlpha" stdDeviation="0.0" result="blur"/><feComponentTransfer in="blur" color-interpolation-filters="sRGB"><feFuncR type="linear" slope="0" intercept="0.0"/><feFuncG type="linear" slope="0" intercept="0.0"/><feFuncB type="linear" slope="0" intercept="0.0"/><feFuncA type="linear" slope="0.14" intercept="0"/></feComponentTransfer></filter></defs><g id="p.5"><defs><linearGradient id="p.6" gradientUnits="userSpaceOnUse" gradientTransform="matrix(10.387794304179913 0.0 0.0 10.387794304179913 0.0 0.0)" spreadMethod="pad" x1="22.527244937148946" y1="13.654656305019282" x2="22.527207431618308" y2="24.042450609131492"><stop offset="0.0" stop-color="#9fc5e8"/><stop offset="1.0" stop-color="#ffffff"/></linearGradient></defs><path fill="url(#p.6)" d="m234.00838 148.24887c0 -3.5381317 2.868225 -6.406357 6.406357 -6.406357l197.35101 0c1.6990662 0 3.3285522 0.6749573 4.529999 1.8763885c1.201416 1.201416 1.8763733 2.830902 1.8763733 4.5299683l0 95.092804c0 3.5381317 -2.868225 6.406357 -6.406372 6.406357l-197.35101 0c-3.5381317 0 -6.406357 -2.868225 -6.406357 -6.406357z" fill-rule="evenodd"/><path stroke="#b7b7b7" stroke-width="1.0" stroke-linejoin="round" stroke-linecap="butt" d="m234.00838 148.24887c0 -3.5381317 2.868225 -6.406357 6.406357 -6.406357l197.35101 0c1.6990662 0 3.3285522 0.6749573 4.529999 1.8763885c1.201416 1.201416 1.8763733 2.830902 1.8763733 4.5299683l0 95.092804c0 3.5381317 -2.868225 6.406357 -6.406372 6.406357l-197.35101 0c-3.5381317 0 -6.406357 -2.868225 -6.406357 -6.406357z" fill-rule="evenodd"/><path fill="#000000" d="m289.84024 191.32715l0 -1.3125l8.796875 0l0 1.3125l-3.640625 0l0 10.328125l-1.484375 0l0 -10.328125l-3.671875 0zm9.890625 10.328125l0 -8.734375l1.359375 0l0 1.34375l0.09375 0q0.25 -0.671875 0.859375 -1.0625q0.625 -0.40625 1.40625 -0.40625q0.15625 0 0.375 0.015625q0.21875 0 0.34375 0l0 1.421875q-0.0625 -0.015625 -0.3125 -0.046875q-0.25 -0.03125 -0.53125 -0.03125q-0.625 0 -1.125 0.265625q-0.5 0.25 -0.78125 0.71875q-0.28125 0.453125 -0.28125 1.046875l0 5.46875l-1.40625 0zm8.4765625 0.203125q-0.828125 0 -1.515625 -0.3125q-0.671875 -0.3125 -1.078125 -0.90625q-0.390625 -0.609375 -0.390625 -1.46875q0 -0.75 0.296875 -1.21875q0.296875 -0.46875 0.796875 -0.734375q0.5 -0.28125 1.09375 -0.40625q0.609375 -0.140625 1.21875 -0.21875q0.78125 -0.09375 1.265625 -0.140625q0.5 -0.0625 0.734375 -0.1875q0.234375 -0.140625 0.234375 -0.46875l0 -0.046875q0 -0.546875 -0.203125 -0.921875q-0.203125 -0.375 -0.609375 -0.578125q-0.40625 -0.203125 -1.015625 -0.203125q-0.625 0 -1.078125 0.203125q-0.4375 0.1875 -0.71875 0.484375q-0.265625 0.28125 -0.40625 0.59375l-1.359375 -0.453125q0.34375 -0.796875 0.90625 -1.234375q0.578125 -0.453125 1.265625 -0.640625q0.6875 -0.1875 1.359375 -0.1875q0.4375 0 0.984375 0.109375q0.5625 0.09375 1.078125 0.40625q0.53125 0.3125 0.859375 0.9375q0.34375 0.609375 0.34375 1.625l0 5.765625l-1.375 0l0 -1.1875l-0.09375 0q-0.15625 0.296875 -0.484375 0.625q-0.328125 0.328125 -0.859375 0.546875q-0.515625 0.21875 -1.25 0.21875zm0.234375 -1.25q0.78125 0 1.3125 -0.296875q0.546875 -0.3125 0.828125 -0.796875q0.28125 -0.484375 0.28125 -1.015625l0 -1.21875q-0.078125 0.109375 -0.375 0.1875q-0.28125 0.078125 -0.65625 0.140625q-0.375 0.0625 -0.71875 0.109375q-0.34375 0.046875 -0.546875 0.0625q-0.515625 0.0625 -0.953125 0.21875q-0.4375 0.15625 -0.703125 0.453125q-0.265625 0.28125 -0.265625 0.78125q0 0.453125 0.234375 0.765625q0.234375 0.296875 0.640625 0.453125q0.40625 0.15625 0.921875 0.15625zm7.703125 -4.1875l0 5.234375l-1.40625 0l0 -8.734375l1.359375 0l0 2.109375l-0.1875 0q0.390625 -1.203125 1.125 -1.703125q0.75 -0.515625 1.734375 -0.515625q0.890625 0 1.546875 0.359375q0.671875 0.359375 1.03125 1.09375q0.375 0.734375 0.375 1.84375l0 5.546875l-1.40625 0l0 -5.4375q0 -1.0 -0.53125 -1.5625q-0.515625 -0.578125 -1.4375 -0.578125q-0.625 0 -1.125 0.28125q-0.5 0.265625 -0.796875 0.796875q-0.28125 0.515625 -0.28125 1.265625zm11.015625 5.421875q-0.890625 0 -1.59375 -0.265625q-0.703125 -0.265625 -1.15625 -0.78125q-0.453125 -0.515625 -0.609375 -1.265625l1.34375 -0.3125q0.1875 0.71875 0.703125 1.0625q0.515625 0.328125 1.296875 0.328125q0.921875 0 1.453125 -0.390625q0.546875 -0.390625 0.546875 -0.9375q0 -0.453125 -0.3125 -0.75q-0.3125 -0.296875 -0.96875 -0.453125l-1.453125 -0.34375q-1.1875 -0.28125 -1.765625 -0.859375q-0.578125 -0.59375 -0.578125 -1.515625q0 -0.75 0.421875 -1.328125q0.421875 -0.578125 1.15625 -0.890625q0.734375 -0.328125 1.65625 -0.328125q0.90625 0 1.53125 0.265625q0.625 0.265625 1.015625 0.75q0.40625 0.46875 0.59375 1.078125l-1.265625 0.328125q-0.1875 -0.46875 -0.609375 -0.84375q-0.40625 -0.390625 -1.25 -0.390625q-0.78125 0 -1.3125 0.359375q-0.515625 0.359375 -0.515625 0.90625q0 0.484375 0.34375 0.78125q0.359375 0.296875 1.125 0.46875l1.328125 0.3125q1.1875 0.28125 1.75 0.875q0.578125 0.59375 0.578125 1.484375q0 0.765625 -0.4375 1.375q-0.4375 0.59375 -1.21875 0.9375q-0.765625 0.34375 -1.796875 0.34375zm5.4765625 -0.1875l0 -8.734375l1.375 0l0 1.953125l-0.109375 0q0.1875 -0.71875 0.5625 -1.171875q0.390625 -0.46875 0.90625 -0.703125q0.53125 -0.234375 1.09375 -0.234375q0.953125 0 1.53125 0.59375q0.59375 0.578125 0.765625 1.53125l-0.1875 0q0.15625 -0.65625 0.5625 -1.125q0.421875 -0.484375 1.015625 -0.734375q0.59375 -0.265625 1.28125 -0.265625q0.765625 0 1.390625 0.328125q0.625 0.328125 0.984375 1.0q0.375 0.65625 0.375 1.671875l0 5.890625l-1.40625 0l0 -5.859375q0 -0.9375 -0.53125 -1.34375q-0.53125 -0.40625 -1.234375 -0.40625q-0.578125 0 -1.015625 0.25q-0.421875 0.234375 -0.65625 0.671875q-0.21875 0.421875 -0.21875 0.984375l0 5.703125l-1.40625 0l0 -6.0q0 -0.71875 -0.484375 -1.15625q-0.484375 -0.453125 -1.234375 -0.453125q-0.5 0 -0.953125 0.234375q-0.453125 0.234375 -0.734375 0.703125q-0.265625 0.46875 -0.265625 1.171875l0 5.5l-1.40625 0zm14.015625 0l0 -8.734375l1.40625 0l0 8.734375l-1.40625 0zm0.71875 -10.171875q-0.40625 0 -0.703125 -0.265625q-0.28125 -0.28125 -0.28125 -0.65625q0 -0.390625 0.28125 -0.65625q0.296875 -0.28125 0.703125 -0.28125q0.40625 0 0.6875 0.28125q0.296875 0.265625 0.296875 0.65625q0 0.375 -0.296875 0.65625q-0.28125 0.265625 -0.6875 0.265625zm6.125 10.359375q-0.890625 0 -1.59375 -0.265625q-0.703125 -0.265625 -1.15625 -0.78125q-0.453125 -0.515625 -0.609375 -1.265625l1.34375 -0.3125q0.1875 0.71875 0.703125 1.0625q0.515625 0.328125 1.296875 0.328125q0.921875 0 1.453125 -0.390625q0.546875 -0.390625 0.546875 -0.9375q0 -0.453125 -0.3125 -0.75q-0.3125 -0.296875 -0.96875 -0.453125l-1.453125 -0.34375q-1.1875 -0.28125 -1.765625 -0.859375q-0.578125 -0.59375 -0.578125 -1.515625q0 -0.75 0.421875 -1.328125q0.421875 -0.578125 1.15625 -0.890625q0.734375 -0.328125 1.65625 -0.328125q0.90625 0 1.53125 0.265625q0.625 0.265625 1.015625 0.75q0.40625 0.46875 0.59375 1.078125l-1.265625 0.328125q-0.1875 -0.46875 -0.609375 -0.84375q-0.40625 -0.390625 -1.25 -0.390625q-0.78125 0 -1.3125 0.359375q-0.515625 0.359375 -0.515625 0.90625q0 0.484375 0.34375 0.78125q0.359375 0.296875 1.125 0.46875l1.328125 0.3125q1.1875 0.28125 1.75 0.875q0.578125 0.59375 0.578125 1.484375q0 0.765625 -0.4375 1.375q-0.4375 0.59375 -1.21875 0.9375q-0.765625 0.34375 -1.796875 0.34375zm8.4453125 0q-0.890625 0 -1.59375 -0.265625q-0.703125 -0.265625 -1.15625 -0.78125q-0.453125 -0.515625 -0.609375 -1.265625l1.34375 -0.3125q0.1875 0.71875 0.703125 1.0625q0.515625 0.328125 1.296875 0.328125q0.921875 0 1.453125 -0.390625q0.546875 -0.390625 0.546875 -0.9375q0 -0.453125 -0.3125 -0.75q-0.3125 -0.296875 -0.96875 -0.453125l-1.453125 -0.34375q-1.1875 -0.28125 -1.765625 -0.859375q-0.578125 -0.59375 -0.578125 -1.515625q0 -0.75 0.421875 -1.328125q0.421875 -0.578125 1.15625 -0.890625q0.734375 -0.328125 1.65625 -0.328125q0.90625 0 1.53125 0.265625q0.625 0.265625 1.015625 0.75q0.40625 0.46875 0.59375 1.078125l-1.265625 0.328125q-0.1875 -0.46875 -0.609375 -0.84375q-0.40625 -0.390625 -1.25 -0.390625q-0.78125 0 -1.3125 0.359375q-0.515625 0.359375 -0.515625 0.90625q0 0.484375 0.34375 0.78125q0.359375 0.296875 1.125 0.46875l1.328125 0.3125q1.1875 0.28125 1.75 0.875q0.578125 0.59375 0.578125 1.484375q0 0.765625 -0.4375 1.375q-0.4375 0.59375 -1.21875 0.9375q-0.765625 0.34375 -1.796875 0.34375zm5.4765625 -0.1875l0 -8.734375l1.40625 0l0 8.734375l-1.40625 0zm0.71875 -10.171875q-0.40625 0 -0.703125 -0.265625q-0.28125 -0.28125 -0.28125 -0.65625q0 -0.390625 0.28125 -0.65625q0.296875 -0.28125 0.703125 -0.28125q0.40625 0 0.6875 0.28125q0.296875 0.265625 0.296875 0.65625q0 0.375 -0.296875 0.65625q-0.28125 0.265625 -0.6875 0.265625zm6.71875 10.359375q-1.1875 0 -2.09375 -0.5625q-0.890625 -0.5625 -1.390625 -1.578125q-0.5 -1.015625 -0.5 -2.359375q0 -1.375 0.5 -2.390625q0.5 -1.015625 1.390625 -1.578125q0.90625 -0.5625 2.09375 -0.5625q1.1875 0 2.078125 0.5625q0.90625 0.5625 1.40625 1.578125q0.5 1.015625 0.5 2.390625q0 1.34375 -0.5 2.359375q-0.5 1.015625 -1.40625 1.578125q-0.890625 0.5625 -2.078125 0.5625zm0 -1.265625q0.875 0 1.4375 -0.453125q0.578125 -0.453125 0.84375 -1.1875q0.28125 -0.734375 0.28125 -1.59375q0 -0.875 -0.28125 -1.609375q-0.265625 -0.75 -0.84375 -1.203125q-0.5625 -0.46875 -1.4375 -0.46875q-0.875 0 -1.4375 0.46875q-0.5625 0.453125 -0.84375 1.203125q-0.265625 0.734375 -0.265625 1.609375q0 0.859375 0.265625 1.59375q0.28125 0.734375 0.84375 1.1875q0.5625 0.453125 1.4375 0.453125zm7.4375 -4.15625l0 5.234375l-1.40625 0l0 -8.734375l1.359375 0l0 2.109375l-0.1875 0q0.390625 -1.203125 1.125 -1.703125q0.75 -0.515625 1.734375 -0.515625q0.890625 0 1.546875 0.359375q0.671875 0.359375 1.03125 1.09375q0.375 0.734375 0.375 1.84375l0 5.546875l-1.40625 0l0 -5.4375q0 -1.0 -0.53125 -1.5625q-0.515625 -0.578125 -1.4375 -0.578125q-0.625 0 -1.125 0.28125q-0.5 0.265625 -0.796875 0.796875q-0.28125 0.515625 -0.28125 1.265625z" fill-rule="nonzero"/></g><g filter="url(#shadowFilter-p.7)"><use xlink:href="#p.7" transform="matrix(1.0 0.0 0.0 1.0 1.3893167979002679 1.4386797900262531)"/></g><defs><filter id="shadowFilter-p.7" filterUnits="userSpaceOnUse"><feGaussianBlur in="SourceAlpha" stdDeviation="0.0" result="blur"/><feComponentTransfer in="blur" color-interpolation-filters="sRGB"><feFuncR type="linear" slope="0" intercept="0.0"/><feFuncG type="linear" slope="0" intercept="0.0"/><feFuncB type="linear" slope="0" intercept="0.0"/><feFuncA type="linear" slope="0.14" intercept="0"/></feComponentTransfer></filter></defs><g id="p.7"><path fill="#b6d7a8" d="m455.05588 193.63022c0 -2.4049988 1.9496155 -4.3546295 4.3546143 -4.3546295l135.46487 0c1.1549683 0 2.2625732 0.458786 3.0792236 1.2754364c0.8166504 0.8166504 1.2754517 1.9242706 1.2754517 3.079193l0 51.7632c0 2.4049835 -1.949646 4.3546143 -4.3546753 4.3546143l-135.46487 0c-2.4049988 0 -4.3546143 -1.9496307 -4.3546143 -4.3546143z" fill-rule="evenodd"/><path stroke="#b7b7b7" stroke-width="1.0" stroke-linejoin="round" stroke-linecap="butt" d="m455.05588 193.63022c0 -2.4049988 1.9496155 -4.3546295 4.3546143 -4.3546295l135.46487 0c1.1549683 0 2.2625732 0.458786 3.0792236 1.2754364c0.8166504 0.8166504 1.2754517 1.9242706 1.2754517 3.079193l0 51.7632c0 2.4049835 -1.949646 4.3546143 -4.3546753 4.3546143l-135.46487 0c-2.4049988 0 -4.3546143 -1.9496307 -4.3546143 -4.3546143z" fill-rule="evenodd"/><path fill="#000000" d="m505.25232 225.37181l-2.8125 0l0 -1.3125l2.71875 0q1.421875 0 2.34375 -0.546875q0.9375 -0.546875 1.390625 -1.5625q0.46875 -1.015625 0.46875 -2.421875q0 -1.40625 -0.453125 -2.40625q-0.453125 -1.0 -1.359375 -1.53125q-0.90625 -0.546875 -2.25 -0.546875l-2.921875 0l0 -1.3125l3.015625 0q1.703125 0 2.90625 0.703125q1.21875 0.6875 1.859375 1.984375q0.640625 1.296875 0.640625 3.109375q0 1.8125 -0.65625 3.125q-0.640625 1.3125 -1.890625 2.015625q-1.234375 0.703125 -3.0 0.703125zm-2.15625 -11.640625l0 11.640625l-1.484375 0l0 -11.640625l1.484375 0zm9.890625 11.640625l0 -8.734375l1.40625 0l0 8.734375l-1.40625 0zm0.71875 -10.171875q-0.40625 0 -0.703125 -0.265625q-0.28125 -0.28125 -0.28125 -0.65625q0 -0.390625 0.28125 -0.65625q0.296875 -0.28125 0.703125 -0.28125q0.40625 0 0.6875 0.28125q0.296875 0.265625 0.296875 0.65625q0 0.375 -0.296875 0.65625q-0.28125 0.265625 -0.6875 0.265625zm7.21875 1.4375l0 1.203125l-5.140625 0l0 -1.203125l5.140625 0zm-3.421875 8.734375l0 -9.90625q0 -0.75 0.359375 -1.25q0.359375 -0.515625 0.921875 -0.765625q0.578125 -0.265625 1.203125 -0.265625q0.5 0 0.828125 0.078125q0.328125 0.078125 0.484375 0.15625l-0.390625 1.203125q-0.109375 -0.046875 -0.28125 -0.09375q-0.171875 -0.046875 -0.46875 -0.046875q-0.65625 0 -0.953125 0.34375q-0.296875 0.328125 -0.296875 0.953125l0 9.59375l-1.40625 0zm8.71875 -8.734375l0 1.203125l-5.140625 0l0 -1.203125l5.140625 0zm-3.421875 8.734375l0 -9.90625q0 -0.75 0.359375 -1.25q0.359375 -0.515625 0.921875 -0.765625q0.578125 -0.265625 1.203125 -0.265625q0.5 0 0.828125 0.078125q0.328125 0.078125 0.484375 0.15625l-0.390625 1.203125q-0.109375 -0.046875 -0.28125 -0.09375q-0.171875 -0.046875 -0.46875 -0.046875q-0.65625 0 -0.953125 0.34375q-0.296875 0.328125 -0.296875 0.953125l0 9.59375l-1.40625 0zm8.25 0.109375q-0.890625 0 -1.5625 -0.359375q-0.65625 -0.375 -1.03125 -1.109375q-0.375 -0.734375 -0.375 -1.828125l0 -5.546875l1.40625 0l0 5.421875q0 1.015625 0.53125 1.59375q0.53125 0.5625 1.453125 0.5625q0.625 0 1.109375 -0.265625q0.5 -0.28125 0.78125 -0.8125q0.296875 -0.53125 0.296875 -1.265625l0 -5.234375l1.421875 0l0 8.734375l-1.359375 0l0 -2.125l0.1875 0q-0.40625 1.234375 -1.15625 1.734375q-0.75 0.5 -1.703125 0.5zm9.4609375 0.078125q-0.890625 0 -1.59375 -0.265625q-0.703125 -0.265625 -1.15625 -0.78125q-0.453125 -0.515625 -0.609375 -1.265625l1.34375 -0.3125q0.1875 0.71875 0.703125 1.0625q0.515625 0.328125 1.296875 0.328125q0.921875 0 1.453125 -0.390625q0.546875 -0.390625 0.546875 -0.9375q0 -0.453125 -0.3125 -0.75q-0.3125 -0.296875 -0.96875 -0.453125l-1.453125 -0.34375q-1.1875 -0.28125 -1.765625 -0.859375q-0.578125 -0.59375 -0.578125 -1.515625q0 -0.75 0.421875 -1.328125q0.421875 -0.578125 1.15625 -0.890625q0.734375 -0.328125 1.65625 -0.328125q0.90625 0 1.53125 0.265625q0.625 0.265625 1.015625 0.75q0.40625 0.46875 0.59375 1.078125l-1.265625 0.328125q-0.1875 -0.46875 -0.609375 -0.84375q-0.40625 -0.390625 -1.25 -0.390625q-0.78125 0 -1.3125 0.359375q-0.515625 0.359375 -0.515625 0.90625q0 0.484375 0.34375 0.78125q0.359375 0.296875 1.125 0.46875l1.328125 0.3125q1.1875 0.28125 1.75 0.875q0.578125 0.59375 0.578125 1.484375q0 0.765625 -0.4375 1.375q-0.4375 0.59375 -1.21875 0.9375q-0.765625 0.34375 -1.796875 0.34375zm9.1484375 0q-1.265625 0 -2.1875 -0.5625q-0.90625 -0.5625 -1.40625 -1.5625q-0.5 -1.015625 -0.5 -2.359375q0 -1.34375 0.484375 -2.359375q0.484375 -1.03125 1.375 -1.609375q0.890625 -0.578125 2.078125 -0.578125q0.6875 0 1.359375 0.234375q0.6875 0.21875 1.234375 0.734375q0.546875 0.515625 0.875 1.359375q0.328125 0.828125 0.328125 2.03125l0 0.59375l-6.78125 0l0 -1.1875l6.03125 0l-0.65625 0.4375q0 -0.859375 -0.28125 -1.53125q-0.265625 -0.671875 -0.796875 -1.046875q-0.53125 -0.375 -1.3125 -0.375q-0.796875 0 -1.359375 0.390625q-0.5625 0.375 -0.859375 1.0q-0.296875 0.625 -0.296875 1.328125l0 0.796875q0 0.96875 0.328125 1.640625q0.34375 0.671875 0.953125 1.03125q0.609375 0.34375 1.40625 0.34375q0.515625 0 0.9375 -0.140625q0.421875 -0.15625 0.71875 -0.453125q0.3125 -0.3125 0.46875 -0.75l1.359375 0.375q-0.203125 0.65625 -0.6875 1.15625q-0.484375 0.5 -1.203125 0.78125q-0.703125 0.28125 -1.609375 0.28125z" fill-rule="nonzero"/></g><g filter="url(#shadowFilter-p.8)"><use xlink:href="#p.8" transform="matrix(1.0 0.0 0.0 1.0 1.3893167979002679 1.4386797900262531)"/></g><defs><filter id="shadowFilter-p.8" filterUnits="userSpaceOnUse"><feGaussianBlur in="SourceAlpha" stdDeviation="0.0" result="blur"/><feComponentTransfer in="blur" color-interpolation-filters="sRGB"><feFuncR type="linear" slope="0" intercept="0.0"/><feFuncG type="linear" slope="0" intercept="0.0"/><feFuncB type="linear" slope="0" intercept="0.0"/><feFuncA type="linear" slope="0.14" intercept="0"/></feComponentTransfer></filter></defs><g id="p.8"><defs><linearGradient id="p.9" gradientUnits="userSpaceOnUse" gradientTransform="matrix(7.776437107166268 0.0 0.0 7.776437107166268 0.0 0.0)" spreadMethod="pad" x1="78.40529285298072" y1="24.338547433828477" x2="78.40526648454353" y2="32.11498454095004"><stop offset="0.0" stop-color="#ea9999"/><stop offset="1.0" stop-color="#fce5cd"/></linearGradient></defs><path fill="url(#p.9)" d="m609.7138 193.40282c0 -2.2837524 1.8513794 -4.1351013 4.135132 -4.1351013l142.17236 0c1.0966797 0 2.1484985 0.43566895 2.9239502 1.2111511c0.7755127 0.7754822 1.2111816 1.8272552 1.2111816 2.9239502l0 52.20224c0 2.2837524 -1.8513794 4.1351013 -4.135132 4.1351013l-142.17236 0c-2.2837524 0 -4.135132 -1.8513489 -4.135132 -4.1351013z" fill-rule="evenodd"/><path stroke="#b7b7b7" stroke-width="1.0" stroke-linejoin="round" stroke-linecap="butt" d="m609.7138 193.40282c0 -2.2837524 1.8513794 -4.1351013 4.135132 -4.1351013l142.17236 0c1.0966797 0 2.1484985 0.43566895 2.9239502 1.2111511c0.7755127 0.7754822 1.2111816 1.8272552 1.2111816 2.9239502l0 52.20224c0 2.2837524 -1.8513794 4.1351013 -4.135132 4.1351013l-142.17236 0c-2.2837524 0 -4.135132 -1.8513489 -4.135132 -4.1351013z" fill-rule="evenodd"/><path fill="#000000" d="m646.6617 225.56706q-1.265625 0 -2.1875 -0.40625q-0.921875 -0.40625 -1.453125 -1.140625q-0.515625 -0.734375 -0.59375 -1.703125l1.53125 0q0.0625 0.65625 0.4375 1.078125q0.390625 0.421875 0.984375 0.640625q0.59375 0.203125 1.28125 0.203125q0.78125 0 1.40625 -0.25q0.640625 -0.265625 1.0 -0.734375q0.375 -0.46875 0.375 -1.09375q0 -0.5625 -0.328125 -0.90625q-0.3125 -0.359375 -0.84375 -0.578125q-0.515625 -0.234375 -1.140625 -0.40625l-1.40625 -0.390625q-1.40625 -0.40625 -2.1875 -1.140625q-0.78125 -0.75 -0.78125 -1.90625q0 -0.984375 0.53125 -1.71875q0.53125 -0.734375 1.4375 -1.140625q0.90625 -0.40625 2.03125 -0.40625q1.15625 0 2.03125 0.40625q0.890625 0.40625 1.390625 1.109375q0.515625 0.6875 0.546875 1.578125l-1.453125 0q-0.09375 -0.859375 -0.8125 -1.3125q-0.703125 -0.46875 -1.75 -0.46875q-0.75 0 -1.3125 0.25q-0.5625 0.234375 -0.875 0.671875q-0.3125 0.421875 -0.3125 0.96875q0 0.609375 0.375 0.984375q0.375 0.359375 0.890625 0.578125q0.53125 0.203125 0.953125 0.3125l1.15625 0.328125q0.46875 0.125 1.03125 0.34375q0.578125 0.21875 1.09375 0.578125q0.515625 0.359375 0.84375 0.921875q0.328125 0.5625 0.328125 1.375q0 0.953125 -0.5 1.71875q-0.484375 0.765625 -1.4375 1.21875q-0.9375 0.4375 -2.28125 0.4375zm9.328125 -0.09375q-0.890625 0 -1.5625 -0.359375q-0.65625 -0.375 -1.03125 -1.109375q-0.375 -0.734375 -0.375 -1.828125l0 -5.546875l1.40625 0l0 5.421875q0 1.015625 0.53125 1.59375q0.53125 0.5625 1.453125 0.5625q0.625 0 1.109375 -0.265625q0.5 -0.28125 0.78125 -0.8125q0.296875 -0.53125 0.296875 -1.265625l0 -5.234375l1.421875 0l0 8.734375l-1.359375 0l0 -2.125l0.1875 0q-0.40625 1.234375 -1.15625 1.734375q-0.75 0.5 -1.703125 0.5zm10.5546875 0.078125q-0.828125 0 -1.34375 -0.28125q-0.5 -0.296875 -0.78125 -0.65625q-0.265625 -0.359375 -0.421875 -0.609375l-0.15625 0l0 1.359375l-1.359375 0l0 -11.640625l1.40625 0l0 4.296875l0.109375 0q0.15625 -0.234375 0.421875 -0.578125q0.265625 -0.359375 0.765625 -0.640625q0.5 -0.28125 1.34375 -0.28125q1.09375 0 1.921875 0.546875q0.84375 0.546875 1.3125 1.5625q0.46875 1.0 0.46875 2.390625q0 1.390625 -0.46875 2.40625q-0.46875 1.015625 -1.296875 1.578125q-0.828125 0.546875 -1.921875 0.546875zm-0.21875 -1.265625q0.828125 0 1.375 -0.4375q0.546875 -0.4375 0.828125 -1.1875q0.28125 -0.75 0.28125 -1.65625q0 -0.90625 -0.28125 -1.640625q-0.265625 -0.734375 -0.828125 -1.15625q-0.546875 -0.4375 -1.375 -0.4375q-0.796875 0 -1.34375 0.40625q-0.546875 0.40625 -0.828125 1.140625q-0.28125 0.71875 -0.28125 1.6875q0 0.96875 0.28125 1.71875q0.28125 0.734375 0.828125 1.15625q0.5625 0.40625 1.34375 0.40625zm8.921875 1.265625q-0.890625 0 -1.59375 -0.265625q-0.703125 -0.265625 -1.15625 -0.78125q-0.453125 -0.515625 -0.609375 -1.265625l1.34375 -0.3125q0.1875 0.71875 0.703125 1.0625q0.515625 0.328125 1.296875 0.328125q0.921875 0 1.453125 -0.390625q0.546875 -0.390625 0.546875 -0.9375q0 -0.453125 -0.3125 -0.75q-0.3125 -0.296875 -0.96875 -0.453125l-1.453125 -0.34375q-1.1875 -0.28125 -1.765625 -0.859375q-0.578125 -0.59375 -0.578125 -1.515625q0 -0.75 0.421875 -1.328125q0.421875 -0.578125 1.15625 -0.890625q0.734375 -0.328125 1.65625 -0.328125q0.90625 0 1.53125 0.265625q0.625 0.265625 1.015625 0.75q0.40625 0.46875 0.59375 1.078125l-1.265625 0.328125q-0.1875 -0.46875 -0.609375 -0.84375q-0.40625 -0.390625 -1.25 -0.390625q-0.78125 0 -1.3125 0.359375q-0.515625 0.359375 -0.515625 0.90625q0 0.484375 0.34375 0.78125q0.359375 0.296875 1.125 0.46875l1.328125 0.3125q1.1875 0.28125 1.75 0.875q0.578125 0.59375 0.578125 1.484375q0 0.765625 -0.4375 1.375q-0.4375 0.59375 -1.21875 0.9375q-0.765625 0.34375 -1.796875 0.34375zm8.4453125 -0.078125q-0.890625 0 -1.5625 -0.359375q-0.65625 -0.375 -1.03125 -1.109375q-0.375 -0.734375 -0.375 -1.828125l0 -5.546875l1.40625 0l0 5.421875q0 1.015625 0.53125 1.59375q0.53125 0.5625 1.453125 0.5625q0.625 0 1.109375 -0.265625q0.5 -0.28125 0.78125 -0.8125q0.296875 -0.53125 0.296875 -1.265625l0 -5.234375l1.421875 0l0 8.734375l-1.359375 0l0 -2.125l0.1875 0q-0.40625 1.234375 -1.15625 1.734375q-0.75 0.5 -1.703125 0.5zm6.4921875 -0.109375l0 -8.734375l1.359375 0l0 1.34375l0.09375 0q0.25 -0.671875 0.859375 -1.0625q0.625 -0.40625 1.40625 -0.40625q0.15625 0 0.375 0.015625q0.21875 0 0.34375 0l0 1.421875q-0.0625 -0.015625 -0.3125 -0.046875q-0.25 -0.03125 -0.53125 -0.03125q-0.625 0 -1.125 0.265625q-0.5 0.25 -0.78125 0.71875q-0.28125 0.453125 -0.28125 1.046875l0 5.46875l-1.40625 0zm10.3359375 -8.734375l0 1.203125l-5.140625 0l0 -1.203125l5.140625 0zm-3.421875 8.734375l0 -9.90625q0 -0.75 0.359375 -1.25q0.359375 -0.515625 0.921875 -0.765625q0.578125 -0.265625 1.203125 -0.265625q0.5 0 0.828125 0.078125q0.328125 0.078125 0.484375 0.15625l-0.390625 1.203125q-0.109375 -0.046875 -0.28125 -0.09375q-0.171875 -0.046875 -0.46875 -0.046875q-0.65625 0 -0.953125 0.34375q-0.296875 0.328125 -0.296875 0.953125l0 9.59375l-1.40625 0zm7.484375 0.203125q-0.828125 0 -1.515625 -0.3125q-0.671875 -0.3125 -1.078125 -0.90625q-0.390625 -0.609375 -0.390625 -1.46875q0 -0.75 0.296875 -1.21875q0.296875 -0.46875 0.796875 -0.734375q0.5 -0.28125 1.09375 -0.40625q0.609375 -0.140625 1.21875 -0.21875q0.78125 -0.09375 1.265625 -0.140625q0.5 -0.0625 0.734375 -0.1875q0.234375 -0.140625 0.234375 -0.46875l0 -0.046875q0 -0.546875 -0.203125 -0.921875q-0.203125 -0.375 -0.609375 -0.578125q-0.40625 -0.203125 -1.015625 -0.203125q-0.625 0 -1.078125 0.203125q-0.4375 0.1875 -0.71875 0.484375q-0.265625 0.28125 -0.40625 0.59375l-1.359375 -0.453125q0.34375 -0.796875 0.90625 -1.234375q0.578125 -0.453125 1.265625 -0.640625q0.6875 -0.1875 1.359375 -0.1875q0.4375 0 0.984375 0.109375q0.5625 0.09375 1.078125 0.40625q0.53125 0.3125 0.859375 0.9375q0.34375 0.609375 0.34375 1.625l0 5.765625l-1.375 0l0 -1.1875l-0.09375 0q-0.15625 0.296875 -0.484375 0.625q-0.328125 0.328125 -0.859375 0.546875q-0.515625 0.21875 -1.25 0.21875zm0.234375 -1.25q0.78125 0 1.3125 -0.296875q0.546875 -0.3125 0.828125 -0.796875q0.28125 -0.484375 0.28125 -1.015625l0 -1.21875q-0.078125 0.109375 -0.375 0.1875q-0.28125 0.078125 -0.65625 0.140625q-0.375 0.0625 -0.71875 0.109375q-0.34375 0.046875 -0.546875 0.0625q-0.515625 0.0625 -0.953125 0.21875q-0.4375 0.15625 -0.703125 0.453125q-0.265625 0.28125 -0.265625 0.78125q0 0.453125 0.234375 0.765625q0.234375 0.296875 0.640625 0.453125q0.40625 0.15625 0.921875 0.15625zm9.859375 1.234375q-1.1875 0 -2.09375 -0.5625q-0.890625 -0.5625 -1.390625 -1.578125q-0.5 -1.015625 -0.5 -2.359375q0 -1.375 0.5 -2.390625q0.5 -1.015625 1.390625 -1.578125q0.90625 -0.5625 2.09375 -0.5625q0.625 0 1.1875 0.171875q0.5625 0.15625 1.03125 0.46875q0.46875 0.296875 0.796875 0.75q0.34375 0.453125 0.515625 1.015625l-1.34375 0.390625q-0.09375 -0.34375 -0.296875 -0.625q-0.1875 -0.28125 -0.46875 -0.484375q-0.28125 -0.203125 -0.640625 -0.3125q-0.359375 -0.125 -0.78125 -0.125q-0.875 0 -1.4375 0.46875q-0.5625 0.453125 -0.84375 1.203125q-0.265625 0.734375 -0.265625 1.609375q0 0.859375 0.265625 1.59375q0.28125 0.734375 0.84375 1.1875q0.5625 0.453125 1.4375 0.453125q0.4375 0 0.796875 -0.109375q0.375 -0.125 0.65625 -0.328125q0.28125 -0.21875 0.46875 -0.515625q0.203125 -0.296875 0.296875 -0.65625l1.34375 0.390625q-0.171875 0.578125 -0.515625 1.046875q-0.328125 0.453125 -0.796875 0.78125q-0.46875 0.3125 -1.046875 0.484375q-0.5625 0.171875 -1.203125 0.171875zm9.25 0q-1.265625 0 -2.1875 -0.5625q-0.90625 -0.5625 -1.40625 -1.5625q-0.5 -1.015625 -0.5 -2.359375q0 -1.34375 0.484375 -2.359375q0.484375 -1.03125 1.375 -1.609375q0.890625 -0.578125 2.078125 -0.578125q0.6875 0 1.359375 0.234375q0.6875 0.21875 1.234375 0.734375q0.546875 0.515625 0.875 1.359375q0.328125 0.828125 0.328125 2.03125l0 0.59375l-6.78125 0l0 -1.1875l6.03125 0l-0.65625 0.4375q0 -0.859375 -0.28125 -1.53125q-0.265625 -0.671875 -0.796875 -1.046875q-0.53125 -0.375 -1.3125 -0.375q-0.796875 0 -1.359375 0.390625q-0.5625 0.375 -0.859375 1.0q-0.296875 0.625 -0.296875 1.328125l0 0.796875q0 0.96875 0.328125 1.640625q0.34375 0.671875 0.953125 1.03125q0.609375 0.34375 1.40625 0.34375q0.515625 0 0.9375 -0.140625q0.421875 -0.15625 0.71875 -0.453125q0.3125 -0.3125 0.46875 -0.75l1.359375 0.375q-0.203125 0.65625 -0.6875 1.15625q-0.484375 0.5 -1.203125 0.78125q-0.703125 0.28125 -1.609375 0.28125z" fill-rule="nonzero"/></g><g filter="url(#shadowFilter-p.10)"><use xlink:href="#p.10" transform="matrix(1.0 0.0 0.0 1.0 1.3893167979002679 1.4386797900262531)"/></g><defs><filter id="shadowFilter-p.10" filterUnits="userSpaceOnUse"><feGaussianBlur in="SourceAlpha" stdDeviation="0.0" result="blur"/><feComponentTransfer in="blur" color-interpolation-filters="sRGB"><feFuncR type="linear" slope="0" intercept="0.0"/><feFuncG type="linear" slope="0" intercept="0.0"/><feFuncB type="linear" slope="0" intercept="0.0"/><feFuncA type="linear" slope="0.14" intercept="0"/></feComponentTransfer></filter></defs><g id="p.10"><path fill="#ffffff" d="m455.60303 145.74303c0 -2.15419 1.7463379 -3.9005127 3.9005127 -3.9005127l297.30115 0c1.0344238 0 2.0265503 0.4109497 2.7580566 1.1424408c0.7314453 0.73147583 1.142395 1.723587 1.142395 2.758072l0 33.742294c0 2.15419 -1.7462769 3.9005127 -3.9004517 3.9005127l-297.30115 0c-2.1541748 0 -3.9005127 -1.7463226 -3.9005127 -3.9005127z" fill-rule="evenodd"/><path stroke="#b7b7b7" stroke-width="1.0" stroke-linejoin="round" stroke-linecap="butt" d="m455.60303 145.74303c0 -2.15419 1.7463379 -3.9005127 3.9005127 -3.9005127l297.30115 0c1.0344238 0 2.0265503 0.4109497 2.7580566 1.1424408c0.7314453 0.73147583 1.142395 1.723587 1.142395 2.758072l0 33.742294c0 2.15419 -1.7462769 3.9005127 -3.9004517 3.9005127l-297.30115 0c-2.1541748 0 -3.9005127 -1.7463226 -3.9005127 -3.9005127z" fill-rule="evenodd"/><path fill="#000000" d="m579.85724 168.67729q-1.265625 0 -2.1875 -0.40625q-0.921875 -0.40625 -1.453125 -1.140625q-0.515625 -0.734375 -0.59375 -1.703125l1.53125 0q0.0625 0.65625 0.4375 1.078125q0.390625 0.421875 0.984375 0.640625q0.59375 0.203125 1.28125 0.203125q0.78125 0 1.40625 -0.25q0.640625 -0.265625 1.0 -0.734375q0.375 -0.46875 0.375 -1.09375q0 -0.5625 -0.328125 -0.90625q-0.3125 -0.359375 -0.84375 -0.578125q-0.515625 -0.234375 -1.140625 -0.40625l-1.40625 -0.390625q-1.40625 -0.40625 -2.1875 -1.140625q-0.78125 -0.75 -0.78125 -1.90625q0 -0.984375 0.53125 -1.71875q0.53125 -0.734375 1.4375 -1.140625q0.90625 -0.40625 2.03125 -0.40625q1.15625 0 2.03125 0.40625q0.890625 0.40625 1.390625 1.109375q0.515625 0.6875 0.546875 1.578125l-1.453125 0q-0.09375 -0.859375 -0.8125 -1.3125q-0.703125 -0.46875 -1.75 -0.46875q-0.75 0 -1.3125 0.25q-0.5625 0.234375 -0.875 0.671875q-0.3125 0.421875 -0.3125 0.96875q0 0.609375 0.375 0.984375q0.375 0.359375 0.890625 0.578125q0.53125 0.203125 0.953125 0.3125l1.15625 0.328125q0.46875 0.125 1.03125 0.34375q0.578125 0.21875 1.09375 0.578125q0.515625 0.359375 0.84375 0.921875q0.328125 0.5625 0.328125 1.375q0 0.953125 -0.5 1.71875q-0.484375 0.765625 -1.4375 1.21875q-0.9375 0.4375 -2.28125 0.4375zm6.359375 3.0625l0 -12.0l1.359375 0l0 1.390625l0.15625 0q0.15625 -0.234375 0.421875 -0.578125q0.265625 -0.359375 0.765625 -0.640625q0.5 -0.28125 1.34375 -0.28125q1.09375 0 1.921875 0.546875q0.84375 0.546875 1.3125 1.5625q0.46875 1.0 0.46875 2.390625q0 1.390625 -0.46875 2.40625q-0.46875 1.015625 -1.296875 1.578125q-0.828125 0.546875 -1.921875 0.546875q-0.828125 0 -1.34375 -0.28125q-0.5 -0.296875 -0.78125 -0.65625q-0.265625 -0.359375 -0.421875 -0.609375l-0.109375 0l0 4.625l-1.40625 0zm3.84375 -4.34375q0.828125 0 1.375 -0.4375q0.546875 -0.4375 0.828125 -1.1875q0.28125 -0.75 0.28125 -1.65625q0 -0.90625 -0.28125 -1.640625q-0.265625 -0.734375 -0.828125 -1.15625q-0.546875 -0.4375 -1.375 -0.4375q-0.796875 0 -1.34375 0.40625q-0.546875 0.40625 -0.828125 1.140625q-0.28125 0.71875 -0.28125 1.6875q0 0.96875 0.28125 1.71875q0.28125 0.734375 0.828125 1.15625q0.5625 0.40625 1.34375 0.40625zm9.625 1.265625q-1.265625 0 -2.1875 -0.5625q-0.90625 -0.5625 -1.40625 -1.5625q-0.5 -1.015625 -0.5 -2.359375q0 -1.34375 0.484375 -2.359375q0.484375 -1.03125 1.375 -1.609375q0.890625 -0.578125 2.078125 -0.578125q0.6875 0 1.359375 0.234375q0.6875 0.21875 1.234375 0.734375q0.546875 0.515625 0.875 1.359375q0.328125 0.828125 0.328125 2.03125l0 0.59375l-6.78125 0l0 -1.1875l6.03125 0l-0.65625 0.4375q0 -0.859375 -0.28125 -1.53125q-0.265625 -0.671875 -0.796875 -1.046875q-0.53125 -0.375 -1.3125 -0.375q-0.796875 0 -1.359375 0.390625q-0.5625 0.375 -0.859375 1.0q-0.296875 0.625 -0.296875 1.328125l0 0.796875q0 0.96875 0.328125 1.640625q0.34375 0.671875 0.953125 1.03125q0.609375 0.34375 1.40625 0.34375q0.515625 0 0.9375 -0.140625q0.421875 -0.15625 0.71875 -0.453125q0.3125 -0.3125 0.46875 -0.75l1.359375 0.375q-0.203125 0.65625 -0.6875 1.15625q-0.484375 0.5 -1.203125 0.78125q-0.703125 0.28125 -1.609375 0.28125zm9.21875 0q-1.1875 0 -2.09375 -0.5625q-0.890625 -0.5625 -1.390625 -1.578125q-0.5 -1.015625 -0.5 -2.359375q0 -1.375 0.5 -2.390625q0.5 -1.015625 1.390625 -1.578125q0.90625 -0.5625 2.09375 -0.5625q0.625 0 1.1875 0.171875q0.5625 0.15625 1.03125 0.46875q0.46875 0.296875 0.796875 0.75q0.34375 0.453125 0.515625 1.015625l-1.34375 0.390625q-0.09375 -0.34375 -0.296875 -0.625q-0.1875 -0.28125 -0.46875 -0.484375q-0.28125 -0.203125 -0.640625 -0.3125q-0.359375 -0.125 -0.78125 -0.125q-0.875 0 -1.4375 0.46875q-0.5625 0.453125 -0.84375 1.203125q-0.265625 0.734375 -0.265625 1.609375q0 0.859375 0.265625 1.59375q0.28125 0.734375 0.84375 1.1875q0.5625 0.453125 1.4375 0.453125q0.4375 0 0.796875 -0.109375q0.375 -0.125 0.65625 -0.328125q0.28125 -0.21875 0.46875 -0.515625q0.203125 -0.296875 0.296875 -0.65625l1.34375 0.390625q-0.171875 0.578125 -0.515625 1.046875q-0.328125 0.453125 -0.796875 0.78125q-0.46875 0.3125 -1.046875 0.484375q-0.5625 0.171875 -1.203125 0.171875zm8.546875 -0.078125q-0.890625 0 -1.5625 -0.359375q-0.65625 -0.375 -1.03125 -1.109375q-0.375 -0.734375 -0.375 -1.828125l0 -5.546875l1.40625 0l0 5.421875q0 1.015625 0.53125 1.59375q0.53125 0.5625 1.453125 0.5625q0.625 0 1.109375 -0.265625q0.5 -0.28125 0.78125 -0.8125q0.296875 -0.53125 0.296875 -1.265625l0 -5.234375l1.421875 0l0 8.734375l-1.359375 0l0 -2.125l0.1875 0q-0.40625 1.234375 -1.15625 1.734375q-0.75 0.5 -1.703125 0.5zm7.8984375 -11.75l0 11.640625l-1.40625 0l0 -11.640625l1.40625 0zm4.921875 11.84375q-0.828125 0 -1.515625 -0.3125q-0.671875 -0.3125 -1.078125 -0.90625q-0.390625 -0.609375 -0.390625 -1.46875q0 -0.75 0.296875 -1.21875q0.296875 -0.46875 0.796875 -0.734375q0.5 -0.28125 1.09375 -0.40625q0.609375 -0.140625 1.21875 -0.21875q0.78125 -0.09375 1.265625 -0.140625q0.5 -0.0625 0.734375 -0.1875q0.234375 -0.140625 0.234375 -0.46875l0 -0.046875q0 -0.546875 -0.203125 -0.921875q-0.203125 -0.375 -0.609375 -0.578125q-0.40625 -0.203125 -1.015625 -0.203125q-0.625 0 -1.078125 0.203125q-0.4375 0.1875 -0.71875 0.484375q-0.265625 0.28125 -0.40625 0.59375l-1.359375 -0.453125q0.34375 -0.796875 0.90625 -1.234375q0.578125 -0.453125 1.265625 -0.640625q0.6875 -0.1875 1.359375 -0.1875q0.4375 0 0.984375 0.109375q0.5625 0.09375 1.078125 0.40625q0.53125 0.3125 0.859375 0.9375q0.34375 0.609375 0.34375 1.625l0 5.765625l-1.375 0l0 -1.1875l-0.09375 0q-0.15625 0.296875 -0.484375 0.625q-0.328125 0.328125 -0.859375 0.546875q-0.515625 0.21875 -1.25 0.21875zm0.234375 -1.25q0.78125 0 1.3125 -0.296875q0.546875 -0.3125 0.828125 -0.796875q0.28125 -0.484375 0.28125 -1.015625l0 -1.21875q-0.078125 0.109375 -0.375 0.1875q-0.28125 0.078125 -0.65625 0.140625q-0.375 0.0625 -0.71875 0.109375q-0.34375 0.046875 -0.546875 0.0625q-0.515625 0.0625 -0.953125 0.21875q-0.4375 0.15625 -0.703125 0.453125q-0.265625 0.28125 -0.265625 0.78125q0 0.453125 0.234375 0.765625q0.234375 0.296875 0.640625 0.453125q0.40625 0.15625 0.921875 0.15625zm6.296875 1.046875l0 -8.734375l1.359375 0l0 1.34375l0.09375 0q0.25 -0.671875 0.859375 -1.0625q0.625 -0.40625 1.40625 -0.40625q0.15625 0 0.375 0.015625q0.21875 0 0.34375 0l0 1.421875q-0.0625 -0.015625 -0.3125 -0.046875q-0.25 -0.03125 -0.53125 -0.03125q-0.625 0 -1.125 0.265625q-0.5 0.25 -0.78125 0.71875q-0.28125 0.453125 -0.28125 1.046875l0 5.46875l-1.40625 0z" fill-rule="nonzero"/></g><g filter="url(#shadowFilter-p.11)"><use xlink:href="#p.11" transform="matrix(1.0 0.0 0.0 1.0 1.389316797900263 1.4386797900262531)"/></g><defs><filter id="shadowFilter-p.11" filterUnits="userSpaceOnUse"><feGaussianBlur in="SourceAlpha" stdDeviation="0.0" result="blur"/><feComponentTransfer in="blur" color-interpolation-filters="sRGB"><feFuncR type="linear" slope="0" intercept="0.0"/><feFuncG type="linear" slope="0" intercept="0.0"/><feFuncB type="linear" slope="0" intercept="0.0"/><feFuncA type="linear" slope="0.14" intercept="0"/></feComponentTransfer></filter></defs><g id="p.11"><path fill="#ffe599" d="m12.958246 147.02737c0 -2.8635101 2.3213406 -5.18486 5.18486 -5.18486l199.794 0c1.3751068 0 2.6938934 0.54626465 3.6662445 1.5186157c0.9723511 0.9723511 1.5186157 2.2911377 1.5186157 3.6662445l0 97.5358c0 2.8635254 -2.32135 5.18486 -5.18486 5.18486l-199.794 0c-2.8635197 0 -5.18486 -2.3213348 -5.18486 -5.18486z" fill-rule="evenodd"/><path stroke="#b7b7b7" stroke-width="1.0" stroke-linejoin="round" stroke-linecap="butt" d="m12.958246 147.02737c0 -2.8635101 2.3213406 -5.18486 5.18486 -5.18486l199.794 0c1.3751068 0 2.6938934 0.54626465 3.6662445 1.5186157c0.9723511 0.9723511 1.5186157 2.2911377 1.5186157 3.6662445l0 97.5358c0 2.8635254 -2.32135 5.18486 -5.18486 5.18486l-199.794 0c-2.8635197 0 -5.18486 -2.3213348 -5.18486 -5.18486z" fill-rule="evenodd"/><path fill="#000000" d="m98.469795 201.65527l0 -11.640625l2.109375 0l2.875 7.34375q0.09375 0.25 0.21875 0.640625q0.140625 0.390625 0.28125 0.84375q0.140625 0.453125 0.265625 0.90625q0.140625 0.4375 0.25 0.828125l-0.328125 0q0.109375 -0.359375 0.234375 -0.796875q0.140625 -0.453125 0.28125 -0.90625q0.140625 -0.453125 0.265625 -0.84375q0.140625 -0.40625 0.25 -0.671875l2.828125 -7.34375l2.109375 0l0 11.640625l-1.453125 0l0 -6.65625q0 -0.359375 0 -0.8125q0 -0.46875 0.015625 -0.96875q0.015625 -0.515625 0.015625 -1.03125q0.015625 -0.53125 0.03125 -1.015625l0.125 0q-0.171875 0.53125 -0.359375 1.09375q-0.171875 0.5625 -0.359375 1.078125q-0.171875 0.515625 -0.328125 0.953125q-0.15625 0.421875 -0.265625 0.703125l-2.59375 6.65625l-1.296875 0l-2.640625 -6.65625q-0.109375 -0.265625 -0.265625 -0.6875q-0.140625 -0.421875 -0.3125 -0.921875q-0.171875 -0.515625 -0.359375 -1.078125q-0.1875 -0.578125 -0.390625 -1.140625l0.140625 0q0.015625 0.4375 0.03125 0.953125q0.015625 0.5 0.015625 1.015625q0.015625 0.515625 0.015625 1.0q0.015625 0.484375 0.015625 0.859375l0 6.65625l-1.421875 0zm17.953125 0.1875q-1.265625 0 -2.1875 -0.5625q-0.90625 -0.5625 -1.40625 -1.5625q-0.5 -1.015625 -0.5 -2.359375q0 -1.34375 0.484375 -2.359375q0.484375 -1.03125 1.375 -1.609375q0.890625 -0.578125 2.078125 -0.578125q0.6875 0 1.359375 0.234375q0.6875 0.21875 1.234375 0.734375q0.546875 0.515625 0.875 1.359375q0.328125 0.828125 0.328125 2.03125l0 0.59375l-6.78125 0l0 -1.1875l6.03125 0l-0.65625 0.4375q0 -0.859375 -0.28125 -1.53125q-0.265625 -0.671875 -0.796875 -1.046875q-0.53125 -0.375 -1.3125 -0.375q-0.796875 0 -1.359375 0.390625q-0.5625 0.375 -0.859375 1.0q-0.296875 0.625 -0.296875 1.328125l0 0.796875q0 0.96875 0.328125 1.640625q0.34375 0.671875 0.953125 1.03125q0.609375 0.34375 1.40625 0.34375q0.515625 0 0.9375 -0.140625q0.421875 -0.15625 0.71875 -0.453125q0.3125 -0.3125 0.46875 -0.75l1.359375 0.375q-0.203125 0.65625 -0.6875 1.15625q-0.484375 0.5 -1.203125 0.78125q-0.703125 0.28125 -1.609375 0.28125zm9.09375 -8.921875l0 1.203125l-4.515625 0l0 -1.203125l4.515625 0zm-3.203125 -2.078125l1.40625 0l0 8.546875q0 0.578125 0.234375 0.859375q0.25 0.265625 0.796875 0.265625q0.140625 0 0.34375 -0.03125q0.203125 -0.03125 0.375 -0.0625l0.296875 1.1875q-0.21875 0.078125 -0.5 0.109375q-0.28125 0.046875 -0.546875 0.046875q-1.140625 0 -1.78125 -0.59375q-0.625 -0.609375 -0.625 -1.671875l0 -8.65625zm7.5312576 11.015625q-0.828125 0 -1.515625 -0.3125q-0.6718826 -0.3125 -1.0781326 -0.90625q-0.390625 -0.609375 -0.390625 -1.46875q0 -0.75 0.296875 -1.21875q0.296875 -0.46875 0.796875 -0.734375q0.5000076 -0.28125 1.0937576 -0.40625q0.609375 -0.140625 1.21875 -0.21875q0.78125 -0.09375 1.265625 -0.140625q0.5 -0.0625 0.734375 -0.1875q0.234375 -0.140625 0.234375 -0.46875l0 -0.046875q0 -0.546875 -0.203125 -0.921875q-0.203125 -0.375 -0.609375 -0.578125q-0.40625 -0.203125 -1.015625 -0.203125q-0.625 0 -1.078125 0.203125q-0.4375 0.1875 -0.71875 0.484375q-0.265625 0.28125 -0.40625 0.59375l-1.3593826 -0.453125q0.34375 -0.796875 0.9062576 -1.234375q0.578125 -0.453125 1.265625 -0.640625q0.6875 -0.1875 1.359375 -0.1875q0.4375 0 0.984375 0.109375q0.5625 0.09375 1.078125 0.40625q0.53125 0.3125 0.859375 0.9375q0.34375 0.609375 0.34375 1.625l0 5.765625l-1.375 0l0 -1.1875l-0.09375 0q-0.15625 0.296875 -0.484375 0.625q-0.328125 0.328125 -0.859375 0.546875q-0.515625 0.21875 -1.25 0.21875zm0.234375 -1.25q0.78125 0 1.3125 -0.296875q0.546875 -0.3125 0.828125 -0.796875q0.28125 -0.484375 0.28125 -1.015625l0 -1.21875q-0.078125 0.109375 -0.375 0.1875q-0.28125 0.078125 -0.65625 0.140625q-0.375 0.0625 -0.71875 0.109375q-0.34375 0.046875 -0.546875 0.0625q-0.515625 0.0625 -0.953125 0.21875q-0.4375 0.15625 -0.703125 0.453125q-0.265625 0.28125 -0.265625 0.78125q0 0.453125 0.234375 0.765625q0.234375 0.296875 0.640625 0.453125q0.40625 0.15625 0.921875 0.15625zm7.703125 -10.59375l0 11.640625l-1.40625 0l0 -11.640625l1.40625 0z" fill-rule="nonzero"/></g><g filter="url(#shadowFilter-p.12)"><use xlink:href="#p.12" transform="matrix(1.0 0.0 0.0 1.0 1.3893167979002679 1.4386797900262531)"/></g><defs><filter id="shadowFilter-p.12" filterUnits="userSpaceOnUse"><feGaussianBlur in="SourceAlpha" stdDeviation="0.0" result="blur"/><feComponentTransfer in="blur" color-interpolation-filters="sRGB"><feFuncR type="linear" slope="0" intercept="0.0"/><feFuncG type="linear" slope="0" intercept="0.0"/><feFuncB type="linear" slope="0" intercept="0.0"/><feFuncA type="linear" slope="0.14" intercept="0"/></feComponentTransfer></filter></defs><g id="p.12"><path fill="#f9cb9c" d="m774.68506 114.02201c0 -2.5952835 2.1038818 -4.699173 4.6991577 -4.699173l89.65674 0c1.2463379 0 2.4415894 0.49508667 3.322876 1.3763504c0.8812256 0.88127136 1.3763428 2.0765228 1.3763428 3.3228226l0 135.29456c0 2.5952759 -2.1038818 4.699173 -4.6992188 4.699173l-89.65674 0c-2.5952759 0 -4.6991577 -2.103897 -4.6991577 -4.699173z" fill-rule="evenodd"/><path stroke="#b7b7b7" stroke-width="1.0" stroke-linejoin="round" stroke-linecap="butt" d="m774.68506 114.02201c0 -2.5952835 2.1038818 -4.699173 4.6991577 -4.699173l89.65674 0c1.2463379 0 2.4415894 0.49508667 3.322876 1.3763504c0.8812256 0.88127136 1.3763428 2.0765228 1.3763428 3.3228226l0 135.29456c0 2.5952759 -2.1038818 4.699173 -4.6992188 4.699173l-89.65674 0c-2.5952759 0 -4.6991577 -2.103897 -4.6991577 -4.699173z" fill-rule="evenodd"/><path fill="#000000" d="m791.9587 187.5293l0 -11.640625l7.09375 0l0 1.3125l-5.609375 0l0 3.796875l5.234375 0l0 1.3125l-5.234375 0l0 3.90625l5.6875 0l0 1.3125l-7.171875 0zm9.4453125 0l0 -8.734375l1.375 0l0 1.953125l-0.109375 0q0.1875 -0.71875 0.5625 -1.171875q0.390625 -0.46875 0.90625 -0.703125q0.53125 -0.234375 1.09375 -0.234375q0.953125 0 1.53125 0.59375q0.59375 0.578125 0.765625 1.53125l-0.1875 0q0.15625 -0.65625 0.5625 -1.125q0.421875 -0.484375 1.015625 -0.734375q0.59375 -0.265625 1.28125 -0.265625q0.765625 0 1.390625 0.328125q0.625 0.328125 0.984375 1.0q0.375 0.65625 0.375 1.671875l0 5.890625l-1.40625 0l0 -5.859375q0 -0.9375 -0.53125 -1.34375q-0.53125 -0.40625 -1.234375 -0.40625q-0.578125 0 -1.015625 0.25q-0.421875 0.234375 -0.65625 0.671875q-0.21875 0.421875 -0.21875 0.984375l0 5.703125l-1.40625 0l0 -6.0q0 -0.71875 -0.484375 -1.15625q-0.484375 -0.453125 -1.234375 -0.453125q-0.5 0 -0.953125 0.234375q-0.453125 0.234375 -0.734375 0.703125q-0.265625 0.46875 -0.265625 1.171875l0 5.5l-1.40625 0zm14.015625 0l0 -8.734375l1.40625 0l0 8.734375l-1.40625 0zm0.71875 -10.171875q-0.40625 0 -0.703125 -0.265625q-0.28125 -0.28125 -0.28125 -0.65625q0 -0.390625 0.28125 -0.65625q0.296875 -0.28125 0.703125 -0.28125q0.40625 0 0.6875 0.28125q0.296875 0.265625 0.296875 0.65625q0 0.375 -0.296875 0.65625q-0.28125 0.265625 -0.6875 0.265625zm6.125 10.359375q-0.890625 0 -1.59375 -0.265625q-0.703125 -0.265625 -1.15625 -0.78125q-0.453125 -0.515625 -0.609375 -1.265625l1.34375 -0.3125q0.1875 0.71875 0.703125 1.0625q0.515625 0.328125 1.296875 0.328125q0.921875 0 1.453125 -0.390625q0.546875 -0.390625 0.546875 -0.9375q0 -0.453125 -0.3125 -0.75q-0.3125 -0.296875 -0.96875 -0.453125l-1.453125 -0.34375q-1.1875 -0.28125 -1.765625 -0.859375q-0.578125 -0.59375 -0.578125 -1.515625q0 -0.75 0.421875 -1.328125q0.421875 -0.578125 1.15625 -0.890625q0.734375 -0.328125 1.65625 -0.328125q0.90625 0 1.53125 0.265625q0.625 0.265625 1.015625 0.75q0.40625 0.46875 0.59375 1.078125l-1.265625 0.328125q-0.1875 -0.46875 -0.609375 -0.84375q-0.40625 -0.390625 -1.25 -0.390625q-0.78125 0 -1.3125 0.359375q-0.515625 0.359375 -0.515625 0.90625q0 0.484375 0.34375 0.78125q0.359375 0.296875 1.125 0.46875l1.328125 0.3125q1.1875 0.28125 1.75 0.875q0.578125 0.59375 0.578125 1.484375q0 0.765625 -0.4375 1.375q-0.4375 0.59375 -1.21875 0.9375q-0.765625 0.34375 -1.796875 0.34375zm8.4453125 0q-0.890625 0 -1.59375 -0.265625q-0.703125 -0.265625 -1.15625 -0.78125q-0.453125 -0.515625 -0.609375 -1.265625l1.34375 -0.3125q0.1875 0.71875 0.703125 1.0625q0.515625 0.328125 1.296875 0.328125q0.921875 0 1.453125 -0.390625q0.546875 -0.390625 0.546875 -0.9375q0 -0.453125 -0.3125 -0.75q-0.3125 -0.296875 -0.96875 -0.453125l-1.453125 -0.34375q-1.1875 -0.28125 -1.765625 -0.859375q-0.578125 -0.59375 -0.578125 -1.515625q0 -0.75 0.421875 -1.328125q0.421875 -0.578125 1.15625 -0.890625q0.734375 -0.328125 1.65625 -0.328125q0.90625 0 1.53125 0.265625q0.625 0.265625 1.015625 0.75q0.40625 0.46875 0.59375 1.078125l-1.265625 0.328125q-0.1875 -0.46875 -0.609375 -0.84375q-0.40625 -0.390625 -1.25 -0.390625q-0.78125 0 -1.3125 0.359375q-0.515625 0.359375 -0.515625 0.90625q0 0.484375 0.34375 0.78125q0.359375 0.296875 1.125 0.46875l1.328125 0.3125q1.1875 0.28125 1.75 0.875q0.578125 0.59375 0.578125 1.484375q0 0.765625 -0.4375 1.375q-0.4375 0.59375 -1.21875 0.9375q-0.765625 0.34375 -1.796875 0.34375zm5.4765625 -0.1875l0 -8.734375l1.40625 0l0 8.734375l-1.40625 0zm0.71875 -10.171875q-0.40625 0 -0.703125 -0.265625q-0.28125 -0.28125 -0.28125 -0.65625q0 -0.390625 0.28125 -0.65625q0.296875 -0.28125 0.703125 -0.28125q0.40625 0 0.6875 0.28125q0.296875 0.265625 0.296875 0.65625q0 0.375 -0.296875 0.65625q-0.28125 0.265625 -0.6875 0.265625zm6.71875 10.359375q-1.1875 0 -2.09375 -0.5625q-0.890625 -0.5625 -1.390625 -1.578125q-0.5 -1.015625 -0.5 -2.359375q0 -1.375 0.5 -2.390625q0.5 -1.015625 1.390625 -1.578125q0.90625 -0.5625 2.09375 -0.5625q1.1875 0 2.078125 0.5625q0.90625 0.5625 1.40625 1.578125q0.5 1.015625 0.5 2.390625q0 1.34375 -0.5 2.359375q-0.5 1.015625 -1.40625 1.578125q-0.890625 0.5625 -2.078125 0.5625zm0 -1.265625q0.875 0 1.4375 -0.453125q0.578125 -0.453125 0.84375 -1.1875q0.28125 -0.734375 0.28125 -1.59375q0 -0.875 -0.28125 -1.609375q-0.265625 -0.75 -0.84375 -1.203125q-0.5625 -0.46875 -1.4375 -0.46875q-0.875 0 -1.4375 0.46875q-0.5625 0.453125 -0.84375 1.203125q-0.265625 0.734375 -0.265625 1.609375q0 0.859375 0.265625 1.59375q0.28125 0.734375 0.84375 1.1875q0.5625 0.453125 1.4375 0.453125zm7.4375 -4.15625l0 5.234375l-1.40625 0l0 -8.734375l1.359375 0l0 2.109375l-0.1875 0q0.390625 -1.203125 1.125 -1.703125q0.75 -0.515625 1.734375 -0.515625q0.890625 0 1.546875 0.359375q0.671875 0.359375 1.03125 1.09375q0.375 0.734375 0.375 1.84375l0 5.546875l-1.40625 0l0 -5.4375q0 -1.0 -0.53125 -1.5625q-0.515625 -0.578125 -1.4375 -0.578125q-0.625 0 -1.125 0.28125q-0.5 0.265625 -0.796875 0.796875q-0.28125 0.515625 -0.28125 1.265625z" fill-rule="nonzero"/></g></g></svg>