<svg version="1.1" viewBox="0.0 0.0 918.5196850393701 311.1102362204724" fill="none" stroke="none" stroke-linecap="square" stroke-miterlimit="10" xmlns:xlink="http://www.w3.org/1999/xlink" xmlns="http://www.w3.org/2000/svg"><clipPath id="p.0"><path d="m0 0l918.5197 0l0 311.11023l-918.5197 0l0 -311.11023z" clip-rule="nonzero"/></clipPath><g clip-path="url(#p.0)"><path fill="#000000" fill-opacity="0.0" d="m0 0l918.5197 0l0 311.11023l-918.5197 0z" fill-rule="evenodd"/><g filter="url(#shadowFilter-p.1)"><use xlink:href="#p.1" transform="matrix(1.0 0.0 0.0 1.0 1.3893167979002625 1.4386797900262482)"/></g><defs><filter id="shadowFilter-p.1" filterUnits="userSpaceOnUse"><feGaussianBlur in="SourceAlpha" stdDeviation="0.0" result="blur"/><feComponentTransfer in="blur" color-interpolation-filters="sRGB"><feFuncR type="linear" slope="0" intercept="0.0"/><feFuncG type="linear" slope="0" intercept="0.0"/><feFuncB type="linear" slope="0" intercept="0.0"/><feFuncA type="linear" slope="0.14" intercept="0"/></feComponentTransfer></filter></defs><g id="p.1"><path fill="#cccccc" d="m4.931761 7.178135c0 -1.101481 0.8929267 -1.9944077 1.9944077 -1.9944077l904.42065 0c0.52893066 0 1.0362549 0.2101245 1.4102783 0.5841484c0.37402344 0.3740239 0.58410645 0.8813095 0.58410645 1.4102592l0 25.711971c0 1.1014824 -0.8928833 1.9944077 -1.9943848 1.9944077l-904.42065 0c-1.101481 0 -1.9944077 -0.89292526 -1.9944077 -1.9944077z" fill-rule="evenodd"/><path stroke="#b7b7b7" stroke-width="1.0" stroke-linejoin="round" stroke-linecap="butt" d="m4.931761 7.178135c0 -1.101481 0.8929267 -1.9944077 1.9944077 -1.9944077l904.42065 0c0.52893066 0 1.0362549 0.2101245 1.4102783 0.5841484c0.37402344 0.3740239 0.58410645 0.8813095 0.58410645 1.4102592l0 25.711971c0 1.1014824 -0.8928833 1.9944077 -1.9943848 1.9944077l-904.42065 0c-1.101481 0 -1.9944077 -0.89292526 -1.9944077 -1.9944077z" fill-rule="evenodd"/><path fill="#000000" d="m440.35913 26.097246q-1.265625 0 -2.1875 -0.40625q-0.921875 -0.40625 -1.453125 -1.140625q-0.515625 -0.734375 -0.59375 -1.703125l1.53125 0q0.0625 0.65625 0.4375 1.078125q0.390625 0.421875 0.984375 0.640625q0.59375 0.203125 1.28125 0.203125q0.78125 0 1.40625 -0.25q0.640625 -0.265625 1.0 -0.734375q0.375 -0.46875 0.375 -1.09375q0 -0.5625 -0.328125 -0.90625q-0.3125 -0.359375 -0.84375 -0.578125q-0.515625 -0.234375 -1.140625 -0.40625l-1.40625 -0.390625q-1.40625 -0.40625 -2.1875 -1.140625q-0.78125 -0.75 -0.78125 -1.90625q0 -0.984375 0.53125 -1.718751q0.53125 -0.734375 1.4375 -1.140625q0.90625 -0.40625 2.03125 -0.40625q1.15625 0 2.03125 0.40625q0.890625 0.40625 1.390625 1.109375q0.515625 0.68750095 0.546875 1.578126l-1.453125 0q-0.09375 -0.859375 -0.8125 -1.312501q-0.703125 -0.46875 -1.75 -0.46875q-0.75 0 -1.3125 0.25q-0.5625 0.234375 -0.875 0.67187595q-0.3125 0.421875 -0.3125 0.96875q0 0.609375 0.375 0.984375q0.375 0.359375 0.890625 0.578125q0.53125 0.203125 0.953125 0.3125l1.15625 0.328125q0.46875 0.125 1.03125 0.34375q0.578125 0.21875 1.09375 0.578125q0.515625 0.359375 0.84375 0.921875q0.328125 0.5625 0.328125 1.375q0 0.953125 -0.5 1.71875q-0.484375 0.765625 -1.4375 1.21875q-0.9375 0.4375 -2.28125 0.4375zm7.765625 -5.4375l0 5.234375l-1.40625 0l0 -11.640626l1.40625 0l0 5.015626l-0.234375 0q0.390625 -1.203125 1.125 -1.703125q0.75 -0.515625 1.734375 -0.515625q0.890625 0 1.546875 0.359375q0.671875 0.359375 1.046875 1.09375q0.375 0.734375 0.375 1.84375l0 5.546875l-1.421875 0l0 -5.4375q0 -1.0 -0.53125 -1.5625q-0.515625 -0.578125 -1.4375 -0.578125q-0.625 0 -1.125 0.28125q-0.5 0.265625 -0.796875 0.796875q-0.28125 0.515625 -0.28125 1.265625zm11.7265625 5.421875q-1.265625 0 -2.1875 -0.5625q-0.90625 -0.5625 -1.40625 -1.5625q-0.5 -1.015625 -0.5 -2.359375q0 -1.34375 0.484375 -2.359375q0.484375 -1.03125 1.375 -1.609375q0.890625 -0.578125 2.078125 -0.578125q0.6875 0 1.359375 0.234375q0.6875 0.21875 1.234375 0.734375q0.546875 0.515625 0.875 1.359375q0.328125 0.828125 0.328125 2.03125l0 0.59375l-6.78125 0l0 -1.1875l6.03125 0l-0.65625 0.4375q0 -0.859375 -0.28125 -1.53125q-0.265625 -0.671875 -0.796875 -1.046875q-0.53125 -0.375 -1.3125 -0.375q-0.796875 0 -1.359375 0.390625q-0.5625 0.375 -0.859375 1.0q-0.296875 0.625 -0.296875 1.328125l0 0.796875q0 0.96875 0.328125 1.640625q0.34375 0.671875 0.953125 1.03125q0.609375 0.34375 1.40625 0.34375q0.515625 0 0.9375 -0.140625q0.421875 -0.15625 0.71875 -0.453125q0.3125 -0.3125 0.46875 -0.75l1.359375 0.375q-0.203125 0.65625 -0.6875 1.15625q-0.484375 0.5 -1.203125 0.78125q-0.703125 0.28125 -1.609375 0.28125zm9.328125 0q-1.265625 0 -2.1875 -0.5625q-0.90625 -0.5625 -1.40625 -1.5625q-0.5 -1.015625 -0.5 -2.359375q0 -1.34375 0.484375 -2.359375q0.484375 -1.03125 1.375 -1.609375q0.890625 -0.578125 2.078125 -0.578125q0.6875 0 1.359375 0.234375q0.6875 0.21875 1.234375 0.734375q0.546875 0.515625 0.875 1.359375q0.328125 0.828125 0.328125 2.03125l0 0.59375l-6.78125 0l0 -1.1875l6.03125 0l-0.65625 0.4375q0 -0.859375 -0.28125 -1.53125q-0.265625 -0.671875 -0.796875 -1.046875q-0.53125 -0.375 -1.3125 -0.375q-0.796875 0 -1.359375 0.390625q-0.5625 0.375 -0.859375 1.0q-0.296875 0.625 -0.296875 1.328125l0 0.796875q0 0.96875 0.328125 1.640625q0.34375 0.671875 0.953125 1.03125q0.609375 0.34375 1.40625 0.34375q0.515625 0 0.9375 -0.140625q0.421875 -0.15625 0.71875 -0.453125q0.3125 -0.3125 0.46875 -0.75l1.359375 0.375q-0.203125 0.65625 -0.6875 1.15625q-0.484375 0.5 -1.203125 0.78125q-0.703125 0.28125 -1.609375 0.28125zm7.0625 -5.421875l0 5.234375l-1.40625 0l0 -8.734375l1.359375 0l0 2.109375l-0.1875 0q0.390625 -1.203125 1.125 -1.703125q0.75 -0.515625 1.734375 -0.515625q0.890625 0 1.546875 0.359375q0.671875 0.359375 1.03125 1.09375q0.375 0.734375 0.375 1.84375l0 5.546875l-1.40625 0l0 -5.4375q0 -1.0 -0.53125 -1.5625q-0.515625 -0.578125 -1.4375 -0.578125q-0.625 0 -1.125 0.28125q-0.5 0.265625 -0.796875 0.796875q-0.28125 0.515625 -0.28125 1.265625z" fill-rule="nonzero"/></g><g filter="url(#shadowFilter-p.2)"><use xlink:href="#p.2" transform="matrix(1.0 0.0 0.0 1.0 1.389316797900263 1.4386797900262436)"/></g><defs><filter id="shadowFilter-p.2" filterUnits="userSpaceOnUse"><feGaussianBlur in="SourceAlpha" stdDeviation="0.0" result="blur"/><feComponentTransfer in="blur" color-interpolation-filters="sRGB"><feFuncR type="linear" slope="0" intercept="0.0"/><feFuncG type="linear" slope="0" intercept="0.0"/><feFuncB type="linear" slope="0" intercept="0.0"/><feFuncA type="linear" slope="0.14" intercept="0"/></feComponentTransfer></filter></defs><g id="p.2"><path fill="#efefef" d="m4.9317584 40.870644c0 -1.4508705 1.1761637 -2.6270332 2.6270347 -2.6270332l903.1554 0c0.6967163 0 1.3649292 0.27677536 1.857605 0.7694397c0.49267578 0.49266434 0.7694092 1.160862 0.7694092 1.8575935l0 24.446716c0 1.4508743 -1.1761475 2.627037 -2.6270142 2.627037l-903.1554 0c-1.450871 0 -2.6270347 -1.1761627 -2.6270347 -2.627037z" fill-rule="evenodd"/><path stroke="#b7b7b7" stroke-width="1.0" stroke-linejoin="round" stroke-linecap="butt" d="m4.9317584 40.870644c0 -1.4508705 1.1761637 -2.6270332 2.6270347 -2.6270332l903.1554 0c0.6967163 0 1.3649292 0.27677536 1.857605 0.7694397c0.49267578 0.49266434 0.7694092 1.160862 0.7694092 1.8575935l0 24.446716c0 1.4508743 -1.1761475 2.627037 -2.6270142 2.627037l-903.1554 0c-1.450871 0 -2.6270347 -1.1761627 -2.6270347 -2.627037z" fill-rule="evenodd"/><path fill="#000000" d="m447.43338 59.110252q-1.5 0 -2.671875 -0.71875q-1.15625 -0.734375 -1.828125 -2.0625q-0.671875 -1.34375 -0.671875 -3.1875q0 -1.859375 0.671875 -3.1875q0.671875 -1.34375 1.828125 -2.0625q1.171875 -0.734375 2.671875 -0.734375q0.875 0 1.65625 0.265625q0.796875 0.25 1.421875 0.75q0.625 0.484375 1.03125 1.203125q0.421875 0.703125 0.578125 1.59375l-1.484375 0q-0.125 -0.59375 -0.421875 -1.046875q-0.296875 -0.453125 -0.734375 -0.765625q-0.4375 -0.3125 -0.96875 -0.46875q-0.515625 -0.15625 -1.078125 -0.15625q-1.046875 0 -1.890625 0.53125q-0.84375 0.53125 -1.34375 1.5625q-0.484375 1.015625 -0.484375 2.515625q0 1.484375 0.484375 2.515625q0.5 1.015625 1.34375 1.546875q0.84375 0.53125 1.890625 0.53125q0.5625 0 1.078125 -0.15625q0.53125 -0.171875 0.96875 -0.46875q0.4375 -0.3125 0.734375 -0.765625q0.296875 -0.46875 0.421875 -1.0625l1.484375 0q-0.140625 0.890625 -0.5625 1.59375q-0.421875 0.703125 -1.046875 1.203125q-0.625 0.5 -1.40625 0.765625q-0.78125 0.265625 -1.671875 0.265625zm10.359375 0.03125q-1.1875 0 -2.09375 -0.5625q-0.890625 -0.5625 -1.390625 -1.578125q-0.5 -1.015625 -0.5 -2.359375q0 -1.375 0.5 -2.390625q0.5 -1.015625 1.390625 -1.578125q0.90625 -0.5625 2.09375 -0.5625q1.1875 0 2.078125 0.5625q0.90625 0.5625 1.40625 1.578125q0.5 1.015625 0.5 2.390625q0 1.34375 -0.5 2.359375q-0.5 1.015625 -1.40625 1.578125q-0.890625 0.5625 -2.078125 0.5625zm0 -1.265625q0.875 0 1.4375 -0.453125q0.578125 -0.453125 0.84375 -1.1875q0.28125 -0.734375 0.28125 -1.59375q0 -0.875 -0.28125 -1.609375q-0.265625 -0.75 -0.84375 -1.203125q-0.5625 -0.46875 -1.4375 -0.46875q-0.875 0 -1.4375 0.46875q-0.5625 0.453125 -0.84375 1.203125q-0.265625 0.734375 -0.265625 1.609375q0 0.859375 0.265625 1.59375q0.28125 0.734375 0.84375 1.1875q0.5625 0.453125 1.4375 0.453125zm8.640625 1.28125q-0.828125 0 -1.515625 -0.3125q-0.671875 -0.3125 -1.078125 -0.90625q-0.390625 -0.609375 -0.390625 -1.46875q0 -0.75 0.296875 -1.21875q0.296875 -0.46875 0.796875 -0.734375q0.5 -0.28125 1.09375 -0.40625q0.609375 -0.140625 1.21875 -0.21875q0.78125 -0.09375 1.265625 -0.140625q0.5 -0.0625 0.734375 -0.1875q0.234375 -0.140625 0.234375 -0.46875l0 -0.046875q0 -0.546875 -0.203125 -0.921875q-0.203125 -0.375 -0.609375 -0.578125q-0.40625 -0.203125 -1.015625 -0.203125q-0.625 0 -1.078125 0.203125q-0.4375 0.1875 -0.71875 0.484375q-0.265625 0.28125 -0.40625 0.59375l-1.359375 -0.453125q0.34375 -0.796875 0.90625 -1.234375q0.578125 -0.453125 1.265625 -0.640625q0.6875 -0.1875 1.359375 -0.1875q0.4375 0 0.984375 0.109375q0.5625 0.09375 1.078125 0.40625q0.53125 0.3125 0.859375 0.9375q0.34375 0.609375 0.34375 1.625l0 5.765625l-1.375 0l0 -1.1875l-0.09375 0q-0.15625 0.296875 -0.484375 0.625q-0.328125 0.328125 -0.859375 0.546875q-0.515625 0.21875 -1.25 0.21875zm0.234375 -1.25q0.78125 0 1.3125 -0.296875q0.546875 -0.3125 0.828125 -0.796875q0.28125 -0.484375 0.28125 -1.015625l0 -1.21875q-0.078125 0.109375 -0.375 0.1875q-0.28125 0.078125 -0.65625 0.140625q-0.375 0.0625 -0.71875 0.109375q-0.34375 0.046875 -0.546875 0.0625q-0.515625 0.0625 -0.953125 0.21875q-0.4375 0.15625 -0.703125 0.453125q-0.265625 0.28125 -0.265625 0.78125q0 0.453125 0.234375 0.765625q0.234375 0.296875 0.640625 0.453125q0.40625 0.15625 0.921875 0.15625zm9.734375 -7.6875l0 1.203125l-4.515625 0l0 -1.203125l4.515625 0zm-3.203125 -2.078125l1.40625 0l0 8.546875q0 0.578125 0.234375 0.859375q0.25 0.265625 0.796875 0.265625q0.140625 0 0.34375 -0.03125q0.203125 -0.03125 0.375 -0.0625l0.296875 1.1875q-0.21875 0.078125 -0.5 0.109375q-0.28125 0.046875 -0.546875 0.046875q-1.140625 0 -1.78125 -0.59375q-0.625 -0.609375 -0.625 -1.671875l0 -8.65625z" fill-rule="nonzero"/></g><g filter="url(#shadowFilter-p.3)"><use xlink:href="#p.3" transform="matrix(1.0 0.0 0.0 1.0 1.389316797900263 1.4386797900262531)"/></g><defs><filter id="shadowFilter-p.3" filterUnits="userSpaceOnUse"><feGaussianBlur in="SourceAlpha" stdDeviation="0.0" result="blur"/><feComponentTransfer in="blur" color-interpolation-filters="sRGB"><feFuncR type="linear" slope="0" intercept="0.0"/><feFuncG type="linear" slope="0" intercept="0.0"/><feFuncB type="linear" slope="0" intercept="0.0"/><feFuncA type="linear" slope="0.14" intercept="0"/></feComponentTransfer></filter></defs><g id="p.3"><path fill="#d9d9d9" d="m7.1607327 79.78333c0 -4.263855 3.4565377 -7.7203903 7.7203927 -7.7203903l779.6459 0c2.0475464 0 4.0112915 0.81339264 5.4591064 2.2612534c1.447876 1.4478531 2.2612915 3.41156 2.2612915 5.459137l0 147.29938c0 4.263855 -3.456543 7.720398 -7.720398 7.720398l-779.6459 0c-4.263855 0 -7.7203927 -3.456543 -7.7203927 -7.720398z" fill-rule="evenodd"/><path stroke="#cccccc" stroke-width="3.0" stroke-linejoin="round" stroke-linecap="butt" d="m7.1607327 79.78333c0 -4.263855 3.4565377 -7.7203903 7.7203927 -7.7203903l779.6459 0c2.0475464 0 4.0112915 0.81339264 5.4591064 2.2612534c1.447876 1.4478531 2.2612915 3.41156 2.2612915 5.459137l0 147.29938c0 4.263855 -3.456543 7.720398 -7.720398 7.720398l-779.6459 0c-4.263855 0 -7.7203927 -3.456543 -7.7203927 -7.720398z" fill-rule="evenodd"/></g><g filter="url(#shadowFilter-p.4)"><use xlink:href="#p.4" transform="matrix(1.0 0.0 0.0 1.0 1.389316797900263 1.4386795275590492)"/></g><defs><filter id="shadowFilter-p.4" filterUnits="userSpaceOnUse"><feGaussianBlur in="SourceAlpha" stdDeviation="0.0" result="blur"/><feComponentTransfer in="blur" color-interpolation-filters="sRGB"><feFuncR type="linear" slope="0" intercept="0.0"/><feFuncG type="linear" slope="0" intercept="0.0"/><feFuncB type="linear" slope="0" intercept="0.0"/><feFuncA type="linear" slope="0.14" intercept="0"/></feComponentTransfer></filter></defs><g id="p.4"><path fill="#d9d2e9" d="m14.169802 78.33582c0 -1.6583405 1.344348 -3.0026855 3.0026855 -3.0026855l775.034 0c0.7963867 0 1.5601196 0.31635284 2.12323 0.8794632c0.56311035 0.56311035 0.87945557 1.3268585 0.87945557 2.1232224l0 12.010376c0 1.6583405 -1.3443604 3.0026855 -3.0026855 3.0026855l-775.034 0c-1.6583376 0 -3.0026855 -1.3443451 -3.0026855 -3.0026855z" fill-rule="evenodd"/><path stroke="#b7b7b7" stroke-width="1.0" stroke-linejoin="round" stroke-linecap="butt" d="m14.169802 78.33582c0 -1.6583405 1.344348 -3.0026855 3.0026855 -3.0026855l775.034 0c0.7963867 0 1.5601196 0.31635284 2.12323 0.8794632c0.56311035 0.56311035 0.87945557 1.3268585 0.87945557 2.1232224l0 12.010376c0 1.6583405 -1.3443604 3.0026855 -3.0026855 3.0026855l-775.034 0c-1.6583376 0 -3.0026855 -1.3443451 -3.0026855 -3.0026855z" fill-rule="evenodd"/><path fill="#000000" d="m371.04105 79.87289l0 -1.3125l8.796875 0l0 1.3125l-3.640625 0l0 10.328125l-1.484375 0l0 -10.328125l-3.671875 0zm12.203125 5.09375l0 5.234375l-1.40625 0l0 -11.640625l1.40625 0l0 5.015625l-0.234375 0q0.390625 -1.203125 1.125 -1.703125q0.75 -0.515625 1.734375 -0.515625q0.890625 0 1.546875 0.359375q0.671875 0.359375 1.046875 1.09375q0.375 0.734375 0.375 1.84375l0 5.546875l-1.421875 0l0 -5.4375q0 -1.0 -0.53125 -1.5625q-0.515625 -0.578125 -1.4375 -0.578125q-0.625 0 -1.125 0.28125q-0.5 0.265625 -0.796875 0.796875q-0.28125 0.515625 -0.28125 1.265625zm8.0546875 5.234375l0 -8.734375l1.40625 0l0 8.734375l-1.40625 0zm0.71875 -10.171875q-0.40625 0 -0.703125 -0.265625q-0.28125 -0.28125 -0.28125 -0.65625q0 -0.390625 0.28125 -0.65625q0.296875 -0.28125 0.703125 -0.28125q0.40625 0 0.6875 0.28125q0.296875 0.265625 0.296875 0.65625q0 0.375 -0.296875 0.65625q-0.28125 0.265625 -0.6875 0.265625zm4.5625 4.9375l0 5.234375l-1.40625 0l0 -8.734375l1.359375 0l0 2.109375l-0.1875 0q0.390625 -1.203125 1.125 -1.703125q0.75 -0.515625 1.734375 -0.515625q0.890625 0 1.546875 0.359375q0.671875 0.359375 1.03125 1.09375q0.375 0.734375 0.375 1.84375l0 5.546875l-1.40625 0l0 -5.4375q0 -1.0 -0.53125 -1.5625q-0.515625 -0.578125 -1.4375 -0.578125q-0.625 0 -1.125 0.28125q-0.5 0.265625 -0.796875 0.796875q-0.28125 0.515625 -0.28125 1.265625zm12.71875 5.234375l0 -11.640625l7.046875 0l0 1.3125l-5.5625 0l0 3.984375l5.03125 0l0 1.3125l-5.03125 0l0 5.03125l-1.484375 0zm9.2734375 0l0 -8.734375l1.40625 0l0 8.734375l-1.40625 0zm0.71875 -10.171875q-0.40625 0 -0.703125 -0.265625q-0.28125 -0.28125 -0.28125 -0.65625q0 -0.390625 0.28125 -0.65625q0.296875 -0.28125 0.703125 -0.28125q0.40625 0 0.6875 0.28125q0.296875 0.265625 0.296875 0.65625q0 0.375 -0.296875 0.65625q-0.28125 0.265625 -0.6875 0.265625zm4.5625 -1.46875l0 11.640625l-1.40625 0l0 -11.640625l1.40625 0zm2.46875 11.640625l0 -8.734375l1.375 0l0 1.953125l-0.109375 0q0.1875 -0.71875 0.5625 -1.171875q0.390625 -0.46875 0.90625 -0.703125q0.53125 -0.234375 1.09375 -0.234375q0.953125 0 1.53125 0.59375q0.59375 0.578125 0.765625 1.53125l-0.1875 0q0.15625 -0.65625 0.5625 -1.125q0.421875 -0.484375 1.015625 -0.734375q0.59375 -0.265625 1.28125 -0.265625q0.765625 0 1.390625 0.328125q0.625 0.328125 0.984375 1.0q0.375 0.65625 0.375 1.671875l0 5.890625l-1.40625 0l0 -5.859375q0 -0.9375 -0.53125 -1.34375q-0.53125 -0.40625 -1.234375 -0.40625q-0.578125 0 -1.015625 0.25q-0.421875 0.234375 -0.65625 0.671875q-0.21875 0.421875 -0.21875 0.984375l0 5.703125l-1.40625 0l0 -6.0q0 -0.71875 -0.484375 -1.15625q-0.484375 -0.453125 -1.234375 -0.453125q-0.5 0 -0.953125 0.234375q-0.453125 0.234375 -0.734375 0.703125q-0.265625 0.46875 -0.265625 1.171875l0 5.5l-1.40625 0z" fill-rule="nonzero"/></g><g filter="url(#shadowFilter-p.5)"><use xlink:href="#p.5" transform="matrix(1.0 0.0 0.0 1.0 1.3893167979002679 1.4386797900262531)"/></g><defs><filter id="shadowFilter-p.5" filterUnits="userSpaceOnUse"><feGaussianBlur in="SourceAlpha" stdDeviation="0.0" result="blur"/><feComponentTransfer in="blur" color-interpolation-filters="sRGB"><feFuncR type="linear" slope="0" intercept="0.0"/><feFuncG type="linear" slope="0" intercept="0.0"/><feFuncB type="linear" slope="0" intercept="0.0"/><feFuncA type="linear" slope="0.14" intercept="0"/></feComponentTransfer></filter></defs><g id="p.5"><defs><linearGradient id="p.6" gradientUnits="userSpaceOnUse" gradientTransform="matrix(10.530362456502875 0.0 0.0 10.530362456502875 0.0 0.0)" spreadMethod="pad" x1="23.273550717466463" y1="9.211591220875171" x2="23.273511772464467" y2="19.74195367730603"><stop offset="0.0" stop-color="#9fc5e8"/><stop offset="1.0" stop-color="#ffffff"/></linearGradient></defs><path fill="url(#p.6)" d="m245.07893 103.58559c0 -3.63591 2.9474945 -6.5834045 6.5834045 -6.5834045l206.37083 0c1.7460022 0 3.4205322 0.6936035 4.6551514 1.9282379c1.2346497 1.2346268 1.9282532 2.9091415 1.9282532 4.6551666l0 97.72095c0 3.63591 -2.9475098 6.5834045 -6.5834045 6.5834045l-206.37083 0c-3.63591 0 -6.5834045 -2.9474945 -6.5834045 -6.5834045z" fill-rule="evenodd"/><path stroke="#b7b7b7" stroke-width="1.0" stroke-linejoin="round" stroke-linecap="butt" d="m245.07893 103.58559c0 -3.63591 2.9474945 -6.5834045 6.5834045 -6.5834045l206.37083 0c1.7460022 0 3.4205322 0.6936035 4.6551514 1.9282379c1.2346497 1.2346268 1.9282532 2.9091415 1.9282532 4.6551666l0 97.72095c0 3.63591 -2.9475098 6.5834045 -6.5834045 6.5834045l-206.37083 0c-3.63591 0 -6.5834045 -2.9474945 -6.5834045 -6.5834045z" fill-rule="evenodd"/><path fill="#000000" d="m305.59775 147.97794l0 -1.3125l8.796875 0l0 1.3125l-3.640625 0l0 10.328125l-1.484375 0l0 -10.328125l-3.671875 0zm9.890625 10.328125l0 -8.734375l1.359375 0l0 1.34375l0.09375 0q0.25 -0.671875 0.859375 -1.0625q0.625 -0.40625 1.40625 -0.40625q0.15625 0 0.375 0.015625q0.21875 0 0.34375 0l0 1.421875q-0.0625 -0.015625 -0.3125 -0.046875q-0.25 -0.03125 -0.53125 -0.03125q-0.625 0 -1.125 0.265625q-0.5 0.25 -0.78125 0.71875q-0.28125 0.453125 -0.28125 1.046875l0 5.46875l-1.40625 0zm8.4765625 0.203125q-0.828125 0 -1.515625 -0.3125q-0.671875 -0.3125 -1.078125 -0.90625q-0.390625 -0.609375 -0.390625 -1.46875q0 -0.75 0.296875 -1.21875q0.296875 -0.46875 0.796875 -0.734375q0.5 -0.28125 1.09375 -0.40625q0.609375 -0.140625 1.21875 -0.21875q0.78125 -0.09375 1.265625 -0.140625q0.5 -0.0625 0.734375 -0.1875q0.234375 -0.140625 0.234375 -0.46875l0 -0.046875q0 -0.546875 -0.203125 -0.921875q-0.203125 -0.375 -0.609375 -0.578125q-0.40625 -0.203125 -1.015625 -0.203125q-0.625 0 -1.078125 0.203125q-0.4375 0.1875 -0.71875 0.484375q-0.265625 0.28125 -0.40625 0.59375l-1.359375 -0.453125q0.34375 -0.796875 0.90625 -1.234375q0.578125 -0.453125 1.265625 -0.640625q0.6875 -0.1875 1.359375 -0.1875q0.4375 0 0.984375 0.109375q0.5625 0.09375 1.078125 0.40625q0.53125 0.3125 0.859375 0.9375q0.34375 0.609375 0.34375 1.625l0 5.765625l-1.375 0l0 -1.1875l-0.09375 0q-0.15625 0.296875 -0.484375 0.625q-0.328125 0.328125 -0.859375 0.546875q-0.515625 0.21875 -1.25 0.21875zm0.234375 -1.25q0.78125 0 1.3125 -0.296875q0.546875 -0.3125 0.828125 -0.796875q0.28125 -0.484375 0.28125 -1.015625l0 -1.21875q-0.078125 0.109375 -0.375 0.1875q-0.28125 0.078125 -0.65625 0.140625q-0.375 0.0625 -0.71875 0.109375q-0.34375 0.046875 -0.546875 0.0625q-0.515625 0.0625 -0.953125 0.21875q-0.4375 0.15625 -0.703125 0.453125q-0.265625 0.28125 -0.265625 0.78125q0 0.453125 0.234375 0.765625q0.234375 0.296875 0.640625 0.453125q0.40625 0.15625 0.921875 0.15625zm7.703125 -4.1875l0 5.234375l-1.40625 0l0 -8.734375l1.359375 0l0 2.109375l-0.1875 0q0.390625 -1.203125 1.125 -1.703125q0.75 -0.515625 1.734375 -0.515625q0.890625 0 1.546875 0.359375q0.671875 0.359375 1.03125 1.09375q0.375 0.734375 0.375 1.84375l0 5.546875l-1.40625 0l0 -5.4375q0 -1.0 -0.53125 -1.5625q-0.515625 -0.578125 -1.4375 -0.578125q-0.625 0 -1.125 0.28125q-0.5 0.265625 -0.796875 0.796875q-0.28125 0.515625 -0.28125 1.265625zm11.015625 5.421875q-0.890625 0 -1.59375 -0.265625q-0.703125 -0.265625 -1.15625 -0.78125q-0.453125 -0.515625 -0.609375 -1.265625l1.34375 -0.3125q0.1875 0.71875 0.703125 1.0625q0.515625 0.328125 1.296875 0.328125q0.921875 0 1.453125 -0.390625q0.546875 -0.390625 0.546875 -0.9375q0 -0.453125 -0.3125 -0.75q-0.3125 -0.296875 -0.96875 -0.453125l-1.453125 -0.34375q-1.1875 -0.28125 -1.765625 -0.859375q-0.578125 -0.59375 -0.578125 -1.515625q0 -0.75 0.421875 -1.328125q0.421875 -0.578125 1.15625 -0.890625q0.734375 -0.328125 1.65625 -0.328125q0.90625 0 1.53125 0.265625q0.625 0.265625 1.015625 0.75q0.40625 0.46875 0.59375 1.078125l-1.265625 0.328125q-0.1875 -0.46875 -0.609375 -0.84375q-0.40625 -0.390625 -1.25 -0.390625q-0.78125 0 -1.3125 0.359375q-0.515625 0.359375 -0.515625 0.90625q0 0.484375 0.34375 0.78125q0.359375 0.296875 1.125 0.46875l1.328125 0.3125q1.1875 0.28125 1.75 0.875q0.578125 0.59375 0.578125 1.484375q0 0.765625 -0.4375 1.375q-0.4375 0.59375 -1.21875 0.9375q-0.765625 0.34375 -1.796875 0.34375zm5.4765625 -0.1875l0 -8.734375l1.375 0l0 1.953125l-0.109375 0q0.1875 -0.71875 0.5625 -1.171875q0.390625 -0.46875 0.90625 -0.703125q0.53125 -0.234375 1.09375 -0.234375q0.953125 0 1.53125 0.59375q0.59375 0.578125 0.765625 1.53125l-0.1875 0q0.15625 -0.65625 0.5625 -1.125q0.421875 -0.484375 1.015625 -0.734375q0.59375 -0.265625 1.28125 -0.265625q0.765625 0 1.390625 0.328125q0.625 0.328125 0.984375 1.0q0.375 0.65625 0.375 1.671875l0 5.890625l-1.40625 0l0 -5.859375q0 -0.9375 -0.53125 -1.34375q-0.53125 -0.40625 -1.234375 -0.40625q-0.578125 0 -1.015625 0.25q-0.421875 0.234375 -0.65625 0.671875q-0.21875 0.421875 -0.21875 0.984375l0 5.703125l-1.40625 0l0 -6.0q0 -0.71875 -0.484375 -1.15625q-0.484375 -0.453125 -1.234375 -0.453125q-0.5 0 -0.953125 0.234375q-0.453125 0.234375 -0.734375 0.703125q-0.265625 0.46875 -0.265625 1.171875l0 5.5l-1.40625 0zm14.015625 0l0 -8.734375l1.40625 0l0 8.734375l-1.40625 0zm0.71875 -10.171875q-0.40625 0 -0.703125 -0.265625q-0.28125 -0.28125 -0.28125 -0.65625q0 -0.390625 0.28125 -0.65625q0.296875 -0.28125 0.703125 -0.28125q0.40625 0 0.6875 0.28125q0.296875 0.265625 0.296875 0.65625q0 0.375 -0.296875 0.65625q-0.28125 0.265625 -0.6875 0.265625zm6.125 10.359375q-0.890625 0 -1.59375 -0.265625q-0.703125 -0.265625 -1.15625 -0.78125q-0.453125 -0.515625 -0.609375 -1.265625l1.34375 -0.3125q0.1875 0.71875 0.703125 1.0625q0.515625 0.328125 1.296875 0.328125q0.921875 0 1.453125 -0.390625q0.546875 -0.390625 0.546875 -0.9375q0 -0.453125 -0.3125 -0.75q-0.3125 -0.296875 -0.96875 -0.453125l-1.453125 -0.34375q-1.1875 -0.28125 -1.765625 -0.859375q-0.578125 -0.59375 -0.578125 -1.515625q0 -0.75 0.421875 -1.328125q0.421875 -0.578125 1.15625 -0.890625q0.734375 -0.328125 1.65625 -0.328125q0.90625 0 1.53125 0.265625q0.625 0.265625 1.015625 0.75q0.40625 0.46875 0.59375 1.078125l-1.265625 0.328125q-0.1875 -0.46875 -0.609375 -0.84375q-0.40625 -0.390625 -1.25 -0.390625q-0.78125 0 -1.3125 0.359375q-0.515625 0.359375 -0.515625 0.90625q0 0.484375 0.34375 0.78125q0.359375 0.296875 1.125 0.46875l1.328125 0.3125q1.1875 0.28125 1.75 0.875q0.578125 0.59375 0.578125 1.484375q0 0.765625 -0.4375 1.375q-0.4375 0.59375 -1.21875 0.9375q-0.765625 0.34375 -1.796875 0.34375zm8.4453125 0q-0.890625 0 -1.59375 -0.265625q-0.703125 -0.265625 -1.15625 -0.78125q-0.453125 -0.515625 -0.609375 -1.265625l1.34375 -0.3125q0.1875 0.71875 0.703125 1.0625q0.515625 0.328125 1.296875 0.328125q0.921875 0 1.453125 -0.390625q0.546875 -0.390625 0.546875 -0.9375q0 -0.453125 -0.3125 -0.75q-0.3125 -0.296875 -0.96875 -0.453125l-1.453125 -0.34375q-1.1875 -0.28125 -1.765625 -0.859375q-0.578125 -0.59375 -0.578125 -1.515625q0 -0.75 0.421875 -1.328125q0.421875 -0.578125 1.15625 -0.890625q0.734375 -0.328125 1.65625 -0.328125q0.90625 0 1.53125 0.265625q0.625 0.265625 1.015625 0.75q0.40625 0.46875 0.59375 1.078125l-1.265625 0.328125q-0.1875 -0.46875 -0.609375 -0.84375q-0.40625 -0.390625 -1.25 -0.390625q-0.78125 0 -1.3125 0.359375q-0.515625 0.359375 -0.515625 0.90625q0 0.484375 0.34375 0.78125q0.359375 0.296875 1.125 0.46875l1.328125 0.3125q1.1875 0.28125 1.75 0.875q0.578125 0.59375 0.578125 1.484375q0 0.765625 -0.4375 1.375q-0.4375 0.59375 -1.21875 0.9375q-0.765625 0.34375 -1.796875 0.34375zm5.4765625 -0.1875l0 -8.734375l1.40625 0l0 8.734375l-1.40625 0zm0.71875 -10.171875q-0.40625 0 -0.703125 -0.265625q-0.28125 -0.28125 -0.28125 -0.65625q0 -0.390625 0.28125 -0.65625q0.296875 -0.28125 0.703125 -0.28125q0.40625 0 0.6875 0.28125q0.296875 0.265625 0.296875 0.65625q0 0.375 -0.296875 0.65625q-0.28125 0.265625 -0.6875 0.265625zm6.71875 10.359375q-1.1875 0 -2.09375 -0.5625q-0.890625 -0.5625 -1.390625 -1.578125q-0.5 -1.015625 -0.5 -2.359375q0 -1.375 0.5 -2.390625q0.5 -1.015625 1.390625 -1.578125q0.90625 -0.5625 2.09375 -0.5625q1.1875 0 2.078125 0.5625q0.90625 0.5625 1.40625 1.578125q0.5 1.015625 0.5 2.390625q0 1.34375 -0.5 2.359375q-0.5 1.015625 -1.40625 1.578125q-0.890625 0.5625 -2.078125 0.5625zm0 -1.265625q0.875 0 1.4375 -0.453125q0.578125 -0.453125 0.84375 -1.1875q0.28125 -0.734375 0.28125 -1.59375q0 -0.875 -0.28125 -1.609375q-0.265625 -0.75 -0.84375 -1.203125q-0.5625 -0.46875 -1.4375 -0.46875q-0.875 0 -1.4375 0.46875q-0.5625 0.453125 -0.84375 1.203125q-0.265625 0.734375 -0.265625 1.609375q0 0.859375 0.265625 1.59375q0.28125 0.734375 0.84375 1.1875q0.5625 0.453125 1.4375 0.453125zm7.4375 -4.15625l0 5.234375l-1.40625 0l0 -8.734375l1.359375 0l0 2.109375l-0.1875 0q0.390625 -1.203125 1.125 -1.703125q0.75 -0.515625 1.734375 -0.515625q0.890625 0 1.546875 0.359375q0.671875 0.359375 1.03125 1.09375q0.375 0.734375 0.375 1.84375l0 5.546875l-1.40625 0l0 -5.4375q0 -1.0 -0.53125 -1.5625q-0.515625 -0.578125 -1.4375 -0.578125q-0.625 0 -1.125 0.28125q-0.5 0.265625 -0.796875 0.796875q-0.28125 0.515625 -0.28125 1.265625z" fill-rule="nonzero"/></g><g filter="url(#shadowFilter-p.7)"><use xlink:href="#p.7" transform="matrix(1.0 0.0 0.0 1.0 1.3893167979002679 1.4386797900262531)"/></g><defs><filter id="shadowFilter-p.7" filterUnits="userSpaceOnUse"><feGaussianBlur in="SourceAlpha" stdDeviation="0.0" result="blur"/><feComponentTransfer in="blur" color-interpolation-filters="sRGB"><feFuncR type="linear" slope="0" intercept="0.0"/><feFuncG type="linear" slope="0" intercept="0.0"/><feFuncB type="linear" slope="0" intercept="0.0"/><feFuncA type="linear" slope="0.14" intercept="0"/></feComponentTransfer></filter></defs><g id="p.7"><path fill="#b6d7a8" d="m478.17242 132.60635c0 -1.8439026 1.4947815 -3.338684 3.338684 -3.338684l143.37177 0c0.88549805 0 1.7346802 0.3517456 2.3608398 0.97787476c0.62609863 0.62612915 0.97784424 1.4753418 0.97784424 2.3608093l0 39.686844c0 1.8439026 -1.494751 3.338684 -3.338684 3.338684l-143.37177 0c-1.8439026 0 -3.338684 -1.4947815 -3.338684 -3.338684z" fill-rule="evenodd"/><path stroke="#b7b7b7" stroke-width="1.0" stroke-linejoin="round" stroke-linecap="butt" d="m478.17242 132.60635c0 -1.8439026 1.4947815 -3.338684 3.338684 -3.338684l143.37177 0c0.88549805 0 1.7346802 0.3517456 2.3608398 0.97787476c0.62609863 0.62612915 0.97784424 1.4753418 0.97784424 2.3608093l0 39.686844c0 1.8439026 -1.494751 3.338684 -3.338684 3.338684l-143.37177 0c-1.8439026 0 -3.338684 -1.4947815 -3.338684 -3.338684z" fill-rule="evenodd"/><path fill="#000000" d="m531.3064 158.30977l-2.8125 0l0 -1.3125l2.71875 0q1.421875 0 2.34375 -0.546875q0.9375 -0.546875 1.390625 -1.5625q0.46875 -1.015625 0.46875 -2.421875q0 -1.40625 -0.453125 -2.40625q-0.453125 -1.0 -1.359375 -1.53125q-0.90625 -0.546875 -2.25 -0.546875l-2.921875 0l0 -1.3125l3.015625 0q1.703125 0 2.90625 0.703125q1.21875 0.6875 1.859375 1.984375q0.640625 1.296875 0.640625 3.109375q0 1.8125 -0.65625 3.125q-0.640625 1.3125 -1.890625 2.015625q-1.234375 0.703125 -3.0 0.703125zm-2.15625 -11.640625l0 11.640625l-1.484375 0l0 -11.640625l1.484375 0zm9.890625 11.640625l0 -8.734375l1.40625 0l0 8.734375l-1.40625 0zm0.71875 -10.171875q-0.40625 0 -0.703125 -0.265625q-0.28125 -0.28125 -0.28125 -0.65625q0 -0.390625 0.28125 -0.65625q0.296875 -0.28125 0.703125 -0.28125q0.40625 0 0.6875 0.28125q0.296875 0.265625 0.296875 0.65625q0 0.375 -0.296875 0.65625q-0.28125 0.265625 -0.6875 0.265625zm7.21875 1.4375l0 1.203125l-5.140625 0l0 -1.203125l5.140625 0zm-3.421875 8.734375l0 -9.90625q0 -0.75 0.359375 -1.25q0.359375 -0.515625 0.921875 -0.765625q0.578125 -0.265625 1.203125 -0.265625q0.5 0 0.828125 0.078125q0.328125 0.078125 0.484375 0.15625l-0.390625 1.203125q-0.109375 -0.046875 -0.28125 -0.09375q-0.171875 -0.046875 -0.46875 -0.046875q-0.65625 0 -0.953125 0.34375q-0.296875 0.328125 -0.296875 0.953125l0 9.59375l-1.40625 0zm8.71875 -8.734375l0 1.203125l-5.140625 0l0 -1.203125l5.140625 0zm-3.421875 8.734375l0 -9.90625q0 -0.75 0.359375 -1.25q0.359375 -0.515625 0.921875 -0.765625q0.578125 -0.265625 1.203125 -0.265625q0.5 0 0.828125 0.078125q0.328125 0.078125 0.484375 0.15625l-0.390625 1.203125q-0.109375 -0.046875 -0.28125 -0.09375q-0.171875 -0.046875 -0.46875 -0.046875q-0.65625 0 -0.953125 0.34375q-0.296875 0.328125 -0.296875 0.953125l0 9.59375l-1.40625 0zm8.25 0.109375q-0.890625 0 -1.5625 -0.359375q-0.65625 -0.375 -1.03125 -1.109375q-0.375 -0.734375 -0.375 -1.828125l0 -5.546875l1.40625 0l0 5.421875q0 1.015625 0.53125 1.59375q0.53125 0.5625 1.453125 0.5625q0.625 0 1.109375 -0.265625q0.5 -0.28125 0.78125 -0.8125q0.296875 -0.53125 0.296875 -1.265625l0 -5.234375l1.421875 0l0 8.734375l-1.359375 0l0 -2.125l0.1875 0q-0.40625 1.234375 -1.15625 1.734375q-0.75 0.5 -1.703125 0.5zm9.4609375 0.078125q-0.890625 0 -1.59375 -0.265625q-0.703125 -0.265625 -1.15625 -0.78125q-0.453125 -0.515625 -0.609375 -1.265625l1.34375 -0.3125q0.1875 0.71875 0.703125 1.0625q0.515625 0.328125 1.296875 0.328125q0.921875 0 1.453125 -0.390625q0.546875 -0.390625 0.546875 -0.9375q0 -0.453125 -0.3125 -0.75q-0.3125 -0.296875 -0.96875 -0.453125l-1.453125 -0.34375q-1.1875 -0.28125 -1.765625 -0.859375q-0.578125 -0.59375 -0.578125 -1.515625q0 -0.75 0.421875 -1.328125q0.421875 -0.578125 1.15625 -0.890625q0.734375 -0.328125 1.65625 -0.328125q0.90625 0 1.53125 0.265625q0.625 0.265625 1.015625 0.75q0.40625 0.46875 0.59375 1.078125l-1.265625 0.328125q-0.1875 -0.46875 -0.609375 -0.84375q-0.40625 -0.390625 -1.25 -0.390625q-0.78125 0 -1.3125 0.359375q-0.515625 0.359375 -0.515625 0.90625q0 0.484375 0.34375 0.78125q0.359375 0.296875 1.125 0.46875l1.328125 0.3125q1.1875 0.28125 1.75 0.875q0.578125 0.59375 0.578125 1.484375q0 0.765625 -0.4375 1.375q-0.4375 0.59375 -1.21875 0.9375q-0.765625 0.34375 -1.796875 0.34375zm9.1484375 0q-1.265625 0 -2.1875 -0.5625q-0.90625 -0.5625 -1.40625 -1.5625q-0.5 -1.015625 -0.5 -2.359375q0 -1.34375 0.484375 -2.359375q0.484375 -1.03125 1.375 -1.609375q0.890625 -0.578125 2.078125 -0.578125q0.6875 0 1.359375 0.234375q0.6875 0.21875 1.234375 0.734375q0.546875 0.515625 0.875 1.359375q0.328125 0.828125 0.328125 2.03125l0 0.59375l-6.78125 0l0 -1.1875l6.03125 0l-0.65625 0.4375q0 -0.859375 -0.28125 -1.53125q-0.265625 -0.671875 -0.796875 -1.046875q-0.53125 -0.375 -1.3125 -0.375q-0.796875 0 -1.359375 0.390625q-0.5625 0.375 -0.859375 1.0q-0.296875 0.625 -0.296875 1.328125l0 0.796875q0 0.96875 0.328125 1.640625q0.34375 0.671875 0.953125 1.03125q0.609375 0.34375 1.40625 0.34375q0.515625 0 0.9375 -0.140625q0.421875 -0.15625 0.71875 -0.453125q0.3125 -0.3125 0.46875 -0.75l1.359375 0.375q-0.203125 0.65625 -0.6875 1.15625q-0.484375 0.5 -1.203125 0.78125q-0.703125 0.28125 -1.609375 0.28125z" fill-rule="nonzero"/></g><g filter="url(#shadowFilter-p.8)"><use xlink:href="#p.8" transform="matrix(1.0 0.0 0.0 1.0 1.3893167979002679 1.4386797900262531)"/></g><defs><filter id="shadowFilter-p.8" filterUnits="userSpaceOnUse"><feGaussianBlur in="SourceAlpha" stdDeviation="0.0" result="blur"/><feComponentTransfer in="blur" color-interpolation-filters="sRGB"><feFuncR type="linear" slope="0" intercept="0.0"/><feFuncG type="linear" slope="0" intercept="0.0"/><feFuncB type="linear" slope="0" intercept="0.0"/><feFuncA type="linear" slope="0.14" intercept="0"/></feComponentTransfer></filter></defs><g id="p.8"><defs><linearGradient id="p.9" gradientUnits="userSpaceOnUse" gradientTransform="matrix(6.80916943439361 0.0 0.0 6.80916943439361 0.0 0.0)" spreadMethod="pad" x1="93.86761193706221" y1="18.983482604348705" x2="93.86758182289111" y2="25.792652038675723"><stop offset="0.0" stop-color="#ea9999"/><stop offset="1.0" stop-color="#fce5cd"/></linearGradient></defs><path fill="url(#p.9)" d="m639.16046 132.43271c0 -1.7509613 1.4194336 -3.170395 3.1703491 -3.170395l150.81201 0c0.8408203 0 1.6472168 0.33403015 2.2418213 0.92858887c0.59454346 0.5945587 0.92852783 1.4009552 0.92852783 2.241806l0 40.023438c0 1.7509613 -1.4193726 3.170395 -3.1703491 3.170395l-150.81201 0c-1.7509155 0 -3.1703491 -1.4194336 -3.1703491 -3.170395z" fill-rule="evenodd"/><path stroke="#b7b7b7" stroke-width="1.0" stroke-linejoin="round" stroke-linecap="butt" d="m639.16046 132.43271c0 -1.7509613 1.4194336 -3.170395 3.1703491 -3.170395l150.81201 0c0.8408203 0 1.6472168 0.33403015 2.2418213 0.92858887c0.59454346 0.5945587 0.92852783 1.4009552 0.92852783 2.241806l0 40.023438c0 1.7509613 -1.4193726 3.170395 -3.1703491 3.170395l-150.81201 0c-1.7509155 0 -3.1703491 -1.4194336 -3.1703491 -3.170395z" fill-rule="evenodd"/><path fill="#000000" d="m679.4634 158.50755q-1.265625 0 -2.1875 -0.40625q-0.921875 -0.40625 -1.453125 -1.140625q-0.515625 -0.734375 -0.59375 -1.703125l1.53125 0q0.0625 0.65625 0.4375 1.078125q0.390625 0.421875 0.984375 0.640625q0.59375 0.203125 1.28125 0.203125q0.78125 0 1.40625 -0.25q0.640625 -0.265625 1.0 -0.734375q0.375 -0.46875 0.375 -1.09375q0 -0.5625 -0.328125 -0.90625q-0.3125 -0.359375 -0.84375 -0.578125q-0.515625 -0.234375 -1.140625 -0.40625l-1.40625 -0.390625q-1.40625 -0.40625 -2.1875 -1.140625q-0.78125 -0.75 -0.78125 -1.90625q0 -0.984375 0.53125 -1.71875q0.53125 -0.734375 1.4375 -1.140625q0.90625 -0.40625 2.03125 -0.40625q1.15625 0 2.03125 0.40625q0.890625 0.40625 1.390625 1.109375q0.515625 0.6875 0.546875 1.578125l-1.453125 0q-0.09375 -0.859375 -0.8125 -1.3125q-0.703125 -0.46875 -1.75 -0.46875q-0.75 0 -1.3125 0.25q-0.5625 0.234375 -0.875 0.671875q-0.3125 0.421875 -0.3125 0.96875q0 0.609375 0.375 0.984375q0.375 0.359375 0.890625 0.578125q0.53125 0.203125 0.953125 0.3125l1.15625 0.328125q0.46875 0.125 1.03125 0.34375q0.578125 0.21875 1.09375 0.578125q0.515625 0.359375 0.84375 0.921875q0.328125 0.5625 0.328125 1.375q0 0.953125 -0.5 1.71875q-0.484375 0.765625 -1.4375 1.21875q-0.9375 0.4375 -2.28125 0.4375zm9.328125 -0.09375q-0.890625 0 -1.5625 -0.359375q-0.65625 -0.375 -1.03125 -1.109375q-0.375 -0.734375 -0.375 -1.828125l0 -5.546875l1.40625 0l0 5.421875q0 1.015625 0.53125 1.59375q0.53125 0.5625 1.453125 0.5625q0.625 0 1.109375 -0.265625q0.5 -0.28125 0.78125 -0.8125q0.296875 -0.53125 0.296875 -1.265625l0 -5.234375l1.421875 0l0 8.734375l-1.359375 0l0 -2.125l0.1875 0q-0.40625 1.234375 -1.15625 1.734375q-0.75 0.5 -1.703125 0.5zm10.5546875 0.078125q-0.828125 0 -1.34375 -0.28125q-0.5 -0.296875 -0.78125 -0.65625q-0.265625 -0.359375 -0.421875 -0.609375l-0.15625 0l0 1.359375l-1.359375 0l0 -11.640625l1.40625 0l0 4.296875l0.109375 0q0.15625 -0.234375 0.421875 -0.578125q0.265625 -0.359375 0.765625 -0.640625q0.5 -0.28125 1.34375 -0.28125q1.09375 0 1.921875 0.546875q0.84375 0.546875 1.3125 1.5625q0.46875 1.0 0.46875 2.390625q0 1.390625 -0.46875 2.40625q-0.46875 1.015625 -1.296875 1.578125q-0.828125 0.546875 -1.921875 0.546875zm-0.21875 -1.265625q0.828125 0 1.375 -0.4375q0.546875 -0.4375 0.828125 -1.1875q0.28125 -0.75 0.28125 -1.65625q0 -0.90625 -0.28125 -1.640625q-0.265625 -0.734375 -0.828125 -1.15625q-0.546875 -0.4375 -1.375 -0.4375q-0.796875 0 -1.34375 0.40625q-0.546875 0.40625 -0.828125 1.140625q-0.28125 0.71875 -0.28125 1.6875q0 0.96875 0.28125 1.71875q0.28125 0.734375 0.828125 1.15625q0.5625 0.40625 1.34375 0.40625zm8.921875 1.265625q-0.890625 0 -1.59375 -0.265625q-0.703125 -0.265625 -1.15625 -0.78125q-0.453125 -0.515625 -0.609375 -1.265625l1.34375 -0.3125q0.1875 0.71875 0.703125 1.0625q0.515625 0.328125 1.296875 0.328125q0.921875 0 1.453125 -0.390625q0.546875 -0.390625 0.546875 -0.9375q0 -0.453125 -0.3125 -0.75q-0.3125 -0.296875 -0.96875 -0.453125l-1.453125 -0.34375q-1.1875 -0.28125 -1.765625 -0.859375q-0.578125 -0.59375 -0.578125 -1.515625q0 -0.75 0.421875 -1.328125q0.421875 -0.578125 1.15625 -0.890625q0.734375 -0.328125 1.65625 -0.328125q0.90625 0 1.53125 0.265625q0.625 0.265625 1.015625 0.75q0.40625 0.46875 0.59375 1.078125l-1.265625 0.328125q-0.1875 -0.46875 -0.609375 -0.84375q-0.40625 -0.390625 -1.25 -0.390625q-0.78125 0 -1.3125 0.359375q-0.515625 0.359375 -0.515625 0.90625q0 0.484375 0.34375 0.78125q0.359375 0.296875 1.125 0.46875l1.328125 0.3125q1.1875 0.28125 1.75 0.875q0.578125 0.59375 0.578125 1.484375q0 0.765625 -0.4375 1.375q-0.4375 0.59375 -1.21875 0.9375q-0.765625 0.34375 -1.796875 0.34375zm8.4453125 -0.078125q-0.890625 0 -1.5625 -0.359375q-0.65625 -0.375 -1.03125 -1.109375q-0.375 -0.734375 -0.375 -1.828125l0 -5.546875l1.40625 0l0 5.421875q0 1.015625 0.53125 1.59375q0.53125 0.5625 1.453125 0.5625q0.625 0 1.109375 -0.265625q0.5 -0.28125 0.78125 -0.8125q0.296875 -0.53125 0.296875 -1.265625l0 -5.234375l1.421875 0l0 8.734375l-1.359375 0l0 -2.125l0.1875 0q-0.40625 1.234375 -1.15625 1.734375q-0.75 0.5 -1.703125 0.5zm6.4921875 -0.109375l0 -8.734375l1.359375 0l0 1.34375l0.09375 0q0.25 -0.671875 0.859375 -1.0625q0.625 -0.40625 1.40625 -0.40625q0.15625 0 0.375 0.015625q0.21875 0 0.34375 0l0 1.421875q-0.0625 -0.015625 -0.3125 -0.046875q-0.25 -0.03125 -0.53125 -0.03125q-0.625 0 -1.125 0.265625q-0.5 0.25 -0.78125 0.71875q-0.28125 0.453125 -0.28125 1.046875l0 5.46875l-1.40625 0zm10.3359375 -8.734375l0 1.203125l-5.140625 0l0 -1.203125l5.140625 0zm-3.421875 8.734375l0 -9.90625q0 -0.75 0.359375 -1.25q0.359375 -0.515625 0.921875 -0.765625q0.578125 -0.265625 1.203125 -0.265625q0.5 0 0.828125 0.078125q0.328125 0.078125 0.484375 0.15625l-0.390625 1.203125q-0.109375 -0.046875 -0.28125 -0.09375q-0.171875 -0.046875 -0.46875 -0.046875q-0.65625 0 -0.953125 0.34375q-0.296875 0.328125 -0.296875 0.953125l0 9.59375l-1.40625 0zm7.484375 0.203125q-0.828125 0 -1.515625 -0.3125q-0.671875 -0.3125 -1.078125 -0.90625q-0.390625 -0.609375 -0.390625 -1.46875q0 -0.75 0.296875 -1.21875q0.296875 -0.46875 0.796875 -0.734375q0.5 -0.28125 1.09375 -0.40625q0.609375 -0.140625 1.21875 -0.21875q0.78125 -0.09375 1.265625 -0.140625q0.5 -0.0625 0.734375 -0.1875q0.234375 -0.140625 0.234375 -0.46875l0 -0.046875q0 -0.546875 -0.203125 -0.921875q-0.203125 -0.375 -0.609375 -0.578125q-0.40625 -0.203125 -1.015625 -0.203125q-0.625 0 -1.078125 0.203125q-0.4375 0.1875 -0.71875 0.484375q-0.265625 0.28125 -0.40625 0.59375l-1.359375 -0.453125q0.34375 -0.796875 0.90625 -1.234375q0.578125 -0.453125 1.265625 -0.640625q0.6875 -0.1875 1.359375 -0.1875q0.4375 0 0.984375 0.109375q0.5625 0.09375 1.078125 0.40625q0.53125 0.3125 0.859375 0.9375q0.34375 0.609375 0.34375 1.625l0 5.765625l-1.375 0l0 -1.1875l-0.09375 0q-0.15625 0.296875 -0.484375 0.625q-0.328125 0.328125 -0.859375 0.546875q-0.515625 0.21875 -1.25 0.21875zm0.234375 -1.25q0.78125 0 1.3125 -0.296875q0.546875 -0.3125 0.828125 -0.796875q0.28125 -0.484375 0.28125 -1.015625l0 -1.21875q-0.078125 0.109375 -0.375 0.1875q-0.28125 0.078125 -0.65625 0.140625q-0.375 0.0625 -0.71875 0.109375q-0.34375 0.046875 -0.546875 0.0625q-0.515625 0.0625 -0.953125 0.21875q-0.4375 0.15625 -0.703125 0.453125q-0.265625 0.28125 -0.265625 0.78125q0 0.453125 0.234375 0.765625q0.234375 0.296875 0.640625 0.453125q0.40625 0.15625 0.921875 0.15625zm9.859375 1.234375q-1.1875 0 -2.09375 -0.5625q-0.890625 -0.5625 -1.390625 -1.578125q-0.5 -1.015625 -0.5 -2.359375q0 -1.375 0.5 -2.390625q0.5 -1.015625 1.390625 -1.578125q0.90625 -0.5625 2.09375 -0.5625q0.625 0 1.1875 0.171875q0.5625 0.15625 1.03125 0.46875q0.46875 0.296875 0.796875 0.75q0.34375 0.453125 0.515625 1.015625l-1.34375 0.390625q-0.09375 -0.34375 -0.296875 -0.625q-0.1875 -0.28125 -0.46875 -0.484375q-0.28125 -0.203125 -0.640625 -0.3125q-0.359375 -0.125 -0.78125 -0.125q-0.875 0 -1.4375 0.46875q-0.5625 0.453125 -0.84375 1.203125q-0.265625 0.734375 -0.265625 1.609375q0 0.859375 0.265625 1.59375q0.28125 0.734375 0.84375 1.1875q0.5625 0.453125 1.4375 0.453125q0.4375 0 0.796875 -0.109375q0.375 -0.125 0.65625 -0.328125q0.28125 -0.21875 0.46875 -0.515625q0.203125 -0.296875 0.296875 -0.65625l1.34375 0.390625q-0.171875 0.578125 -0.515625 1.046875q-0.328125 0.453125 -0.796875 0.78125q-0.46875 0.3125 -1.046875 0.484375q-0.5625 0.171875 -1.203125 0.171875zm9.25 0q-1.265625 0 -2.1875 -0.5625q-0.90625 -0.5625 -1.40625 -1.5625q-0.5 -1.015625 -0.5 -2.359375q0 -1.34375 0.484375 -2.359375q0.484375 -1.03125 1.375 -1.609375q0.890625 -0.578125 2.078125 -0.578125q0.6875 0 1.359375 0.234375q0.6875 0.21875 1.234375 0.734375q0.546875 0.515625 0.875 1.359375q0.328125 0.828125 0.328125 2.03125l0 0.59375l-6.78125 0l0 -1.1875l6.03125 0l-0.65625 0.4375q0 -0.859375 -0.28125 -1.53125q-0.265625 -0.671875 -0.796875 -1.046875q-0.53125 -0.375 -1.3125 -0.375q-0.796875 0 -1.359375 0.390625q-0.5625 0.375 -0.859375 1.0q-0.296875 0.625 -0.296875 1.328125l0 0.796875q0 0.96875 0.328125 1.640625q0.34375 0.671875 0.953125 1.03125q0.609375 0.34375 1.40625 0.34375q0.515625 0 0.9375 -0.140625q0.421875 -0.15625 0.71875 -0.453125q0.3125 -0.3125 0.46875 -0.75l1.359375 0.375q-0.203125 0.65625 -0.6875 1.15625q-0.484375 0.5 -1.203125 0.78125q-0.703125 0.28125 -1.609375 0.28125z" fill-rule="nonzero"/></g><g filter="url(#shadowFilter-p.10)"><use xlink:href="#p.10" transform="matrix(1.0 0.0 0.0 1.0 1.3893167979002679 1.4386797900262531)"/></g><defs><filter id="shadowFilter-p.10" filterUnits="userSpaceOnUse"><feGaussianBlur in="SourceAlpha" stdDeviation="0.0" result="blur"/><feComponentTransfer in="blur" color-interpolation-filters="sRGB"><feFuncR type="linear" slope="0" intercept="0.0"/><feFuncG type="linear" slope="0" intercept="0.0"/><feFuncB type="linear" slope="0" intercept="0.0"/><feFuncA type="linear" slope="0.14" intercept="0"/></feComponentTransfer></filter></defs><g id="p.10"><path fill="#ffffff" d="m476.55753 99.51036c0 -1.384903 1.1227112 -2.5075912 2.5075989 -2.5075912l313.69537 0c0.66503906 0 1.3028564 0.26419067 1.7731323 0.7344589c0.47027588 0.47026062 0.73443604 1.108078 0.73443604 1.7731323l0 21.692543c0 1.384903 -1.1226807 2.5075912 -2.5075684 2.5075912l-313.69537 0c-1.3848877 0 -2.5075989 -1.1226883 -2.5075989 -2.5075912z" fill-rule="evenodd"/><path stroke="#b7b7b7" stroke-width="1.0" stroke-linejoin="round" stroke-linecap="butt" d="m476.55753 99.51036c0 -1.384903 1.1227112 -2.5075912 2.5075989 -2.5075912l313.69537 0c0.66503906 0 1.3028564 0.26419067 1.7731323 0.7344589c0.47027588 0.47026062 0.73443604 1.108078 0.73443604 1.7731323l0 21.692543c0 1.384903 -1.1226807 2.5075912 -2.5075684 2.5075912l-313.69537 0c-1.3848877 0 -2.5075989 -1.1226883 -2.5075989 -2.5075912z" fill-rule="evenodd"/><path fill="#000000" d="m607.61597 116.419754q-1.265625 0 -2.1875 -0.40625q-0.921875 -0.40625 -1.453125 -1.140625q-0.515625 -0.734375 -0.59375 -1.703125l1.53125 0q0.0625 0.65625 0.4375 1.078125q0.390625 0.421875 0.984375 0.640625q0.59375 0.203125 1.28125 0.203125q0.78125 0 1.40625 -0.25q0.640625 -0.265625 1.0 -0.734375q0.375 -0.46875 0.375 -1.09375q0 -0.5625 -0.328125 -0.90625q-0.3125 -0.359375 -0.84375 -0.578125q-0.515625 -0.234375 -1.140625 -0.40625l-1.40625 -0.390625q-1.40625 -0.40625 -2.1875 -1.140625q-0.78125 -0.75 -0.78125 -1.90625q0 -0.984375 0.53125 -1.71875q0.53125 -0.734375 1.4375 -1.140625q0.90625 -0.40625 2.03125 -0.40625q1.15625 0 2.03125 0.40625q0.890625 0.40625 1.390625 1.109375q0.515625 0.6875 0.546875 1.578125l-1.453125 0q-0.09375 -0.859375 -0.8125 -1.3125q-0.703125 -0.46875 -1.75 -0.46875q-0.75 0 -1.3125 0.25q-0.5625 0.234375 -0.875 0.671875q-0.3125 0.421875 -0.3125 0.96875q0 0.609375 0.375 0.984375q0.375 0.359375 0.890625 0.578125q0.53125 0.203125 0.953125 0.3125l1.15625 0.328125q0.46875 0.125 1.03125 0.34375q0.578125 0.21875 1.09375 0.578125q0.515625 0.359375 0.84375 0.921875q0.328125 0.5625 0.328125 1.375q0 0.953125 -0.5 1.71875q-0.484375 0.765625 -1.4375 1.21875q-0.9375 0.4375 -2.28125 0.4375zm6.359375 3.0625l0 -12.0l1.359375 0l0 1.390625l0.15625 0q0.15625 -0.234375 0.421875 -0.578125q0.265625 -0.359375 0.765625 -0.640625q0.5 -0.28125 1.34375 -0.28125q1.09375 0 1.921875 0.546875q0.84375 0.546875 1.3125 1.5625q0.46875 1.0 0.46875 2.390625q0 1.390625 -0.46875 2.40625q-0.46875 1.015625 -1.296875 1.578125q-0.828125 0.546875 -1.921875 0.546875q-0.828125 0 -1.34375 -0.28125q-0.5 -0.296875 -0.78125 -0.65625q-0.265625 -0.359375 -0.421875 -0.609375l-0.109375 0l0 4.625l-1.40625 0zm3.84375 -4.34375q0.828125 0 1.375 -0.4375q0.546875 -0.4375 0.828125 -1.1875q0.28125 -0.75 0.28125 -1.65625q0 -0.90625 -0.28125 -1.640625q-0.265625 -0.734375 -0.828125 -1.15625q-0.546875 -0.4375 -1.375 -0.4375q-0.796875 0 -1.34375 0.40625q-0.546875 0.40625 -0.828125 1.140625q-0.28125 0.71875 -0.28125 1.6875q0 0.96875 0.28125 1.71875q0.28125 0.734375 0.828125 1.15625q0.5625 0.40625 1.34375 0.40625zm9.625 1.265625q-1.265625 0 -2.1875 -0.5625q-0.90625 -0.5625 -1.40625 -1.5625q-0.5 -1.015625 -0.5 -2.359375q0 -1.34375 0.484375 -2.359375q0.484375 -1.03125 1.375 -1.609375q0.890625 -0.578125 2.078125 -0.578125q0.6875 0 1.359375 0.234375q0.6875 0.21875 1.234375 0.734375q0.546875 0.515625 0.875 1.359375q0.328125 0.828125 0.328125 2.03125l0 0.59375l-6.78125 0l0 -1.1875l6.03125 0l-0.65625 0.4375q0 -0.859375 -0.28125 -1.53125q-0.265625 -0.671875 -0.796875 -1.046875q-0.53125 -0.375 -1.3125 -0.375q-0.796875 0 -1.359375 0.390625q-0.5625 0.375 -0.859375 1.0q-0.296875 0.625 -0.296875 1.328125l0 0.796875q0 0.96875 0.328125 1.640625q0.34375 0.671875 0.953125 1.03125q0.609375 0.34375 1.40625 0.34375q0.515625 0 0.9375 -0.140625q0.421875 -0.15625 0.71875 -0.453125q0.3125 -0.3125 0.46875 -0.75l1.359375 0.375q-0.203125 0.65625 -0.6875 1.15625q-0.484375 0.5 -1.203125 0.78125q-0.703125 0.28125 -1.609375 0.28125zm9.21875 0q-1.1875 0 -2.09375 -0.5625q-0.890625 -0.5625 -1.390625 -1.578125q-0.5 -1.015625 -0.5 -2.359375q0 -1.375 0.5 -2.390625q0.5 -1.015625 1.390625 -1.578125q0.90625 -0.5625 2.09375 -0.5625q0.625 0 1.1875 0.171875q0.5625 0.15625 1.03125 0.46875q0.46875 0.296875 0.796875 0.75q0.34375 0.453125 0.515625 1.015625l-1.34375 0.390625q-0.09375 -0.34375 -0.296875 -0.625q-0.1875 -0.28125 -0.46875 -0.484375q-0.28125 -0.203125 -0.640625 -0.3125q-0.359375 -0.125 -0.78125 -0.125q-0.875 0 -1.4375 0.46875q-0.5625 0.453125 -0.84375 1.203125q-0.265625 0.734375 -0.265625 1.609375q0 0.859375 0.265625 1.59375q0.28125 0.734375 0.84375 1.1875q0.5625 0.453125 1.4375 0.453125q0.4375 0 0.796875 -0.109375q0.375 -0.125 0.65625 -0.328125q0.28125 -0.21875 0.46875 -0.515625q0.203125 -0.296875 0.296875 -0.65625l1.34375 0.390625q-0.171875 0.578125 -0.515625 1.046875q-0.328125 0.453125 -0.796875 0.78125q-0.46875 0.3125 -1.046875 0.484375q-0.5625 0.171875 -1.203125 0.171875zm8.546875 -0.078125q-0.890625 0 -1.5625 -0.359375q-0.65625 -0.375 -1.03125 -1.109375q-0.375 -0.734375 -0.375 -1.828125l0 -5.546875l1.40625 0l0 5.421875q0 1.015625 0.53125 1.59375q0.53125 0.5625 1.453125 0.5625q0.625 0 1.109375 -0.265625q0.5 -0.28125 0.78125 -0.8125q0.296875 -0.53125 0.296875 -1.265625l0 -5.234375l1.421875 0l0 8.734375l-1.359375 0l0 -2.125l0.1875 0q-0.40625 1.234375 -1.15625 1.734375q-0.75 0.5 -1.703125 0.5zm7.8984375 -11.75l0 11.640625l-1.40625 0l0 -11.640625l1.40625 0zm4.921875 11.84375q-0.828125 0 -1.515625 -0.3125q-0.671875 -0.3125 -1.078125 -0.90625q-0.390625 -0.609375 -0.390625 -1.46875q0 -0.75 0.296875 -1.21875q0.296875 -0.46875 0.796875 -0.734375q0.5 -0.28125 1.09375 -0.40625q0.609375 -0.140625 1.21875 -0.21875q0.78125 -0.09375 1.265625 -0.140625q0.5 -0.0625 0.734375 -0.1875q0.234375 -0.140625 0.234375 -0.46875l0 -0.046875q0 -0.546875 -0.203125 -0.921875q-0.203125 -0.375 -0.609375 -0.578125q-0.40625 -0.203125 -1.015625 -0.203125q-0.625 0 -1.078125 0.203125q-0.4375 0.1875 -0.71875 0.484375q-0.265625 0.28125 -0.40625 0.59375l-1.359375 -0.453125q0.34375 -0.796875 0.90625 -1.234375q0.578125 -0.453125 1.265625 -0.640625q0.6875 -0.1875 1.359375 -0.1875q0.4375 0 0.984375 0.109375q0.5625 0.09375 1.078125 0.40625q0.53125 0.3125 0.859375 0.9375q0.34375 0.609375 0.34375 1.625l0 5.765625l-1.375 0l0 -1.1875l-0.09375 0q-0.15625 0.296875 -0.484375 0.625q-0.328125 0.328125 -0.859375 0.546875q-0.515625 0.21875 -1.25 0.21875zm0.234375 -1.25q0.78125 0 1.3125 -0.296875q0.546875 -0.3125 0.828125 -0.796875q0.28125 -0.484375 0.28125 -1.015625l0 -1.21875q-0.078125 0.109375 -0.375 0.1875q-0.28125 0.078125 -0.65625 0.140625q-0.375 0.0625 -0.71875 0.109375q-0.34375 0.046875 -0.546875 0.0625q-0.515625 0.0625 -0.953125 0.21875q-0.4375 0.15625 -0.703125 0.453125q-0.265625 0.28125 -0.265625 0.78125q0 0.453125 0.234375 0.765625q0.234375 0.296875 0.640625 0.453125q0.40625 0.15625 0.921875 0.15625zm6.296875 1.046875l0 -8.734375l1.359375 0l0 1.34375l0.09375 0q0.25 -0.671875 0.859375 -1.0625q0.625 -0.40625 1.40625 -0.40625q0.15625 0 0.375 0.015625q0.21875 0 0.34375 0l0 1.421875q-0.0625 -0.015625 -0.3125 -0.046875q-0.25 -0.03125 -0.53125 -0.03125q-0.625 0 -1.125 0.265625q-0.5 0.25 -0.78125 0.71875q-0.28125 0.453125 -0.28125 1.046875l0 5.46875l-1.40625 0z" fill-rule="nonzero"/></g><g filter="url(#shadowFilter-p.11)"><use xlink:href="#p.11" transform="matrix(1.0 0.0 0.0 1.0 1.389316797900263 1.4386797900262531)"/></g><defs><filter id="shadowFilter-p.11" filterUnits="userSpaceOnUse"><feGaussianBlur in="SourceAlpha" stdDeviation="0.0" result="blur"/><feComponentTransfer in="blur" color-interpolation-filters="sRGB"><feFuncR type="linear" slope="0" intercept="0.0"/><feFuncG type="linear" slope="0" intercept="0.0"/><feFuncB type="linear" slope="0" intercept="0.0"/><feFuncA type="linear" slope="0.14" intercept="0"/></feComponentTransfer></filter></defs><g id="p.11"><path fill="#ffe599" d="m14.168594 102.33034c0 -2.9426575 2.3854961 -5.3281555 5.3281574 -5.3281555l208.88133 0c1.4131012 0 2.768341 0.5613556 3.7675629 1.5605774c0.9992218 0.99922943 1.5605927 2.3544617 1.5605927 3.7675781l0 100.231445c0 2.9426575 -2.385498 5.3281555 -5.3281555 5.3281555l-208.88133 0c-2.9426613 0 -5.3281574 -2.385498 -5.3281574 -5.3281555z" fill-rule="evenodd"/><path stroke="#b7b7b7" stroke-width="1.0" stroke-linejoin="round" stroke-linecap="butt" d="m14.168594 102.33034c0 -2.9426575 2.3854961 -5.3281555 5.3281574 -5.3281555l208.88133 0c1.4131012 0 2.768341 0.5613556 3.7675629 1.5605774c0.9992218 0.99922943 1.5605927 2.3544617 1.5605927 3.7675781l0 100.231445c0 2.9426575 -2.385498 5.3281555 -5.3281555 5.3281555l-208.88133 0c-2.9426613 0 -5.3281574 -2.385498 -5.3281574 -5.3281555z" fill-rule="evenodd"/><path fill="#000000" d="m104.367096 158.30606l0 -11.640625l2.109375 0l2.875 7.34375q0.09375 0.25 0.21875 0.640625q0.140625 0.390625 0.28125 0.84375q0.140625 0.453125 0.265625 0.90625q0.140625 0.4375 0.25 0.828125l-0.328125 0q0.109375 -0.359375 0.234375 -0.796875q0.140625 -0.453125 0.28125 -0.90625q0.140625 -0.453125 0.265625 -0.84375q0.140625 -0.40625 0.25 -0.671875l2.828125 -7.34375l2.109375 0l0 11.640625l-1.453125 0l0 -6.65625q0 -0.359375 0 -0.8125q0 -0.46875 0.015625 -0.96875q0.015625 -0.515625 0.015625 -1.03125q0.015625 -0.53125 0.03125 -1.015625l0.125 0q-0.171875 0.53125 -0.359375 1.09375q-0.171875 0.5625 -0.359375 1.078125q-0.171875 0.515625 -0.328125 0.953125q-0.15625 0.421875 -0.265625 0.703125l-2.59375 6.65625l-1.296875 0l-2.640625 -6.65625q-0.109375 -0.265625 -0.265625 -0.6875q-0.140625 -0.421875 -0.3125 -0.921875q-0.171875 -0.515625 -0.359375 -1.078125q-0.1875 -0.578125 -0.390625 -1.140625l0.140625 0q0.015625 0.4375 0.03125 0.953125q0.015625 0.5 0.015625 1.015625q0.015625 0.515625 0.015625 1.0q0.015625 0.484375 0.015625 0.859375l0 6.65625l-1.421875 0zm17.953125 0.1875q-1.265625 0 -2.1875 -0.5625q-0.90625 -0.5625 -1.40625 -1.5625q-0.5 -1.015625 -0.5 -2.359375q0 -1.34375 0.484375 -2.359375q0.484375 -1.03125 1.375 -1.609375q0.890625 -0.578125 2.078125 -0.578125q0.6875 0 1.359375 0.234375q0.6875 0.21875 1.234375 0.734375q0.546875 0.515625 0.875 1.359375q0.328125 0.828125 0.328125 2.03125l0 0.59375l-6.78125 0l0 -1.1875l6.03125 0l-0.65625 0.4375q0 -0.859375 -0.28125 -1.53125q-0.265625 -0.671875 -0.796875 -1.046875q-0.53125 -0.375 -1.3125 -0.375q-0.796875 0 -1.359375 0.390625q-0.5625 0.375 -0.859375 1.0q-0.296875 0.625 -0.296875 1.328125l0 0.796875q0 0.96875 0.328125 1.640625q0.34375 0.671875 0.953125 1.03125q0.609375 0.34375 1.40625 0.34375q0.515625 0 0.9375 -0.140625q0.421875 -0.15625 0.71875 -0.453125q0.3125 -0.3125 0.46875 -0.75l1.359375 0.375q-0.203125 0.65625 -0.6875 1.15625q-0.484375 0.5 -1.203125 0.78125q-0.703125 0.28125 -1.609375 0.28125zm9.09375 -8.921875l0 1.203125l-4.515625 0l0 -1.203125l4.515625 0zm-3.203125 -2.078125l1.40625 0l0 8.546875q0 0.578125 0.234375 0.859375q0.25 0.265625 0.796875 0.265625q0.140625 0 0.34375 -0.03125q0.203125 -0.03125 0.375 -0.0625l0.296875 1.1875q-0.21875 0.078125 -0.5 0.109375q-0.28125 0.046875 -0.546875 0.046875q-1.140625 0 -1.78125 -0.59375q-0.625 -0.609375 -0.625 -1.671875l0 -8.65625zm7.53125 11.015625q-0.828125 0 -1.515625 -0.3125q-0.671875 -0.3125 -1.078125 -0.90625q-0.390625 -0.609375 -0.390625 -1.46875q0 -0.75 0.296875 -1.21875q0.296875 -0.46875 0.796875 -0.734375q0.5 -0.28125 1.09375 -0.40625q0.609375 -0.140625 1.21875 -0.21875q0.78125 -0.09375 1.265625 -0.140625q0.5 -0.0625 0.734375 -0.1875q0.234375 -0.140625 0.234375 -0.46875l0 -0.046875q0 -0.546875 -0.203125 -0.921875q-0.203125 -0.375 -0.609375 -0.578125q-0.40625 -0.203125 -1.015625 -0.203125q-0.625 0 -1.078125 0.203125q-0.4375 0.1875 -0.71875 0.484375q-0.265625 0.28125 -0.40625 0.59375l-1.359375 -0.453125q0.34375 -0.796875 0.90625 -1.234375q0.578125 -0.453125 1.265625 -0.640625q0.6875 -0.1875 1.359375 -0.1875q0.4375 0 0.984375 0.109375q0.5625 0.09375 1.078125 0.40625q0.53125 0.3125 0.859375 0.9375q0.34375 0.609375 0.34375 1.625l0 5.765625l-1.375 0l0 -1.1875l-0.09375 0q-0.15625 0.296875 -0.484375 0.625q-0.328125 0.328125 -0.859375 0.546875q-0.515625 0.21875 -1.25 0.21875zm0.234375 -1.25q0.78125 0 1.3125 -0.296875q0.546875 -0.3125 0.828125 -0.796875q0.28125 -0.484375 0.28125 -1.015625l0 -1.21875q-0.078125 0.109375 -0.375 0.1875q-0.28125 0.078125 -0.65625 0.140625q-0.375 0.0625 -0.71875 0.109375q-0.34375 0.046875 -0.546875 0.0625q-0.515625 0.0625 -0.953125 0.21875q-0.4375 0.15625 -0.703125 0.453125q-0.265625 0.28125 -0.265625 0.78125q0 0.453125 0.234375 0.765625q0.234375 0.296875 0.640625 0.453125q0.40625 0.15625 0.921875 0.15625zm7.703125 -10.59375l0 11.640625l-1.40625 0l0 -11.640625l1.40625 0z" fill-rule="nonzero"/></g><g filter="url(#shadowFilter-p.12)"><use xlink:href="#p.12" transform="matrix(1.0 0.0 0.0 1.0 1.3893167979002679 1.4386797900262531)"/></g><defs><filter id="shadowFilter-p.12" filterUnits="userSpaceOnUse"><feGaussianBlur in="SourceAlpha" stdDeviation="0.0" result="blur"/><feComponentTransfer in="blur" color-interpolation-filters="sRGB"><feFuncR type="linear" slope="0" intercept="0.0"/><feFuncG type="linear" slope="0" intercept="0.0"/><feFuncB type="linear" slope="0" intercept="0.0"/><feFuncA type="linear" slope="0.14" intercept="0"/></feComponentTransfer></filter></defs><g id="p.12"><path fill="#f9cb9c" d="m809.8492 76.97103c0 -2.7108078 2.1975098 -4.9083557 4.908325 -4.9083557l93.64789 0c1.3017578 0 2.550232 0.517128 3.4707031 1.4376221c0.9204712 0.9204941 1.4376221 2.1689606 1.4376221 3.4707336l0 155.88406c0 2.7108154 -2.1975708 4.9083557 -4.908325 4.9083557l-93.64789 0c-2.7108154 0 -4.908325 -2.1975403 -4.908325 -4.9083557z" fill-rule="evenodd"/><path stroke="#b7b7b7" stroke-width="1.0" stroke-linejoin="round" stroke-linecap="butt" d="m809.8492 76.97103c0 -2.7108078 2.1975098 -4.9083557 4.908325 -4.9083557l93.64789 0c1.3017578 0 2.550232 0.517128 3.4707031 1.4376221c0.9204712 0.9204941 1.4376221 2.1689606 1.4376221 3.4707336l0 155.88406c0 2.7108154 -2.1975708 4.9083557 -4.908325 4.9083557l-93.64789 0c-2.7108154 0 -4.908325 -2.1975403 -4.908325 -4.9083557z" fill-rule="evenodd"/><path fill="#000000" d="m829.3275 160.77307l0 -11.640625l7.09375 0l0 1.3125l-5.609375 0l0 3.796875l5.234375 0l0 1.3125l-5.234375 0l0 3.90625l5.6875 0l0 1.3125l-7.171875 0zm9.4453125 0l0 -8.734375l1.375 0l0 1.953125l-0.109375 0q0.1875 -0.71875 0.5625 -1.171875q0.390625 -0.46875 0.90625 -0.703125q0.53125 -0.234375 1.09375 -0.234375q0.953125 0 1.53125 0.59375q0.59375 0.578125 0.765625 1.53125l-0.1875 0q0.15625 -0.65625 0.5625 -1.125q0.421875 -0.484375 1.015625 -0.734375q0.59375 -0.265625 1.28125 -0.265625q0.765625 0 1.390625 0.328125q0.625 0.328125 0.984375 1.0q0.375 0.65625 0.375 1.671875l0 5.890625l-1.40625 0l0 -5.859375q0 -0.9375 -0.53125 -1.34375q-0.53125 -0.40625 -1.234375 -0.40625q-0.578125 0 -1.015625 0.25q-0.421875 0.234375 -0.65625 0.671875q-0.21875 0.421875 -0.21875 0.984375l0 5.703125l-1.40625 0l0 -6.0q0 -0.71875 -0.484375 -1.15625q-0.484375 -0.453125 -1.234375 -0.453125q-0.5 0 -0.953125 0.234375q-0.453125 0.234375 -0.734375 0.703125q-0.265625 0.46875 -0.265625 1.171875l0 5.5l-1.40625 0zm14.015625 0l0 -8.734375l1.40625 0l0 8.734375l-1.40625 0zm0.71875 -10.171875q-0.40625 0 -0.703125 -0.265625q-0.28125 -0.28125 -0.28125 -0.65625q0 -0.390625 0.28125 -0.65625q0.296875 -0.28125 0.703125 -0.28125q0.40625 0 0.6875 0.28125q0.296875 0.265625 0.296875 0.65625q0 0.375 -0.296875 0.65625q-0.28125 0.265625 -0.6875 0.265625zm6.125 10.359375q-0.890625 0 -1.59375 -0.265625q-0.703125 -0.265625 -1.15625 -0.78125q-0.453125 -0.515625 -0.609375 -1.265625l1.34375 -0.3125q0.1875 0.71875 0.703125 1.0625q0.515625 0.328125 1.296875 0.328125q0.921875 0 1.453125 -0.390625q0.546875 -0.390625 0.546875 -0.9375q0 -0.453125 -0.3125 -0.75q-0.3125 -0.296875 -0.96875 -0.453125l-1.453125 -0.34375q-1.1875 -0.28125 -1.765625 -0.859375q-0.578125 -0.59375 -0.578125 -1.515625q0 -0.75 0.421875 -1.328125q0.421875 -0.578125 1.15625 -0.890625q0.734375 -0.328125 1.65625 -0.328125q0.90625 0 1.53125 0.265625q0.625 0.265625 1.015625 0.75q0.40625 0.46875 0.59375 1.078125l-1.265625 0.328125q-0.1875 -0.46875 -0.609375 -0.84375q-0.40625 -0.390625 -1.25 -0.390625q-0.78125 0 -1.3125 0.359375q-0.515625 0.359375 -0.515625 0.90625q0 0.484375 0.34375 0.78125q0.359375 0.296875 1.125 0.46875l1.328125 0.3125q1.1875 0.28125 1.75 0.875q0.578125 0.59375 0.578125 1.484375q0 0.765625 -0.4375 1.375q-0.4375 0.59375 -1.21875 0.9375q-0.765625 0.34375 -1.796875 0.34375zm8.4453125 0q-0.890625 0 -1.59375 -0.265625q-0.703125 -0.265625 -1.15625 -0.78125q-0.453125 -0.515625 -0.609375 -1.265625l1.34375 -0.3125q0.1875 0.71875 0.703125 1.0625q0.515625 0.328125 1.296875 0.328125q0.921875 0 1.453125 -0.390625q0.546875 -0.390625 0.546875 -0.9375q0 -0.453125 -0.3125 -0.75q-0.3125 -0.296875 -0.96875 -0.453125l-1.453125 -0.34375q-1.1875 -0.28125 -1.765625 -0.859375q-0.578125 -0.59375 -0.578125 -1.515625q0 -0.75 0.421875 -1.328125q0.421875 -0.578125 1.15625 -0.890625q0.734375 -0.328125 1.65625 -0.328125q0.90625 0 1.53125 0.265625q0.625 0.265625 1.015625 0.75q0.40625 0.46875 0.59375 1.078125l-1.265625 0.328125q-0.1875 -0.46875 -0.609375 -0.84375q-0.40625 -0.390625 -1.25 -0.390625q-0.78125 0 -1.3125 0.359375q-0.515625 0.359375 -0.515625 0.90625q0 0.484375 0.34375 0.78125q0.359375 0.296875 1.125 0.46875l1.328125 0.3125q1.1875 0.28125 1.75 0.875q0.578125 0.59375 0.578125 1.484375q0 0.765625 -0.4375 1.375q-0.4375 0.59375 -1.21875 0.9375q-0.765625 0.34375 -1.796875 0.34375zm5.4765625 -0.1875l0 -8.734375l1.40625 0l0 8.734375l-1.40625 0zm0.71875 -10.171875q-0.40625 0 -0.703125 -0.265625q-0.28125 -0.28125 -0.28125 -0.65625q0 -0.390625 0.28125 -0.65625q0.296875 -0.28125 0.703125 -0.28125q0.40625 0 0.6875 0.28125q0.296875 0.265625 0.296875 0.65625q0 0.375 -0.296875 0.65625q-0.28125 0.265625 -0.6875 0.265625zm6.71875 10.359375q-1.1875 0 -2.09375 -0.5625q-0.890625 -0.5625 -1.390625 -1.578125q-0.5 -1.015625 -0.5 -2.359375q0 -1.375 0.5 -2.390625q0.5 -1.015625 1.390625 -1.578125q0.90625 -0.5625 2.09375 -0.5625q1.1875 0 2.078125 0.5625q0.90625 0.5625 1.40625 1.578125q0.5 1.015625 0.5 2.390625q0 1.34375 -0.5 2.359375q-0.5 1.015625 -1.40625 1.578125q-0.890625 0.5625 -2.078125 0.5625zm0 -1.265625q0.875 0 1.4375 -0.453125q0.578125 -0.453125 0.84375 -1.1875q0.28125 -0.734375 0.28125 -1.59375q0 -0.875 -0.28125 -1.609375q-0.265625 -0.75 -0.84375 -1.203125q-0.5625 -0.46875 -1.4375 -0.46875q-0.875 0 -1.4375 0.46875q-0.5625 0.453125 -0.84375 1.203125q-0.265625 0.734375 -0.265625 1.609375q0 0.859375 0.265625 1.59375q0.28125 0.734375 0.84375 1.1875q0.5625 0.453125 1.4375 0.453125zm7.4375 -4.15625l0 5.234375l-1.40625 0l0 -8.734375l1.359375 0l0 2.109375l-0.1875 0q0.390625 -1.203125 1.125 -1.703125q0.75 -0.515625 1.734375 -0.515625q0.890625 0 1.546875 0.359375q0.671875 0.359375 1.03125 1.09375q0.375 0.734375 0.375 1.84375l0 5.546875l-1.40625 0l0 -5.4375q0 -1.0 -0.53125 -1.5625q-0.515625 -0.578125 -1.4375 -0.578125q-0.625 0 -1.125 0.28125q-0.5 0.265625 -0.796875 0.796875q-0.28125 0.515625 -0.28125 1.265625z" fill-rule="nonzero"/></g><g filter="url(#shadowFilter-p.13)"><use xlink:href="#p.13" transform="matrix(1.0 0.0 0.0 1.0 1.3893167979002679 1.4386797900262531)"/></g><defs><filter id="shadowFilter-p.13" filterUnits="userSpaceOnUse"><feGaussianBlur in="SourceAlpha" stdDeviation="0.0" result="blur"/><feComponentTransfer in="blur" color-interpolation-filters="sRGB"><feFuncR type="linear" slope="0" intercept="0.0"/><feFuncG type="linear" slope="0" intercept="0.0"/><feFuncB type="linear" slope="0" intercept="0.0"/><feFuncA type="linear" slope="0.14" intercept="0"/></feComponentTransfer></filter></defs><g id="p.13"><path fill="#ffffff" d="m476.5147 183.68892c0 -1.3849487 1.1227112 -2.5076752 2.50766 -2.5076752l313.69333 0c0.66503906 0 1.3029175 0.26420593 1.7731934 0.7344818c0.47027588 0.47029114 0.7344971 1.1081238 0.7344971 1.7731934l0 21.693314c0 1.3849487 -1.1227417 2.5076752 -2.5076904 2.5076752l-313.69333 0c-1.3849487 0 -2.50766 -1.1227264 -2.50766 -2.5076752z" fill-rule="evenodd"/><path stroke="#b7b7b7" stroke-width="1.0" stroke-linejoin="round" stroke-linecap="butt" d="m476.5147 183.68892c0 -1.3849487 1.1227112 -2.5076752 2.50766 -2.5076752l313.69333 0c0.66503906 0 1.3029175 0.26420593 1.7731934 0.7344818c0.47027588 0.47029114 0.7344971 1.1081238 0.7344971 1.7731934l0 21.693314c0 1.3849487 -1.1227417 2.5076752 -2.5076904 2.5076752l-313.69333 0c-1.3849487 0 -2.50766 -1.1227264 -2.50766 -2.5076752z" fill-rule="evenodd"/><path fill="#000000" d="m607.57214 200.59871q-1.265625 0 -2.1875 -0.40625q-0.921875 -0.40625 -1.453125 -1.140625q-0.515625 -0.734375 -0.59375 -1.703125l1.53125 0q0.0625 0.65625 0.4375 1.078125q0.390625 0.421875 0.984375 0.640625q0.59375 0.203125 1.28125 0.203125q0.78125 0 1.40625 -0.25q0.640625 -0.265625 1.0 -0.734375q0.375 -0.46875 0.375 -1.09375q0 -0.5625 -0.328125 -0.90625q-0.3125 -0.359375 -0.84375 -0.578125q-0.515625 -0.234375 -1.140625 -0.40625l-1.40625 -0.390625q-1.40625 -0.40625 -2.1875 -1.140625q-0.78125 -0.75 -0.78125 -1.90625q0 -0.984375 0.53125 -1.71875q0.53125 -0.734375 1.4375 -1.140625q0.90625 -0.40625 2.03125 -0.40625q1.15625 0 2.03125 0.40625q0.890625 0.40625 1.390625 1.109375q0.515625 0.6875 0.546875 1.578125l-1.453125 0q-0.09375 -0.859375 -0.8125 -1.3125q-0.703125 -0.46875 -1.75 -0.46875q-0.75 0 -1.3125 0.25q-0.5625 0.234375 -0.875 0.671875q-0.3125 0.421875 -0.3125 0.96875q0 0.609375 0.375 0.984375q0.375 0.359375 0.890625 0.578125q0.53125 0.203125 0.953125 0.3125l1.15625 0.328125q0.46875 0.125 1.03125 0.34375q0.578125 0.21875 1.09375 0.578125q0.515625 0.359375 0.84375 0.921875q0.328125 0.5625 0.328125 1.375q0 0.953125 -0.5 1.71875q-0.484375 0.765625 -1.4375 1.21875q-0.9375 0.4375 -2.28125 0.4375zm6.359375 3.0625l0 -12.0l1.359375 0l0 1.390625l0.15625 0q0.15625 -0.234375 0.421875 -0.578125q0.265625 -0.359375 0.765625 -0.640625q0.5 -0.28125 1.34375 -0.28125q1.09375 0 1.921875 0.546875q0.84375 0.546875 1.3125 1.5625q0.46875 1.0 0.46875 2.390625q0 1.390625 -0.46875 2.40625q-0.46875 1.015625 -1.296875 1.578125q-0.828125 0.546875 -1.921875 0.546875q-0.828125 0 -1.34375 -0.28125q-0.5 -0.296875 -0.78125 -0.65625q-0.265625 -0.359375 -0.421875 -0.609375l-0.109375 0l0 4.625l-1.40625 0zm3.84375 -4.34375q0.828125 0 1.375 -0.4375q0.546875 -0.4375 0.828125 -1.1875q0.28125 -0.75 0.28125 -1.65625q0 -0.90625 -0.28125 -1.640625q-0.265625 -0.734375 -0.828125 -1.15625q-0.546875 -0.4375 -1.375 -0.4375q-0.796875 0 -1.34375 0.40625q-0.546875 0.40625 -0.828125 1.140625q-0.28125 0.71875 -0.28125 1.6875q0 0.96875 0.28125 1.71875q0.28125 0.734375 0.828125 1.15625q0.5625 0.40625 1.34375 0.40625zm9.625 1.265625q-1.265625 0 -2.1875 -0.5625q-0.90625 -0.5625 -1.40625 -1.5625q-0.5 -1.015625 -0.5 -2.359375q0 -1.34375 0.484375 -2.359375q0.484375 -1.03125 1.375 -1.609375q0.890625 -0.578125 2.078125 -0.578125q0.6875 0 1.359375 0.234375q0.6875 0.21875 1.234375 0.734375q0.546875 0.515625 0.875 1.359375q0.328125 0.828125 0.328125 2.03125l0 0.59375l-6.78125 0l0 -1.1875l6.03125 0l-0.65625 0.4375q0 -0.859375 -0.28125 -1.53125q-0.265625 -0.671875 -0.796875 -1.046875q-0.53125 -0.375 -1.3125 -0.375q-0.796875 0 -1.359375 0.390625q-0.5625 0.375 -0.859375 1.0q-0.296875 0.625 -0.296875 1.328125l0 0.796875q0 0.96875 0.328125 1.640625q0.34375 0.671875 0.953125 1.03125q0.609375 0.34375 1.40625 0.34375q0.515625 0 0.9375 -0.140625q0.421875 -0.15625 0.71875 -0.453125q0.3125 -0.3125 0.46875 -0.75l1.359375 0.375q-0.203125 0.65625 -0.6875 1.15625q-0.484375 0.5 -1.203125 0.78125q-0.703125 0.28125 -1.609375 0.28125zm9.21875 0q-1.1875 0 -2.09375 -0.5625q-0.890625 -0.5625 -1.390625 -1.578125q-0.5 -1.015625 -0.5 -2.359375q0 -1.375 0.5 -2.390625q0.5 -1.015625 1.390625 -1.578125q0.90625 -0.5625 2.09375 -0.5625q0.625 0 1.1875 0.171875q0.5625 0.15625 1.03125 0.46875q0.46875 0.296875 0.796875 0.75q0.34375 0.453125 0.515625 1.015625l-1.34375 0.390625q-0.09375 -0.34375 -0.296875 -0.625q-0.1875 -0.28125 -0.46875 -0.484375q-0.28125 -0.203125 -0.640625 -0.3125q-0.359375 -0.125 -0.78125 -0.125q-0.875 0 -1.4375 0.46875q-0.5625 0.453125 -0.84375 1.203125q-0.265625 0.734375 -0.265625 1.609375q0 0.859375 0.265625 1.59375q0.28125 0.734375 0.84375 1.1875q0.5625 0.453125 1.4375 0.453125q0.4375 0 0.796875 -0.109375q0.375 -0.125 0.65625 -0.328125q0.28125 -0.21875 0.46875 -0.515625q0.203125 -0.296875 0.296875 -0.65625l1.34375 0.390625q-0.171875 0.578125 -0.515625 1.046875q-0.328125 0.453125 -0.796875 0.78125q-0.46875 0.3125 -1.046875 0.484375q-0.5625 0.171875 -1.203125 0.171875zm8.546875 -0.078125q-0.890625 0 -1.5625 -0.359375q-0.65625 -0.375 -1.03125 -1.109375q-0.375 -0.734375 -0.375 -1.828125l0 -5.546875l1.40625 0l0 5.421875q0 1.015625 0.53125 1.59375q0.53125 0.5625 1.453125 0.5625q0.625 0 1.109375 -0.265625q0.5 -0.28125 0.78125 -0.8125q0.296875 -0.53125 0.296875 -1.265625l0 -5.234375l1.421875 0l0 8.734375l-1.359375 0l0 -2.125l0.1875 0q-0.40625 1.234375 -1.15625 1.734375q-0.75 0.5 -1.703125 0.5zm7.8984375 -11.75l0 11.640625l-1.40625 0l0 -11.640625l1.40625 0zm4.921875 11.84375q-0.828125 0 -1.515625 -0.3125q-0.671875 -0.3125 -1.078125 -0.90625q-0.390625 -0.609375 -0.390625 -1.46875q0 -0.75 0.296875 -1.21875q0.296875 -0.46875 0.796875 -0.734375q0.5 -0.28125 1.09375 -0.40625q0.609375 -0.140625 1.21875 -0.21875q0.78125 -0.09375 1.265625 -0.140625q0.5 -0.0625 0.734375 -0.1875q0.234375 -0.140625 0.234375 -0.46875l0 -0.046875q0 -0.546875 -0.203125 -0.921875q-0.203125 -0.375 -0.609375 -0.578125q-0.40625 -0.203125 -1.015625 -0.203125q-0.625 0 -1.078125 0.203125q-0.4375 0.1875 -0.71875 0.484375q-0.265625 0.28125 -0.40625 0.59375l-1.359375 -0.453125q0.34375 -0.796875 0.90625 -1.234375q0.578125 -0.453125 1.265625 -0.640625q0.6875 -0.1875 1.359375 -0.1875q0.4375 0 0.984375 0.109375q0.5625 0.09375 1.078125 0.40625q0.53125 0.3125 0.859375 0.9375q0.34375 0.609375 0.34375 1.625l0 5.765625l-1.375 0l0 -1.1875l-0.09375 0q-0.15625 0.296875 -0.484375 0.625q-0.328125 0.328125 -0.859375 0.546875q-0.515625 0.21875 -1.25 0.21875zm0.234375 -1.25q0.78125 0 1.3125 -0.296875q0.546875 -0.3125 0.828125 -0.796875q0.28125 -0.484375 0.28125 -1.015625l0 -1.21875q-0.078125 0.109375 -0.375 0.1875q-0.28125 0.078125 -0.65625 0.140625q-0.375 0.0625 -0.71875 0.109375q-0.34375 0.046875 -0.546875 0.0625q-0.515625 0.0625 -0.953125 0.21875q-0.4375 0.15625 -0.703125 0.453125q-0.265625 0.28125 -0.265625 0.78125q0 0.453125 0.234375 0.765625q0.234375 0.296875 0.640625 0.453125q0.40625 0.15625 0.921875 0.15625zm6.296875 1.046875l0 -8.734375l1.359375 0l0 1.34375l0.09375 0q0.25 -0.671875 0.859375 -1.0625q0.625 -0.40625 1.40625 -0.40625q0.15625 0 0.375 0.015625q0.21875 0 0.34375 0l0 1.421875q-0.0625 -0.015625 -0.3125 -0.046875q-0.25 -0.03125 -0.53125 -0.03125q-0.625 0 -1.125 0.265625q-0.5 0.25 -0.78125 0.71875q-0.28125 0.453125 -0.28125 1.046875l0 5.46875l-1.40625 0z" fill-rule="nonzero"/></g><g filter="url(#shadowFilter-p.14)"><use xlink:href="#p.14" transform="matrix(1.0 0.0 0.0 1.0 1.389316797900263 1.4386795275590492)"/></g><defs><filter id="shadowFilter-p.14" filterUnits="userSpaceOnUse"><feGaussianBlur in="SourceAlpha" stdDeviation="0.0" result="blur"/><feComponentTransfer in="blur" color-interpolation-filters="sRGB"><feFuncR type="linear" slope="0" intercept="0.0"/><feFuncG type="linear" slope="0" intercept="0.0"/><feFuncB type="linear" slope="0" intercept="0.0"/><feFuncA type="linear" slope="0.14" intercept="0"/></feComponentTransfer></filter></defs><g id="p.14"><path fill="#d9d2e9" d="m14.169802 214.54579c0 -1.6583405 1.344348 -3.0026855 3.0026855 -3.0026855l775.034 0c0.7963867 0 1.5601196 0.31636047 2.12323 0.8794708c0.56311035 0.56311035 0.87945557 1.3268585 0.87945557 2.1232147l0 12.010376c0 1.6583405 -1.3443604 3.0026855 -3.0026855 3.0026855l-775.034 0c-1.6583376 0 -3.0026855 -1.3443451 -3.0026855 -3.0026855z" fill-rule="evenodd"/><path stroke="#b7b7b7" stroke-width="1.0" stroke-linejoin="round" stroke-linecap="butt" d="m14.169802 214.54579c0 -1.6583405 1.344348 -3.0026855 3.0026855 -3.0026855l775.034 0c0.7963867 0 1.5601196 0.31636047 2.12323 0.8794708c0.56311035 0.56311035 0.87945557 1.3268585 0.87945557 2.1232147l0 12.010376c0 1.6583405 -1.3443604 3.0026855 -3.0026855 3.0026855l-775.034 0c-1.6583376 0 -3.0026855 -1.3443451 -3.0026855 -3.0026855z" fill-rule="evenodd"/><path fill="#000000" d="m371.04105 216.08286l0 -1.3125l8.796875 0l0 1.3125l-3.640625 0l0 10.328125l-1.484375 0l0 -10.328125l-3.671875 0zm12.203125 5.09375l0 5.234375l-1.40625 0l0 -11.640625l1.40625 0l0 5.015625l-0.234375 0q0.390625 -1.203125 1.125 -1.703125q0.75 -0.515625 1.734375 -0.515625q0.890625 0 1.546875 0.359375q0.671875 0.359375 1.046875 1.09375q0.375 0.734375 0.375 1.84375l0 5.546875l-1.421875 0l0 -5.4375q0 -1.0 -0.53125 -1.5625q-0.515625 -0.578125 -1.4375 -0.578125q-0.625 0 -1.125 0.28125q-0.5 0.265625 -0.796875 0.796875q-0.28125 0.515625 -0.28125 1.265625zm8.0546875 5.234375l0 -8.734375l1.40625 0l0 8.734375l-1.40625 0zm0.71875 -10.171875q-0.40625 0 -0.703125 -0.265625q-0.28125 -0.28125 -0.28125 -0.65625q0 -0.390625 0.28125 -0.65625q0.296875 -0.28125 0.703125 -0.28125q0.40625 0 0.6875 0.28125q0.296875 0.265625 0.296875 0.65625q0 0.375 -0.296875 0.65625q-0.28125 0.265625 -0.6875 0.265625zm4.5625 4.9375l0 5.234375l-1.40625 0l0 -8.734375l1.359375 0l0 2.109375l-0.1875 0q0.390625 -1.203125 1.125 -1.703125q0.75 -0.515625 1.734375 -0.515625q0.890625 0 1.546875 0.359375q0.671875 0.359375 1.03125 1.09375q0.375 0.734375 0.375 1.84375l0 5.546875l-1.40625 0l0 -5.4375q0 -1.0 -0.53125 -1.5625q-0.515625 -0.578125 -1.4375 -0.578125q-0.625 0 -1.125 0.28125q-0.5 0.265625 -0.796875 0.796875q-0.28125 0.515625 -0.28125 1.265625zm12.71875 5.234375l0 -11.640625l7.046875 0l0 1.3125l-5.5625 0l0 3.984375l5.03125 0l0 1.3125l-5.03125 0l0 5.03125l-1.484375 0zm9.2734375 0l0 -8.734375l1.40625 0l0 8.734375l-1.40625 0zm0.71875 -10.171875q-0.40625 0 -0.703125 -0.265625q-0.28125 -0.28125 -0.28125 -0.65625q0 -0.390625 0.28125 -0.65625q0.296875 -0.28125 0.703125 -0.28125q0.40625 0 0.6875 0.28125q0.296875 0.265625 0.296875 0.65625q0 0.375 -0.296875 0.65625q-0.28125 0.265625 -0.6875 0.265625zm4.5625 -1.46875l0 11.640625l-1.40625 0l0 -11.640625l1.40625 0zm2.46875 11.640625l0 -8.734375l1.375 0l0 1.953125l-0.109375 0q0.1875 -0.71875 0.5625 -1.171875q0.390625 -0.46875 0.90625 -0.703125q0.53125 -0.234375 1.09375 -0.234375q0.953125 0 1.53125 0.59375q0.59375 0.578125 0.765625 1.53125l-0.1875 0q0.15625 -0.65625 0.5625 -1.125q0.421875 -0.484375 1.015625 -0.734375q0.59375 -0.265625 1.28125 -0.265625q0.765625 0 1.390625 0.328125q0.625 0.328125 0.984375 1.0q0.375 0.65625 0.375 1.671875l0 5.890625l-1.40625 0l0 -5.859375q0 -0.9375 -0.53125 -1.34375q-0.53125 -0.40625 -1.234375 -0.40625q-0.578125 0 -1.015625 0.25q-0.421875 0.234375 -0.65625 0.671875q-0.21875 0.421875 -0.21875 0.984375l0 5.703125l-1.40625 0l0 -6.0q0 -0.71875 -0.484375 -1.15625q-0.484375 -0.453125 -1.234375 -0.453125q-0.5 0 -0.953125 0.234375q-0.453125 0.234375 -0.734375 0.703125q-0.265625 0.46875 -0.265625 1.171875l0 5.5l-1.40625 0z" fill-rule="nonzero"/></g><g filter="url(#shadowFilter-p.15)"><use xlink:href="#p.15" transform="matrix(1.0 0.0 0.0 1.0 1.3893167979002625 1.4386797900262531)"/></g><defs><filter id="shadowFilter-p.15" filterUnits="userSpaceOnUse"><feGaussianBlur in="SourceAlpha" stdDeviation="0.0" result="blur"/><feComponentTransfer in="blur" color-interpolation-filters="sRGB"><feFuncR type="linear" slope="0" intercept="0.0"/><feFuncG type="linear" slope="0" intercept="0.0"/><feFuncB type="linear" slope="0" intercept="0.0"/><feFuncA type="linear" slope="0.14" intercept="0"/></feComponentTransfer></filter></defs><g id="p.15"><path fill="#cccccc" d="m4.931761 276.93668c0 -1.1015015 0.8929267 -1.9944153 1.9944077 -1.9944153l904.42065 0c0.52893066 0 1.0362549 0.21011353 1.4102783 0.58413696c0.37402344 0.37402344 0.58410645 0.88131714 0.58410645 1.4102783l0 25.711975c0 1.101471 -0.8928833 1.9943848 -1.9943848 1.9943848l-904.42065 0c-1.101481 0 -1.9944077 -0.8929138 -1.9944077 -1.9943848z" fill-rule="evenodd"/><path stroke="#b7b7b7" stroke-width="1.0" stroke-linejoin="round" stroke-linecap="butt" d="m4.931761 276.93668c0 -1.1015015 0.8929267 -1.9944153 1.9944077 -1.9944153l904.42065 0c0.52893066 0 1.0362549 0.21011353 1.4102783 0.58413696c0.37402344 0.37402344 0.58410645 0.88131714 0.58410645 1.4102783l0 25.711975c0 1.101471 -0.8928833 1.9943848 -1.9943848 1.9943848l-904.42065 0c-1.101481 0 -1.9944077 -0.8929138 -1.9944077 -1.9943848z" fill-rule="evenodd"/><path fill="#000000" d="m440.35913 295.85577q-1.265625 0 -2.1875 -0.40625q-0.921875 -0.40625 -1.453125 -1.140625q-0.515625 -0.734375 -0.59375 -1.703125l1.53125 0q0.0625 0.65625 0.4375 1.078125q0.390625 0.421875 0.984375 0.640625q0.59375 0.203125 1.28125 0.203125q0.78125 0 1.40625 -0.25q0.640625 -0.265625 1.0 -0.734375q0.375 -0.46875 0.375 -1.09375q0 -0.5625 -0.328125 -0.90625q-0.3125 -0.359375 -0.84375 -0.578125q-0.515625 -0.234375 -1.140625 -0.40625l-1.40625 -0.390625q-1.40625 -0.40625 -2.1875 -1.140625q-0.78125 -0.75 -0.78125 -1.90625q0 -0.984375 0.53125 -1.71875q0.53125 -0.734375 1.4375 -1.140625q0.90625 -0.40625 2.03125 -0.40625q1.15625 0 2.03125 0.40625q0.890625 0.40625 1.390625 1.109375q0.515625 0.6875 0.546875 1.578125l-1.453125 0q-0.09375 -0.859375 -0.8125 -1.3125q-0.703125 -0.46875 -1.75 -0.46875q-0.75 0 -1.3125 0.25q-0.5625 0.234375 -0.875 0.671875q-0.3125 0.421875 -0.3125 0.96875q0 0.609375 0.375 0.984375q0.375 0.359375 0.890625 0.578125q0.53125 0.203125 0.953125 0.3125l1.15625 0.328125q0.46875 0.125 1.03125 0.34375q0.578125 0.21875 1.09375 0.578125q0.515625 0.359375 0.84375 0.921875q0.328125 0.5625 0.328125 1.375q0 0.953125 -0.5 1.71875q-0.484375 0.765625 -1.4375 1.21875q-0.9375 0.4375 -2.28125 0.4375zm7.765625 -5.4375l0 5.234375l-1.40625 0l0 -11.640625l1.40625 0l0 5.015625l-0.234375 0q0.390625 -1.203125 1.125 -1.703125q0.75 -0.515625 1.734375 -0.515625q0.890625 0 1.546875 0.359375q0.671875 0.359375 1.046875 1.09375q0.375 0.734375 0.375 1.84375l0 5.546875l-1.421875 0l0 -5.4375q0 -1.0 -0.53125 -1.5625q-0.515625 -0.578125 -1.4375 -0.578125q-0.625 0 -1.125 0.28125q-0.5 0.265625 -0.796875 0.796875q-0.28125 0.515625 -0.28125 1.265625zm11.7265625 5.421875q-1.265625 0 -2.1875 -0.5625q-0.90625 -0.5625 -1.40625 -1.5625q-0.5 -1.015625 -0.5 -2.359375q0 -1.34375 0.484375 -2.359375q0.484375 -1.03125 1.375 -1.609375q0.890625 -0.578125 2.078125 -0.578125q0.6875 0 1.359375 0.234375q0.6875 0.21875 1.234375 0.734375q0.546875 0.515625 0.875 1.359375q0.328125 0.828125 0.328125 2.03125l0 0.59375l-6.78125 0l0 -1.1875l6.03125 0l-0.65625 0.4375q0 -0.859375 -0.28125 -1.53125q-0.265625 -0.671875 -0.796875 -1.046875q-0.53125 -0.375 -1.3125 -0.375q-0.796875 0 -1.359375 0.390625q-0.5625 0.375 -0.859375 1.0q-0.296875 0.625 -0.296875 1.328125l0 0.796875q0 0.96875 0.328125 1.640625q0.34375 0.671875 0.953125 1.03125q0.609375 0.34375 1.40625 0.34375q0.515625 0 0.9375 -0.140625q0.421875 -0.15625 0.71875 -0.453125q0.3125 -0.3125 0.46875 -0.75l1.359375 0.375q-0.203125 0.65625 -0.6875 1.15625q-0.484375 0.5 -1.203125 0.78125q-0.703125 0.28125 -1.609375 0.28125zm9.328125 0q-1.265625 0 -2.1875 -0.5625q-0.90625 -0.5625 -1.40625 -1.5625q-0.5 -1.015625 -0.5 -2.359375q0 -1.34375 0.484375 -2.359375q0.484375 -1.03125 1.375 -1.609375q0.890625 -0.578125 2.078125 -0.578125q0.6875 0 1.359375 0.234375q0.6875 0.21875 1.234375 0.734375q0.546875 0.515625 0.875 1.359375q0.328125 0.828125 0.328125 2.03125l0 0.59375l-6.78125 0l0 -1.1875l6.03125 0l-0.65625 0.4375q0 -0.859375 -0.28125 -1.53125q-0.265625 -0.671875 -0.796875 -1.046875q-0.53125 -0.375 -1.3125 -0.375q-0.796875 0 -1.359375 0.390625q-0.5625 0.375 -0.859375 1.0q-0.296875 0.625 -0.296875 1.328125l0 0.796875q0 0.96875 0.328125 1.640625q0.34375 0.671875 0.953125 1.03125q0.609375 0.34375 1.40625 0.34375q0.515625 0 0.9375 -0.140625q0.421875 -0.15625 0.71875 -0.453125q0.3125 -0.3125 0.46875 -0.75l1.359375 0.375q-0.203125 0.65625 -0.6875 1.15625q-0.484375 0.5 -1.203125 0.78125q-0.703125 0.28125 -1.609375 0.28125zm7.0625 -5.421875l0 5.234375l-1.40625 0l0 -8.734375l1.359375 0l0 2.109375l-0.1875 0q0.390625 -1.203125 1.125 -1.703125q0.75 -0.515625 1.734375 -0.515625q0.890625 0 1.546875 0.359375q0.671875 0.359375 1.03125 1.09375q0.375 0.734375 0.375 1.84375l0 5.546875l-1.40625 0l0 -5.4375q0 -1.0 -0.53125 -1.5625q-0.515625 -0.578125 -1.4375 -0.578125q-0.625 0 -1.125 0.28125q-0.5 0.265625 -0.796875 0.796875q-0.28125 0.515625 -0.28125 1.265625z" fill-rule="nonzero"/></g><g filter="url(#shadowFilter-p.16)"><use xlink:href="#p.16" transform="matrix(1.0 0.0 0.0 1.0 1.389316797900263 1.4386797900262531)"/></g><defs><filter id="shadowFilter-p.16" filterUnits="userSpaceOnUse"><feGaussianBlur in="SourceAlpha" stdDeviation="0.0" result="blur"/><feComponentTransfer in="blur" color-interpolation-filters="sRGB"><feFuncR type="linear" slope="0" intercept="0.0"/><feFuncG type="linear" slope="0" intercept="0.0"/><feFuncB type="linear" slope="0" intercept="0.0"/><feFuncA type="linear" slope="0.14" intercept="0"/></feComponentTransfer></filter></defs><g id="p.16"><path fill="#efefef" d="m4.9317584 244.50844c0 -1.4508667 1.1761637 -2.6270294 2.6270347 -2.6270294l903.1554 0c0.6967163 0 1.3649292 0.27677917 1.857605 0.7694397c0.49267578 0.49266052 0.7694092 1.1608582 0.7694092 1.8575897l0 24.446732c0 1.4508667 -1.1761475 2.6270142 -2.6270142 2.6270142l-903.1554 0c-1.450871 0 -2.6270347 -1.1761475 -2.6270347 -2.6270142z" fill-rule="evenodd"/><path stroke="#b7b7b7" stroke-width="1.0" stroke-linejoin="round" stroke-linecap="butt" d="m4.9317584 244.50844c0 -1.4508667 1.1761637 -2.6270294 2.6270347 -2.6270294l903.1554 0c0.6967163 0 1.3649292 0.27677917 1.857605 0.7694397c0.49267578 0.49266052 0.7694092 1.1608582 0.7694092 1.8575897l0 24.446732c0 1.4508667 -1.1761475 2.6270142 -2.6270142 2.6270142l-903.1554 0c-1.450871 0 -2.6270347 -1.1761475 -2.6270347 -2.6270142z" fill-rule="evenodd"/><path fill="#000000" d="m447.43338 262.74805q-1.5 0 -2.671875 -0.71875q-1.15625 -0.734375 -1.828125 -2.0625q-0.671875 -1.34375 -0.671875 -3.1875q0 -1.859375 0.671875 -3.1875q0.671875 -1.34375 1.828125 -2.0625q1.171875 -0.734375 2.671875 -0.734375q0.875 0 1.65625 0.265625q0.796875 0.25 1.421875 0.75q0.625 0.484375 1.03125 1.203125q0.421875 0.703125 0.578125 1.59375l-1.484375 0q-0.125 -0.59375 -0.421875 -1.046875q-0.296875 -0.453125 -0.734375 -0.765625q-0.4375 -0.3125 -0.96875 -0.46875q-0.515625 -0.15625 -1.078125 -0.15625q-1.046875 0 -1.890625 0.53125q-0.84375 0.53125 -1.34375 1.5625q-0.484375 1.015625 -0.484375 2.515625q0 1.484375 0.484375 2.515625q0.5 1.015625 1.34375 1.546875q0.84375 0.53125 1.890625 0.53125q0.5625 0 1.078125 -0.15625q0.53125 -0.171875 0.96875 -0.46875q0.4375 -0.3125 0.734375 -0.765625q0.296875 -0.46875 0.421875 -1.0625l1.484375 0q-0.140625 0.890625 -0.5625 1.59375q-0.421875 0.703125 -1.046875 1.203125q-0.625 0.5 -1.40625 0.765625q-0.78125 0.265625 -1.671875 0.265625zm10.359375 0.03125q-1.1875 0 -2.09375 -0.5625q-0.890625 -0.5625 -1.390625 -1.578125q-0.5 -1.015625 -0.5 -2.359375q0 -1.375 0.5 -2.390625q0.5 -1.015625 1.390625 -1.578125q0.90625 -0.5625 2.09375 -0.5625q1.1875 0 2.078125 0.5625q0.90625 0.5625 1.40625 1.578125q0.5 1.015625 0.5 2.390625q0 1.34375 -0.5 2.359375q-0.5 1.015625 -1.40625 1.578125q-0.890625 0.5625 -2.078125 0.5625zm0 -1.265625q0.875 0 1.4375 -0.453125q0.578125 -0.453125 0.84375 -1.1875q0.28125 -0.734375 0.28125 -1.59375q0 -0.875 -0.28125 -1.609375q-0.265625 -0.75 -0.84375 -1.203125q-0.5625 -0.46875 -1.4375 -0.46875q-0.875 0 -1.4375 0.46875q-0.5625 0.453125 -0.84375 1.203125q-0.265625 0.734375 -0.265625 1.609375q0 0.859375 0.265625 1.59375q0.28125 0.734375 0.84375 1.1875q0.5625 0.453125 1.4375 0.453125zm8.640625 1.28125q-0.828125 0 -1.515625 -0.3125q-0.671875 -0.3125 -1.078125 -0.90625q-0.390625 -0.609375 -0.390625 -1.46875q0 -0.75 0.296875 -1.21875q0.296875 -0.46875 0.796875 -0.734375q0.5 -0.28125 1.09375 -0.40625q0.609375 -0.140625 1.21875 -0.21875q0.78125 -0.09375 1.265625 -0.140625q0.5 -0.0625 0.734375 -0.1875q0.234375 -0.140625 0.234375 -0.46875l0 -0.046875q0 -0.546875 -0.203125 -0.921875q-0.203125 -0.375 -0.609375 -0.578125q-0.40625 -0.203125 -1.015625 -0.203125q-0.625 0 -1.078125 0.203125q-0.4375 0.1875 -0.71875 0.484375q-0.265625 0.28125 -0.40625 0.59375l-1.359375 -0.453125q0.34375 -0.796875 0.90625 -1.234375q0.578125 -0.453125 1.265625 -0.640625q0.6875 -0.1875 1.359375 -0.1875q0.4375 0 0.984375 0.109375q0.5625 0.09375 1.078125 0.40625q0.53125 0.3125 0.859375 0.9375q0.34375 0.609375 0.34375 1.625l0 5.765625l-1.375 0l0 -1.1875l-0.09375 0q-0.15625 0.296875 -0.484375 0.625q-0.328125 0.328125 -0.859375 0.546875q-0.515625 0.21875 -1.25 0.21875zm0.234375 -1.25q0.78125 0 1.3125 -0.296875q0.546875 -0.3125 0.828125 -0.796875q0.28125 -0.484375 0.28125 -1.015625l0 -1.21875q-0.078125 0.109375 -0.375 0.1875q-0.28125 0.078125 -0.65625 0.140625q-0.375 0.0625 -0.71875 0.109375q-0.34375 0.046875 -0.546875 0.0625q-0.515625 0.0625 -0.953125 0.21875q-0.4375 0.15625 -0.703125 0.453125q-0.265625 0.28125 -0.265625 0.78125q0 0.453125 0.234375 0.765625q0.234375 0.296875 0.640625 0.453125q0.40625 0.15625 0.921875 0.15625zm9.734375 -7.6875l0 1.203125l-4.515625 0l0 -1.203125l4.515625 0zm-3.203125 -2.078125l1.40625 0l0 8.546875q0 0.578125 0.234375 0.859375q0.25 0.265625 0.796875 0.265625q0.140625 0 0.34375 -0.03125q0.203125 -0.03125 0.375 -0.0625l0.296875 1.1875q-0.21875 0.078125 -0.5 0.109375q-0.28125 0.046875 -0.546875 0.046875q-1.140625 0 -1.78125 -0.59375q-0.625 -0.609375 -0.625 -1.671875l0 -8.65625z" fill-rule="nonzero"/></g></g></svg>